SplineFontDB: 3.2
FontName: Soilad
FullName: Soilad
FamilyName: Soilad
Weight: Medium
Version: 2.0-1.0
ItalicAngle: 0
UnderlinePosition: -140
UnderlineWidth: 74
Ascent: 819
Descent: 205
InvalidEm: 0
sfntRevision: 0x00010000
LayerCount: 2
Layer: 0 1 "Back" 1
Layer: 1 1 "Fore" 0
XUID: [1021 1020 -136595712 76347]
StyleMap: 0x0000
FSType: 0
OS2Version: 2
OS2_WeightWidthSlopeOnly: 0
OS2_UseTypoMetrics: 0
CreationTime: 1177936274
ModificationTime: 1760255523
PfmFamily: 81
TTFWeight: 500
TTFWidth: 5
LineGap: 0
VLineGap: 0
Panose: 0 0 0 0 0 0 0 0 0 0
OS2TypoAscent: 716
OS2TypoAOffset: 0
OS2TypoDescent: -218
OS2TypoDOffset: 0
OS2TypoLinegap: 68
OS2WinAscent: 986
OS2WinAOffset: 0
OS2WinDescent: 242
OS2WinDOffset: 0
HheadAscent: 986
HheadAOffset: 0
HheadDescent: -242
HheadDOffset: 0
OS2SubXSize: 666
OS2SubYSize: 666
OS2SubXOff: 0
OS2SubYOff: 154
OS2SupXSize: 666
OS2SupYSize: 666
OS2SupXOff: 0
OS2SupYOff: 512
OS2StrikeYSize: 51
OS2StrikeYPos: 230
OS2CapHeight: 716
OS2XHeight: 490
OS2Vendor: 'PfEd'
OS2CodePages: 20000111.41000000
OS2UnicodeRanges: 8000002f.40000048.00000000.00000000
Lookup: 1 0 0 "'rtla' Right to Left Alternates lookup 0" { "'rtla' Right to Left Alternates lookup 0 subtable"  } ['rtla' ('DFLT' <'dflt' > ) ]
Lookup: 258 0 0 "'kern' Horizontal Kerning in Latin lookup 0" { "'kern' Horizontal Kerning in Latin lookup 0 subtable"  } ['kern' ('DFLT' <'dflt' > 'latn' <'dflt' > ) ]
DEI: 91125
TtTable: prep
PUSHW_1
 511
SCANCTRL
PUSHB_1
 1
SCANTYPE
SVTCA[y-axis]
MPPEM
PUSHB_1
 8
LT
IF
PUSHB_2
 1
 1
INSTCTRL
EIF
PUSHB_2
 70
 6
CALL
IF
POP
PUSHB_1
 16
EIF
MPPEM
PUSHB_1
 20
GT
IF
POP
PUSHB_1
 128
EIF
SCVTCI
PUSHB_1
 6
CALL
NOT
IF
EIF
PUSHB_1
 20
CALL
EndTTInstrs
TtTable: fpgm
PUSHB_1
 0
FDEF
PUSHB_1
 0
SZP0
MPPEM
PUSHB_1
 42
LT
IF
PUSHB_1
 74
SROUND
EIF
PUSHB_1
 0
SWAP
MIAP[rnd]
RTG
PUSHB_1
 6
CALL
IF
RTDG
EIF
MPPEM
PUSHB_1
 42
LT
IF
RDTG
EIF
DUP
MDRP[rp0,rnd,grey]
PUSHB_1
 1
SZP0
MDAP[no-rnd]
RTG
ENDF
PUSHB_1
 1
FDEF
DUP
MDRP[rp0,min,white]
PUSHB_1
 12
CALL
ENDF
PUSHB_1

StartChar: exclam
Encoding: 33 33 5
Width: 278
GlyphClass: 1
Flags: W
LayerCount: 2
Fore
SplineSet
94 671 m 2,0,1
 94 689 94 689 107.5 702.5 c 128,-1,2
 121 716 121 716 139.5 716 c 128,-1,3
 158 716 158 716 171 702.5 c 128,-1,4
 184 689 184 689 184 671 c 2,5,-1
 184 208 l 2,6,7
 184 190 184 190 171 176.5 c 128,-1,8
 158 163 158 163 139.5 163 c 128,-1,9
 121 163 121 163 107.5 176 c 128,-1,10
 94 189 94 189 94 208 c 2,11,-1
 94 671 l 2,0,1
80 51.5 m 128,-1,13
 80 76 80 76 97 93.5 c 128,-1,14
 114 111 114 111 139.5 111 c 128,-1,15
 165 111 165 111 182 93.5 c 128,-1,16
 199 76 199 76 199 51.5 c 128,-1,17
 199 27 199 27 181.5 10 c 128,-1,18
 164 -7 164 -7 139.5 -7 c 128,-1,19
 115 -7 115 -7 97.5 10 c 128,-1,12
 80 27 80 27 80 51.5 c 128,-1,13
EndSplineSet
EndChar

StartChar: quotedbl
Encoding: 34 34 6
Width: 307
GlyphClass: 1
Flags: W
LayerCount: 2
Fore
SplineSet
193 683 m 2,0,1
 193 697 193 697 203 707.5 c 128,-1,2
 213 718 213 718 227.5 718 c 128,-1,3
 242 718 242 718 252 707.5 c 128,-1,4
 262 697 262 697 262 683 c 2,5,-1
 263 475 l 2,6,7
 263 461 263 461 253 450.5 c 128,-1,8
 243 440 243 440 228.5 440 c 128,-1,9
 214 440 214 440 204 450.5 c 128,-1,10
 194 461 194 461 194 475 c 2,11,-1
 193 683 l 2,0,1
45 683 m 2,12,13
 45 697 45 697 55.5 707.5 c 128,-1,14
 66 718 66 718 80 718 c 128,-1,15
 94 718 94 718 104.5 707.5 c 128,-1,16
 115 697 115 697 115 683 c 2,17,-1
 115 475 l 2,18,19
 115 461 115 461 104.5 450.5 c 128,-1,20
 94 440 94 440 80 440 c 128,-1,21
 66 440 66 440 55.5 450.5 c 128,-1,22
 45 461 45 461 45 475 c 2,23,-1
 45 683 l 2,12,13
EndSplineSet
EndChar

StartChar: numbersign
Encoding: 35 35 7
Width: 787
GlyphClass: 1
Flags: W
LayerCount: 2
Fore
SplineSet
462 729 m 1,0,-1
 381 502 l 1,1,-1
 509 502 l 1,2,-1
 591 729 l 1,3,-1
 673 729 l 1,4,-1
 593 502 l 1,5,-1
 743 502 l 1,6,-1
 718 429 l 1,7,-1
 566 429 l 1,8,-1
 520 297 l 1,9,-1
 681 297 l 1,10,-1
 655 224 l 1,11,-1
 495 224 l 1,12,-1
 414 -2 l 1,13,-1
 331 -2 l 1,14,-1
 412 224 l 1,15,-1
 283 224 l 1,16,-1
 202 -2 l 1,17,-1
 119 -2 l 1,18,-1
 199 224 l 1,19,-1
 44 224 l 1,20,-1
 71 297 l 1,21,-1
 225 297 l 1,22,-1
 271 429 l 1,23,-1
 106 429 l 1,24,-1
 132 502 l 1,25,-1
 298 502 l 1,26,-1
 379 729 l 1,27,-1
 462 729 l 1,0,-1
484 429 m 1,28,-1
 354 429 l 1,29,-1
 308 297 l 1,30,-1
 438 297 l 1,31,-1
 484 429 l 1,28,-1
EndSplineSet
EndChar

StartChar: dollar
Encoding: 36 36 8
Width: 557
GlyphClass: 1
Flags: W
LayerCount: 2
Fore
SplineSet
417 687 m 2,0,1
 434 687 434 687 446 675.5 c 128,-1,2
 458 664 458 664 458 646 c 128,-1,3
 458 628 458 628 446 616 c 128,-1,4
 434 604 434 604 417 604 c 2,5,-1
 313 604 l 1,6,-1
 313 428 l 1,7,8
 405 378 405 378 445.5 334 c 128,-1,9
 486 290 486 290 486 230 c 0,10,11
 486 161 486 161 441.5 120.5 c 128,-1,12
 397 80 397 80 318 80 c 2,13,-1
 313 80 l 1,14,-1
 313 34 l 2,15,16
 313 19 313 19 303 8.5 c 128,-1,17
 293 -2 293 -2 276 -2 c 0,18,19
 262 -2 262 -2 251.5 8.5 c 128,-1,20
 241 19 241 19 241 34 c 2,21,-1
 241 80 l 1,22,-1
 121 80 l 2,23,24
 103 80 103 80 90 92.5 c 128,-1,25
 77 105 77 105 77 123.5 c 128,-1,26
 77 142 77 142 89.5 155 c 128,-1,27
 102 168 102 168 121 168 c 2,28,-1
 241 168 l 1,29,-1
 241 361 l 1,30,31
 156 405 156 405 117.5 446.5 c 128,-1,32
 79 488 79 488 79 544 c 0,33,34
 79 605 79 605 123 645.5 c 128,-1,35
 167 686 167 686 241 687 c 1,36,-1
 241 724 l 2,37,38
 241 738 241 738 251.5 749 c 128,-1,39
 262 760 262 760 276 760 c 0,40,41
 292 760 292 760 302.5 749.5 c 128,-1,42
 313 739 313 739 313 724 c 2,43,-1
 313 687 l 1,44,-1
 417 687 l 2,0,1
241 461 m 1,45,-1
 241 604 l 1,46,-1
 233 604 l 2,47,48
 201 604 201 604 182 586.5 c 128,-1,49
 163 569 163 569 163 544 c 0,50,51
 163 520 163 520 181.5 500.5 c 128,-1,52
 200 481 200 481 241 461 c 1,45,-1
313 168 m 1,53,-1
 318 168 l 2,54,55
 353 168 353 168 372.5 186 c 128,-1,56
 392 204 392 204 392 233 c 0,57,58
 392 286 392 286 313 324 c 1,59,-1
 313 168 l 1,53,-1
EndSplineSet
EndChar

StartChar: percent
Encoding: 37 37 9
Width: 841
GlyphClass: 1
Flags: W
LayerCount: 2
Fore
SplineSet
46 555 m 128,-1,1
 46 623 46 623 92.5 669.5 c 128,-1,2
 139 716 139 716 206.5 716 c 128,-1,3
 274 716 274 716 321.5 669.5 c 128,-1,4
 369 623 369 623 369 555 c 128,-1,5
 369 487 369 487 321.5 440 c 128,-1,6
 274 393 274 393 206.5 393 c 128,-1,7
 139 393 139 393 92.5 440 c 128,-1,0
 46 487 46 487 46 555 c 128,-1,1
125 555 m 0,8,9
 125 521 125 521 149 497 c 128,-1,10
 173 473 173 473 207 473 c 128,-1,11
 241 473 241 473 265.5 497 c 128,-1,12
 290 521 290 521 290 555 c 0,13,14
 290 590 290 590 266 613.5 c 128,-1,15
 242 637 242 637 207 637 c 128,-1,16
 172 637 172 637 148.5 613.5 c 128,-1,17
 125 590 125 590 125 555 c 0,8,9
151 0 m 1,18,-1
 616 716 l 1,19,-1
 682 716 l 1,20,-1
 221 0 l 1,21,-1
 151 0 l 1,18,-1
476 160.5 m 128,-1,23
 476 228 476 228 523 275.5 c 128,-1,24
 570 323 570 323 638 323 c 128,-1,25
 706 323 706 323 752.5 275.5 c 128,-1,26
 799 228 799 228 799 160.5 c 128,-1,27
 799 93 799 93 752.5 46.5 c 128,-1,28
 706 0 706 0 638 0 c 128,-1,29
 570 0 570 0 523 46.5 c 128,-1,22
 476 93 476 93 476 160.5 c 128,-1,23
555 161 m 0,30,31
 555 127 555 127 579.5 103 c 128,-1,32
 604 79 604 79 638 79 c 128,-1,33
 672 79 672 79 696 103 c 128,-1,34
 720 127 720 127 720 161 c 0,35,36
 720 196 720 196 696.5 220 c 128,-1,37
 673 244 673 244 638 244 c 128,-1,38
 603 244 603 244 579 220 c 128,-1,39
 555 196 555 196 555 161 c 0,30,31
EndSplineSet
EndChar

StartChar: ampersand
Encoding: 38 38 10
Width: 710
GlyphClass: 1
Flags: W
LayerCount: 2
Fore
SplineSet
530 492 m 0,0,1
 625 400 625 400 626 281 c 0,2,3
 626 192 626 192 578 117 c 1,4,-1
 662 0 l 1,5,-1
 548 0 l 1,6,-1
 513 50 l 1,7,8
 428 -7 428 -7 335 -7 c 0,9,10
 218 -7 218 -7 134 72 c 0,11,12
 45 156 45 156 45 276 c 0,13,14
 45 431 45 431 173 516 c 1,15,-1
 141 559 l 2,16,17
 122 585 122 585 122 618 c 0,18,19
 122 661 122 661 158.5 688.5 c 128,-1,20
 195 716 195 716 258 716 c 2,21,-1
 465 716 l 2,22,23
 483 716 483 716 496.5 702.5 c 128,-1,24
 510 689 510 689 510 671 c 0,25,26
 510 652 510 652 496.5 638.5 c 128,-1,27
 483 625 483 625 465 625 c 2,28,-1
 251 625 l 2,29,30
 225 625 225 625 225 609 c 0,31,32
 225 602 225 602 230 595 c 2,33,-1
 518 199 l 1,34,35
 532 245 532 245 532 282 c 0,36,37
 532 367 532 367 469 428 c 0,38,39
 456 441 456 441 456 459 c 0,40,41
 455 460 455 460 455 460 c 1,42,43
 455 478 455 478 468 492 c 0,44,45
 480 504 480 504 498.5 504 c 128,-1,46
 517 504 517 504 530 492 c 0,0,1
224 447 m 1,47,48
 137 385 137 385 137 283 c 0,49,50
 137 200 137 200 195 142.5 c 128,-1,51
 253 85 253 85 335 85 c 0,52,53
 403 85 403 85 459 122 c 1,54,-1
 224 447 l 1,47,48
EndSplineSet
EndChar

StartChar: quotesingle
Encoding: 39 39 11
Width: 158
GlyphClass: 1
Flags: W
LayerCount: 2
Fore
SplineSet
115 475 m 2,0,1
 115 461 115 461 104.5 450.5 c 128,-1,2
 94 440 94 440 80 440 c 128,-1,3
 66 440 66 440 55.5 450.5 c 128,-1,4
 45 461 45 461 45 475 c 2,5,-1
 45 683 l 2,6,7
 45 697 45 697 55.5 707.5 c 128,-1,8
 66 718 66 718 80 718 c 128,-1,9
 94 718 94 718 104.5 707.5 c 128,-1,10
 115 697 115 697 115 683 c 2,11,-1
 115 475 l 2,0,1
EndSplineSet
EndChar

StartChar: parenleft
Encoding: 40 40 12
Width: 393
GlyphClass: 1
Flags: W
LayerCount: 2
Fore
SplineSet
298 -184 m 1,0,1
 79 20 79 20 79 267 c 0,2,3
 79 393 79 393 132.5 502 c 128,-1,4
 186 611 186 611 298 715 c 1,5,-1
 348 645 l 1,6,7
 167 486 167 486 167 266 c 0,8,9
 167 42 167 42 348 -115 c 1,10,-1
 298 -184 l 1,0,1
EndSplineSet
Substitution2: "'rtla' Right to Left Alternates lookup 0 subtable" parenright
EndChar

StartChar: parenright
Encoding: 41 41 13
Width: 393
GlyphClass: 1
Flags: W
LayerCount: 2
Fore
SplineSet
42 -115 m 1,0,1
 223 42 223 42 223 266 c 0,2,3
 223 486 223 486 42 645 c 1,4,-1
 93 715 l 1,5,6
 205 612 205 612 258 503 c 128,-1,7
 311 394 311 394 311 267 c 0,8,9
 311 18 311 18 93 -184 c 1,10,-1
 42 -115 l 1,0,1
EndSplineSet
Substitution2: "'rtla' Right to Left Alternates lookup 0 subtable" parenleft
EndChar

StartChar: asterisk
Encoding: 42 42 14
Width: 504
GlyphClass: 1
Flags: W
LayerCount: 2
Fore
SplineSet
270 506 m 1,0,-1
 291 348 l 1,1,-1
 209 348 l 1,2,-1
 233 506 l 1,3,-1
 108 410 l 1,4,-1
 67 480 l 1,5,-1
 215 538 l 1,6,-1
 69 599 l 1,7,-1
 109 670 l 1,8,-1
 233 569 l 1,9,-1
 213 728 l 1,10,-1
 295 728 l 1,11,-1
 270 567 l 1,12,-1
 395 668 l 1,13,-1
 436 597 l 1,14,-1
 289 536 l 1,15,-1
 438 478 l 1,16,-1
 396 408 l 1,17,-1
 270 506 l 1,0,-1
EndSplineSet
EndChar

StartChar: plus
Encoding: 43 43 15
Width: 852
GlyphClass: 1
Flags: W
LayerCount: 2
Fore
SplineSet
462 35 m 2,0,1
 462 21 462 21 452 10.5 c 128,-1,2
 442 0 442 0 426 0 c 0,3,4
 412 0 412 0 401.5 10 c 128,-1,5
 391 20 391 20 391 35 c 2,6,-1
 391 270 l 1,7,-1
 162 270 l 2,8,9
 148 270 148 270 137.5 280.5 c 128,-1,10
 127 291 127 291 127 305 c 128,-1,11
 127 319 127 319 137 329.5 c 128,-1,12
 147 340 147 340 162 340 c 2,13,-1
 391 340 l 1,14,-1
 391 575 l 2,15,16
 391 589 391 589 401.5 599.5 c 128,-1,17
 412 610 412 610 426 610 c 0,18,19
 442 610 442 610 452 600 c 128,-1,20
 462 590 462 590 462 575 c 2,21,-1
 462 340 l 1,22,-1
 691 340 l 2,23,24
 705 340 705 340 715.5 329.5 c 128,-1,25
 726 319 726 319 726 305 c 128,-1,26
 726 291 726 291 716 280.5 c 128,-1,27
 706 270 706 270 691 270 c 2,28,-1
 462 270 l 1,29,-1
 462 35 l 2,0,1
EndSplineSet
EndChar

StartChar: comma
Encoding: 44 44 16
Width: 278
GlyphClass: 1
Flags: W
LayerCount: 2
Fore
SplineSet
68.1494140625 -56.1845703125 m 0,0,1
 68 -58 68 -58 67.5 -63 c 0,2,3
 68 -78 68 -78 79.75 -90 c 0,4,5
 92 -102 92 -102 106 -102 c 0,6,7
 122 -102 122 -102 133.5 -90 c 0,8,9
 142 -81 142 -81 143.942382812 -73.6240234375 c 0,10,11
 160 -14 160 -14 175 44 c 0,12,13
 176 49 176 49 176.5 54.5 c 0,14,15
 175 73 175 73 164 83.75 c 0,16,17
 152 96 152 96 135 96 c 128,-1,18
 118 96 118 96 106 83.5 c 0,19,20
 96 72 96 72 94 62 c 1,21,22
 68 -56 68 -56 68.1494140625 -56.1845703125 c 0,0,1
EndSplineSet
EndChar

StartChar: hyphen
Encoding: 45 45 17
Width: 337
GlyphClass: 1
Flags: W
LayerCount: 2
Fore
SplineSet
100 202 m 2,0,1
 82 202 82 202 68.5 215 c 128,-1,2
 55 228 55 228 55 246.5 c 128,-1,3
 55 265 55 265 68.5 278.5 c 128,-1,4
 82 292 82 292 100 292 c 2,5,-1
 237 292 l 2,6,7
 255 292 255 292 268.5 278.5 c 128,-1,8
 282 265 282 265 282 246.5 c 128,-1,9
 282 228 282 228 268.5 215 c 128,-1,10
 255 202 255 202 237 202 c 2,11,-1
 100 202 l 2,0,1
EndSplineSet
EndChar

StartChar: period
Encoding: 46 46 18
Width: 278
GlyphClass: 1
Flags: W
LayerCount: 2
Fore
SplineSet
80 51.5 m 128,-1,1
 80 76 80 76 97 93.5 c 128,-1,2
 114 111 114 111 139.5 111 c 128,-1,3
 165 111 165 111 182 93.5 c 128,-1,4
 199 76 199 76 199 51.5 c 128,-1,5
 199 27 199 27 181.5 10 c 128,-1,6
 164 -7 164 -7 139.5 -7 c 128,-1,7
 115 -7 115 -7 97.5 10 c 128,-1,0
 80 27 80 27 80 51.5 c 128,-1,1
EndSplineSet
EndChar

StartChar: slash
Encoding: 47 47 19
Width: 277
GlyphClass: 1
Flags: W
LayerCount: 2
Fore
SplineSet
229 708 m 2,0,1
 233 719 233 719 243.5 724.5 c 128,-1,2
 254 730 254 730 265 727 c 128,-1,3
 276 724 276 724 282.5 713 c 128,-1,4
 289 702 289 702 285 692 c 2,5,-1
 60 -73 l 2,6,7
 56 -85 56 -85 45.5 -91 c 128,-1,8
 35 -97 35 -97 22.5 -93.5 c 128,-1,9
 10 -90 10 -90 4.5 -79 c 128,-1,10
 -1 -68 -1 -68 3 -55 c 2,11,-1
 229 708 l 2,0,1
EndSplineSet
EndChar

StartChar: zero
Encoding: 48 48 20
Width: 557
GlyphClass: 1
Flags: W
LayerCount: 2
Fore
SplineSet
37 490 m 2,0,1
 37 592 37 592 106.5 660 c 128,-1,2
 176 728 176 728 278.5 728 c 128,-1,3
 381 728 381 728 450.5 660.5 c 128,-1,4
 520 593 520 593 520 490 c 2,5,-1
 520 225 l 2,6,7
 520 123 520 123 451 55.5 c 128,-1,8
 382 -12 382 -12 279 -12 c 0,9,10
 175 -12 175 -12 106 56 c 128,-1,11
 37 124 37 124 37 225 c 2,12,-1
 37 490 l 2,0,1
425 246 m 2,13,-1
 425 475 l 2,14,15
 425 549 425 549 382.5 595.5 c 128,-1,16
 340 642 340 642 278.5 642 c 128,-1,17
 217 642 217 642 174.5 595 c 128,-1,18
 132 548 132 548 132 475 c 2,19,-1
 132 246 l 2,20,21
 132 173 132 173 174 125.5 c 128,-1,22
 216 78 216 78 278.5 78 c 128,-1,23
 341 78 341 78 383 125 c 128,-1,24
 425 172 425 172 425 246 c 2,13,-1
EndSplineSet
EndChar

StartChar: one
Encoding: 49 49 21
Width: 557
GlyphClass: 1
Flags: W
LayerCount: 2
Fore
SplineSet
255 626 m 1,0,-1
 126 626 l 1,1,-1
 157 716 l 1,2,-1
 352 716 l 1,3,-1
 352 48 l 2,4,5
 352 28 352 28 338.5 14 c 128,-1,6
 325 0 325 0 303 0 c 0,7,8
 283 0 283 0 269 14.5 c 128,-1,9
 255 29 255 29 255 48 c 2,10,-1
 255 626 l 1,0,-1
EndSplineSet
EndChar

StartChar: two
Encoding: 50 50 22
Width: 557
GlyphClass: 1
Flags: W
LayerCount: 2
Fore
SplineSet
475 95 m 2,0,1
 494 95 494 95 508 81.5 c 128,-1,2
 522 68 522 68 522 48 c 128,-1,3
 522 28 522 28 508.5 14 c 128,-1,4
 495 0 495 0 475 0 c 2,5,-1
 127 0 l 2,6,7
 86 0 86 0 63.5 19.5 c 128,-1,8
 41 39 41 39 41 74 c 0,9,10
 41 114 41 114 91 155 c 2,11,-1
 347 360 l 2,12,13
 424 421 424 421 424 504 c 0,14,15
 424 561 424 561 385 599 c 128,-1,16
 346 637 346 637 286.5 637 c 128,-1,17
 227 637 227 637 187.5 598 c 128,-1,18
 148 559 148 559 148 498.5 c 128,-1,19
 148 438 148 438 183.5 400 c 128,-1,20
 219 362 219 362 282 355 c 1,21,-1
 197 288 l 1,22,23
 125 317 125 317 87 370.5 c 128,-1,24
 49 424 49 424 49 497 c 0,25,26
 49 597 49 597 117 662.5 c 128,-1,27
 185 728 185 728 291 728 c 0,28,29
 394 728 394 728 459.5 665 c 128,-1,30
 525 602 525 602 525 506 c 0,31,32
 525 438 525 438 492 382.5 c 128,-1,33
 459 327 459 327 388 272 c 2,34,-1
 161 95 l 1,35,-1
 475 95 l 2,0,1
EndSplineSet
EndChar

StartChar: three
Encoding: 51 51 23
Width: 557
GlyphClass: 1
Flags: W
LayerCount: 2
Fore
SplineSet
95 0 m 2,0,1
 76 0 76 0 62 13.5 c 128,-1,2
 48 27 48 27 48 48 c 0,3,4
 48 67 48 67 62 81 c 128,-1,5
 76 95 76 95 95 95 c 2,6,-1
 258 95 l 2,7,8
 335 95 335 95 375.5 129 c 128,-1,9
 416 163 416 163 416 224 c 0,10,11
 416 282 416 282 378 316 c 128,-1,12
 340 350 340 350 273 350 c 2,13,-1
 146 350 l 1,14,-1
 146 416 l 1,15,-1
 371 626 l 1,16,-1
 111 626 l 2,17,18
 93 626 93 626 79.5 639 c 128,-1,19
 66 652 66 652 66 670.5 c 128,-1,20
 66 689 66 689 79 702.5 c 128,-1,21
 92 716 92 716 111 716 c 2,22,-1
 365 716 l 2,23,24
 469 716 469 716 469 641 c 0,25,26
 469 599 469 599 435 568 c 2,27,-1
 290 432 l 1,28,29
 399 431 399 431 457.5 375 c 128,-1,30
 516 319 516 319 516 219 c 0,31,32
 516 121 516 121 452.5 60.5 c 128,-1,33
 389 0 389 0 288 0 c 2,34,-1
 95 0 l 2,0,1
EndSplineSet
EndChar

StartChar: four
Encoding: 52 52 24
Width: 557
GlyphClass: 1
Flags: W
LayerCount: 2
Fore
SplineSet
431 168 m 1,0,-1
 431 46 l 2,1,2
 431 27 431 27 417.5 13.5 c 128,-1,3
 404 0 404 0 385 0 c 128,-1,4
 366 0 366 0 352.5 13.5 c 128,-1,5
 339 27 339 27 339 46 c 2,6,-1
 339 168 l 1,7,-1
 93 168 l 2,8,9
 25 168 25 168 25 228 c 0,10,11
 25 229 25 229 25 230 c 0,12,13
 25 258 25 258 43 294 c 2,14,-1
 272 716 l 1,15,-1
 379 716 l 1,16,-1
 130 261 l 1,17,-1
 339 261 l 1,18,-1
 339 564 l 1,19,-1
 431 730 l 1,20,-1
 431 261 l 1,21,-1
 495 261 l 2,22,23
 514 261 514 261 527.5 247.5 c 128,-1,24
 541 234 541 234 541 215 c 0,25,26
 541 195 541 195 527.5 181.5 c 128,-1,27
 514 168 514 168 495 168 c 2,28,-1
 431 168 l 1,0,-1
EndSplineSet
EndChar

StartChar: five
Encoding: 53 53 25
Width: 557
GlyphClass: 1
Flags: W
LayerCount: 2
Fore
SplineSet
98 0 m 2,0,1
 79 0 79 0 65 14 c 128,-1,2
 51 28 51 28 51 48 c 0,3,4
 51 67 51 67 65 81 c 128,-1,5
 79 95 79 95 98 95 c 2,6,-1
 271 95 l 2,7,8
 340 95 340 95 376.5 128 c 128,-1,9
 413 161 413 161 413 222 c 0,10,11
 413 280 413 280 377 314 c 128,-1,12
 341 348 341 348 278 348 c 2,13,-1
 80 348 l 1,14,-1
 80 716 l 1,15,-1
 407 716 l 2,16,17
 425 716 425 716 438.5 702.5 c 128,-1,18
 452 689 452 689 452 671 c 0,19,20
 452 652 452 652 438.5 638 c 128,-1,21
 425 624 425 624 407 624 c 2,22,-1
 172 624 l 1,23,-1
 172 442 l 1,24,-1
 273 442 l 2,25,26
 391 442 391 442 454.5 385 c 128,-1,27
 518 328 518 328 518 224 c 0,28,29
 518 123 518 123 452.5 61.5 c 128,-1,30
 387 0 387 0 275 0 c 2,31,-1
 98 0 l 2,0,1
EndSplineSet
EndChar

StartChar: six
Encoding: 54 54 26
Width: 557
GlyphClass: 1
Flags: W
LayerCount: 2
Fore
SplineSet
213 435 m 2,0,1
 169 374 169 374 149 333 c 128,-1,2
 129 292 129 292 129 247 c 0,3,4
 129 175 129 175 173.5 128 c 128,-1,5
 218 81 218 81 285 81 c 0,6,7
 350 81 350 81 395 130.5 c 128,-1,8
 440 180 440 180 440 252 c 0,9,10
 440 323 440 323 395 367 c 128,-1,11
 350 411 350 411 276 411 c 0,12,13
 268 411 268 411 240 409 c 1,14,-1
 303 496 l 1,15,16
 413 492 413 492 476 426.5 c 128,-1,17
 539 361 539 361 539 254 c 0,18,19
 539 138 539 138 467.5 64.5 c 128,-1,20
 396 -9 396 -9 287 -9 c 0,21,22
 181 -9 181 -9 109 60 c 0,23,24
 35 134 35 134 35 233 c 0,25,26
 35 302 35 302 63.5 362 c 128,-1,27
 92 422 92 422 153 506 c 2,28,-1
 302 716 l 1,29,-1
 416 716 l 1,30,-1
 213 435 l 2,0,1
EndSplineSet
EndChar

StartChar: seven
Encoding: 55 55 27
Width: 557
GlyphClass: 1
Flags: W
LayerCount: 2
Fore
SplineSet
93 626 m 2,0,1
 75 626 75 626 61.5 639 c 128,-1,2
 48 652 48 652 48 670.5 c 128,-1,3
 48 689 48 689 61.5 702.5 c 128,-1,4
 75 716 75 716 93 716 c 2,5,-1
 422 716 l 2,6,7
 522 716 522 716 522 640 c 0,8,9
 522 613 522 613 501 563 c 2,10,-1
 256 0 l 1,11,-1
 142 0 l 1,12,-1
 424 626 l 1,13,-1
 93 626 l 2,0,1
EndSplineSet
EndChar

StartChar: eight
Encoding: 56 56 28
Width: 557
GlyphClass: 1
Flags: W
LayerCount: 2
Fore
SplineSet
182 544 m 0,0,1
 182 503 182 503 210.5 475 c 128,-1,2
 239 447 239 447 278.5 447 c 128,-1,3
 318 447 318 447 346.5 475 c 128,-1,4
 375 503 375 503 375 544 c 0,5,6
 375 586 375 586 347 613 c 128,-1,7
 319 640 319 640 278.5 640 c 128,-1,8
 238 640 238 640 210 613 c 128,-1,9
 182 586 182 586 182 544 c 0,0,1
132 218 m 0,10,11
 132 160 132 160 174 121 c 128,-1,12
 216 82 216 82 278.5 82 c 128,-1,13
 341 82 341 82 383 121.5 c 128,-1,14
 425 161 425 161 425 218 c 128,-1,15
 425 275 425 275 382.5 315 c 128,-1,16
 340 355 340 355 278.5 355 c 128,-1,17
 217 355 217 355 174.5 315 c 128,-1,18
 132 275 132 275 132 218 c 0,10,11
163 412 m 1,19,20
 79 468 79 468 79 553 c 0,21,22
 79 627 79 627 135 677.5 c 128,-1,23
 191 728 191 728 278.5 728 c 128,-1,24
 366 728 366 728 422 677.5 c 128,-1,25
 478 627 478 627 478 553 c 0,26,27
 478 468 478 468 394 412 c 1,28,29
 523 357 523 357 523 217 c 0,30,31
 523 116 523 116 455 52 c 128,-1,32
 387 -12 387 -12 278.5 -12 c 128,-1,33
 170 -12 170 -12 102 52 c 128,-1,34
 34 116 34 116 34 217 c 0,35,36
 34 357 34 357 163 412 c 1,19,20
EndSplineSet
EndChar

StartChar: nine
Encoding: 57 57 29
Width: 557
GlyphClass: 1
Flags: W
LayerCount: 2
Fore
SplineSet
350 281 m 2,0,1
 394 342 394 342 414 383 c 128,-1,2
 434 424 434 424 434 469 c 0,3,4
 434 541 434 541 389.5 588 c 128,-1,5
 345 635 345 635 279 635 c 0,6,7
 214 635 214 635 169 585.5 c 128,-1,8
 124 536 124 536 124 464 c 0,9,10
 124 393 124 393 169 349 c 128,-1,11
 214 305 214 305 288 305 c 0,12,13
 295 305 295 305 324 307 c 1,14,-1
 261 221 l 1,15,16
 151 225 151 225 88.5 289.5 c 128,-1,17
 26 354 26 354 26 462 c 0,18,19
 26 578 26 578 97 651.5 c 128,-1,20
 168 725 168 725 278 725 c 0,21,22
 384 725 384 725 456 655 c 0,23,24
 529 582 529 582 529 485 c 0,25,26
 529 483 529 483 529 482 c 0,27,28
 529 413 529 413 501 354.5 c 128,-1,29
 473 296 473 296 412 211 c 2,30,-1
 262 0 l 1,31,-1
 148 0 l 1,32,-1
 350 281 l 2,0,1
EndSplineSet
EndChar

StartChar: colon
Encoding: 58 58 30
Width: 303
GlyphClass: 1
Flags: W
LayerCount: 2
Fore
SplineSet
92 346.5 m 128,-1,1
 92 371 92 371 109 388.5 c 128,-1,2
 126 406 126 406 151.5 406 c 128,-1,3
 177 406 177 406 194 388.5 c 128,-1,4
 211 371 211 371 211 346.5 c 128,-1,5
 211 322 211 322 193.5 304.5 c 128,-1,6
 176 287 176 287 151.5 287 c 128,-1,7
 127 287 127 287 109.5 304.5 c 128,-1,0
 92 322 92 322 92 346.5 c 128,-1,1
92 51.5 m 128,-1,9
 92 76 92 76 109 93.5 c 128,-1,10
 126 111 126 111 151.5 111 c 128,-1,11
 177 111 177 111 194 93.5 c 128,-1,12
 211 76 211 76 211 51.5 c 128,-1,13
 211 27 211 27 193.5 10 c 128,-1,14
 176 -7 176 -7 151.5 -7 c 128,-1,15
 127 -7 127 -7 109.5 10 c 128,-1,8
 92 27 92 27 92 51.5 c 128,-1,9
EndSplineSet
EndChar

StartChar: semicolon
Encoding: 59 59 31
Width: 303
GlyphClass: 1
Flags: W
LayerCount: 2
Fore
SplineSet
73 -102 m 1,0,-1
 116 96 l 1,1,-1
 205 96 l 1,2,-1
 152 -102 l 1,3,-1
 73 -102 l 1,0,-1
97 346.5 m 128,-1,5
 97 371 97 371 114 388.5 c 128,-1,6
 131 406 131 406 157 406 c 0,7,8
 182 406 182 406 198.5 388.5 c 128,-1,9
 215 371 215 371 215 346.5 c 128,-1,10
 215 322 215 322 198 304.5 c 128,-1,11
 181 287 181 287 156.5 287 c 128,-1,12
 132 287 132 287 114.5 304.5 c 128,-1,4
 97 322 97 322 97 346.5 c 128,-1,5
EndSplineSet
EndChar

StartChar: less
Encoding: 60 60 32
Width: 852
GlyphClass: 1
Flags: W
LayerCount: 2
Fore
SplineSet
721 503 m 1,0,-1
 237 305 l 1,1,-1
 721 109 l 1,2,-1
 721 32 l 1,3,-1
 132 273 l 1,4,-1
 132 338 l 1,5,-1
 721 580 l 1,6,-1
 721 503 l 1,0,-1
EndSplineSet
Substitution2: "'rtla' Right to Left Alternates lookup 0 subtable" greater
EndChar

StartChar: equal
Encoding: 61 61 33
Width: 852
GlyphClass: 1
Flags: W
LayerCount: 2
Fore
SplineSet
162 171 m 2,0,1
 148 171 148 171 137.5 181 c 128,-1,2
 127 191 127 191 127 205.5 c 128,-1,3
 127 220 127 220 137 230.5 c 128,-1,4
 147 241 147 241 162 241 c 2,5,-1
 691 241 l 2,6,7
 705 241 705 241 715.5 230.5 c 128,-1,8
 726 220 726 220 726 205.5 c 128,-1,9
 726 191 726 191 716 181 c 128,-1,10
 706 171 706 171 691 171 c 2,11,-1
 162 171 l 2,0,1
162 370 m 2,12,13
 148 370 148 370 137.5 380 c 128,-1,14
 127 390 127 390 127 404.5 c 128,-1,15
 127 419 127 419 137 429 c 128,-1,16
 147 439 147 439 162 439 c 2,17,-1
 691 439 l 2,18,19
 705 439 705 439 715.5 429 c 128,-1,20
 726 419 726 419 726 404.5 c 128,-1,21
 726 390 726 390 716 380 c 128,-1,22
 706 370 706 370 691 370 c 2,23,-1
 162 370 l 2,12,13
EndSplineSet
EndChar

StartChar: greater
Encoding: 62 62 34
Width: 852
GlyphClass: 1
Flags: W
LayerCount: 2
Fore
SplineSet
721 338 m 1,0,-1
 721 273 l 1,1,-1
 132 32 l 1,2,-1
 132 109 l 1,3,-1
 617 305 l 1,4,-1
 132 503 l 1,5,-1
 132 580 l 1,6,-1
 721 338 l 1,0,-1
EndSplineSet
Substitution2: "'rtla' Right to Left Alternates lookup 0 subtable" less
EndChar

StartChar: question
Encoding: 63 63 35
Width: 512
GlyphClass: 1
Flags: W
LayerCount: 2
Fore
SplineSet
267 391 m 0,0,1
 315 397 315 397 345 426 c 0,2,3
 380 462 380 462 380 513 c 0,4,5
 380 514 380 514 380 516 c 0,6,7
 380 564 380 564 345 600 c 0,8,9
 309 635 309 635 258 635 c 0,10,11
 206 635 206 635 171 600 c 0,12,13
 136 563 136 563 136 512 c 0,14,15
 136 493 136 493 122 478.5 c 128,-1,16
 108 464 108 464 88.5 464 c 128,-1,17
 69 464 69 464 54.5 478.5 c 128,-1,18
 40 493 40 493 40 512 c 0,19,20
 40 604 40 604 104 667 c 0,21,22
 167 730 167 730 258 730 c 128,-1,23
 349 730 349 730 412.5 667 c 128,-1,24
 476 604 476 604 476 513 c 0,25,26
 475 421 475 421 412 358 c 0,27,28
 374 319 374 319 323 304 c 0,29,30
 312 301 312 301 303 292 c 0,31,32
 289 277 289 277 289 258 c 2,33,-1
 289 218 l 2,34,35
 289 198 289 198 275 184 c 0,36,37
 260 169 260 169 240.5 169 c 128,-1,38
 221 169 221 169 207 183.5 c 128,-1,39
 193 198 193 198 193 217 c 2,40,-1
 194 298 l 2,41,42
 194 299 194 299 194 301 c 0,43,44
 194 339 194 339 221 366 c 0,45,46
 243 388 243 388 267 391 c 0,0,1
181 51.5 m 128,-1,48
 181 76 181 76 198 93.5 c 128,-1,49
 215 111 215 111 240.5 111 c 128,-1,50
 266 111 266 111 283 93.5 c 128,-1,51
 300 76 300 76 300 51.5 c 128,-1,52
 300 27 300 27 282.5 10 c 128,-1,53
 265 -7 265 -7 240.5 -7 c 128,-1,54
 216 -7 216 -7 198.5 10 c 128,-1,47
 181 27 181 27 181 51.5 c 128,-1,48
EndSplineSet
EndChar

StartChar: at
Encoding: 64 64 36
Width: 1024
GlyphClass: 1
Flags: W
LayerCount: 2
Fore
SplineSet
595 238 m 2,0,-1
 625 355 l 1,1,2
 617 399 617 399 590.5 423 c 128,-1,3
 564 447 564 447 525 447 c 0,4,5
 456 447 456 447 409 382 c 128,-1,6
 362 317 362 317 362 223 c 0,7,8
 362 170 362 170 386.5 142 c 128,-1,9
 411 114 411 114 456 114 c 0,10,11
 504 114 504 114 543 148.5 c 128,-1,12
 582 183 582 183 595 238 c 2,0,-1
642 427 m 1,13,-1
 671 484 l 1,14,-1
 736 484 l 1,15,-1
 664 197 l 2,16,17
 660 181 660 181 659 167 c 0,18,19
 659 120 659 120 709.5 120 c 128,-1,20
 760 120 760 120 814 171 c 0,21,22
 899 251 899 251 899 381 c 0,23,24
 899 510 899 510 804.5 591 c 128,-1,25
 710 672 710 672 554 672 c 0,26,27
 422 672 422 672 326 614 c 0,28,29
 231 557 231 557 178 464.5 c 128,-1,30
 125 372 125 372 125 260 c 0,31,32
 125 88 125 88 252 -9 c 0,33,34
 356 -89 356 -89 514 -89 c 0,35,36
 688 -89 688 -89 824 6 c 1,37,-1
 852 -35 l 1,38,39
 705 -146 705 -146 523 -146 c 0,40,41
 522 -146 522 -146 520 -146 c 0,42,43
 329 -146 329 -146 206 -53 c 0,44,45
 53 65 53 65 53 261 c 0,46,47
 53 429 53 429 155 552 c 0,48,49
 303 733 303 733 558 733 c 0,50,51
 728 733 728 733 840 647 c 0,52,53
 972 545 972 545 972 390 c 0,54,55
 972 212 972 212 848 115 c 0,56,57
 777 59 777 59 690 58 c 0,58,59
 590 58 590 58 590 137 c 2,60,-1
 590 146 l 1,61,62
 536 59 536 59 439 59 c 0,63,64
 363 59 363 59 323 101.5 c 128,-1,65
 283 144 283 144 283 225 c 0,66,67
 283 343 283 343 352 422.5 c 128,-1,68
 421 502 421 502 521 502 c 0,69,70
 606 502 606 502 642 427 c 1,13,-1
EndSplineSet
EndChar

StartChar: A
Encoding: 65 65 37
Width: 613
GlyphClass: 1
Flags: W
LayerCount: 2
Fore
SplineSet
106.5 0 m 128,-1,1
 89 0 89 0 73.5 12.5 c 128,-1,2
 58 25 58 25 58 48 c 2,3,-1
 58 450 l 2,4,5
 59 525 59 525 83.5 585.5 c 128,-1,6
 108 646 108 646 165.5 687 c 128,-1,7
 223 728 223 728 307 728 c 0,8,9
 429 728 429 728 492.5 647 c 128,-1,10
 556 566 556 566 556 450 c 0,11,12
 556 441 556 441 556 334.5 c 128,-1,13
 556 228 556 228 556 143.5 c 128,-1,14
 556 59 556 59 556 48 c 0,15,16
 555 28 555 28 542.5 14 c 128,-1,17
 530 0 530 0 508.5 0 c 128,-1,18
 487 0 487 0 474 15 c 128,-1,19
 461 30 461 30 461 48 c 2,20,-1
 461 284 l 2,21,22
 461 298 461 298 449.5 313.5 c 128,-1,23
 438 329 438 329 416 329 c 2,24,-1
 227 329 l 2,25,26
 208 329 208 329 195 342.5 c 128,-1,27
 182 356 182 356 182 373.5 c 128,-1,28
 182 391 182 391 194.5 405 c 128,-1,29
 207 419 207 419 227 419 c 2,30,-1
 416 419 l 2,31,32
 433 419 433 419 448 432 c 0,33,34
 461 444 461 444 461 462 c 0,35,36
 461 463 461 463 461 464 c 0,37,38
 448 639 448 639 307 640 c 0,39,40
 266 640 266 640 235.5 624 c 128,-1,41
 205 608 205 608 190 586.5 c 128,-1,42
 175 565 175 565 166 535.5 c 128,-1,43
 157 506 157 506 155.5 487 c 128,-1,44
 154 468 154 468 154 447 c 2,45,-1
 154 48 l 2,46,47
 154 25 154 25 139 12.5 c 128,-1,0
 124 0 124 0 106.5 0 c 128,-1,1
EndSplineSet
EndChar

StartChar: B
Encoding: 66 66 38
Width: 577
GlyphClass: 1
Flags: W
LayerCount: 2
Fore
SplineSet
231 331 m 2,0,1
 214 331 214 331 201 343.5 c 128,-1,2
 188 356 188 356 188 373.5 c 128,-1,3
 188 391 188 391 201 404 c 128,-1,4
 214 417 214 417 231 417 c 2,5,-1
 272 417 l 2,6,7
 340 417 340 417 378.5 446.5 c 128,-1,8
 417 476 417 476 417 525 c 0,9,10
 417 576 417 576 382 608.5 c 128,-1,11
 347 641 347 641 292 641 c 0,12,13
 227 641 227 641 190 598.5 c 128,-1,14
 153 556 153 556 153 480 c 2,15,-1
 153 47 l 2,16,17
 153 28 153 28 139 14 c 128,-1,18
 125 0 125 0 105.5 0 c 128,-1,19
 86 0 86 0 72 14 c 128,-1,20
 58 28 58 28 58 47 c 2,21,-1
 58 455 l 2,22,23
 58 585 58 585 120 656.5 c 128,-1,24
 182 728 182 728 289 728 c 0,25,26
 385 728 385 728 449 670 c 128,-1,27
 513 612 513 612 513 530 c 0,28,29
 513 439 513 439 432 384 c 1,30,31
 486 360 486 360 516.5 314 c 128,-1,32
 547 268 547 268 547 210 c 0,33,34
 547 118 547 118 481.5 59 c 128,-1,35
 416 0 416 0 306 0 c 2,36,-1
 233 0 l 2,37,38
 215 0 215 0 201.5 13.5 c 128,-1,39
 188 27 188 27 188 45 c 128,-1,40
 188 63 188 63 201.5 76.5 c 128,-1,41
 215 90 215 90 233 90 c 2,42,-1
 307 90 l 2,43,44
 373 90 373 90 409.5 123 c 128,-1,45
 446 156 446 156 446 212 c 0,46,47
 446 266 446 266 409 298.5 c 128,-1,48
 372 331 372 331 307 331 c 2,49,-1
 231 331 l 2,0,1
EndSplineSet
EndChar

StartChar: C
Encoding: 67 67 39
Width: 509
GlyphClass: 1
Flags: W
LayerCount: 2
Fore
SplineSet
437 0 m 0,0,1
 293 0 293 0 210 50 c 0,2,3
 34 156 34 156 34 358 c 0,4,5
 34 558 34 558 210 666 c 0,6,7
 292 716 292 716 437 716 c 0,8,9
 454 716 454 716 466.5 703.5 c 128,-1,10
 479 691 479 691 479 673.5 c 128,-1,11
 479 656 479 656 467 644 c 128,-1,12
 455 632 455 632 437 632 c 0,13,14
 298 632 298 632 214.5 557 c 128,-1,15
 131 482 131 482 131 358 c 128,-1,16
 131 234 131 234 214.5 159.5 c 128,-1,17
 298 85 298 85 437 85 c 0,18,19
 454 85 454 85 466.5 72.5 c 128,-1,20
 479 60 479 60 479 43 c 128,-1,21
 479 26 479 26 466.5 13 c 128,-1,22
 454 0 454 0 437 0 c 0,0,1
EndSplineSet
EndChar

StartChar: D
Encoding: 68 68 40
Width: 641
GlyphClass: 1
Flags: W
LayerCount: 2
Fore
SplineSet
236 86 m 0,0,1
 311 86 311 86 362 115 c 0,2,3
 408 139 408 139 431 164 c 0,4,5
 511 250 511 250 511 356 c 0,6,7
 511 358 511 358 511 359 c 0,8,9
 511 368 511 368 510 376 c 0,10,11
 501 500 501 500 429 559 c 0,12,13
 345 631 345 631 221 633 c 0,14,15
 206 633 206 633 203 633 c 0,16,17
 183 632 183 632 172 621 c 0,18,19
 160 605 160 605 160 590 c 2,20,-1
 160 163 l 1,21,-1
 160 47 l 2,22,23
 157 26 157 26 145 14 c 0,24,25
 133 1 133 1 113 0 c 0,26,27
 112 0 112 0 111 0 c 0,28,29
 93 0 93 0 80 14 c 0,30,31
 66 28 66 28 66 47 c 0,32,33
 66 667 66 667 66 668 c 0,34,35
 66 690 66 690 80 702 c 0,36,37
 95 715 95 715 113 716 c 0,38,39
 131 716 131 716 188 716 c 0,40,41
 191 716 191 716 194 716 c 0,42,43
 352 716 352 716 432 666 c 0,44,45
 608 555 608 555 608 369 c 0,46,47
 608 367 608 367 608 365 c 0,48,49
 607 166 607 166 454 56 c 0,50,51
 407 22 407 22 337 9 c 0,52,53
 286 0 286 0 244 0 c 0,54,55
 240 0 240 0 236 0 c 0,56,57
 219 0 219 0 208 10 c 0,58,59
 194 24 194 24 193 40 c 0,60,61
 193 41 193 41 193 43 c 0,62,63
 193 60 193 60 205 74 c 0,64,65
 218 86 218 86 236 86 c 0,0,1
EndSplineSet
EndChar

StartChar: E
Encoding: 69 69 41
Width: 520
GlyphClass: 1
Flags: W
LayerCount: 2
Fore
SplineSet
34 370 m 0,0,1
 35 440 35 440 62 501.5 c 128,-1,2
 89 563 89 563 139 611 c 128,-1,3
 189 659 189 659 266.5 687.5 c 128,-1,4
 344 716 344 716 437 716 c 0,5,6
 453 716 453 716 466 704 c 128,-1,7
 479 692 479 692 479 673.5 c 128,-1,8
 479 655 479 655 467 643.5 c 128,-1,9
 455 632 455 632 437 632 c 0,10,11
 230 632 230 632 158 477 c 0,12,13
 151 462 151 462 151 450 c 256,14,15
 151 438 151 438 158 430 c 0,16,17
 171 412 171 412 193 412 c 2,18,-1
 438 412 l 2,19,20
 457 412 457 412 468 398.5 c 128,-1,21
 479 385 479 385 479 369.5 c 128,-1,22
 479 354 479 354 468.5 340.5 c 128,-1,23
 458 327 458 327 438 327 c 2,24,-1
 183 327 l 2,25,26
 165 327 165 327 151 312 c 0,27,28
 141 301 141 301 141 286 c 0,29,30
 141 281 141 281 142 275 c 0,31,32
 182 86 182 86 436 86 c 0,33,34
 455 86 455 86 467 72 c 128,-1,35
 479 58 479 58 479 45 c 0,36,37
 479 27 479 27 467.5 14 c 128,-1,38
 456 1 456 1 436 0 c 0,39,40
 429 0 429 0 421 0 c 0,41,42
 399 0 399 0 374 2 c 0,43,44
 342 5 342 5 301.5 15.5 c 128,-1,45
 261 26 261 26 224 42.5 c 128,-1,46
 187 59 187 59 152 88.5 c 128,-1,47
 117 118 117 118 91 156 c 128,-1,48
 65 194 65 194 49.5 249 c 128,-1,49
 34 304 34 304 34 370 c 0,0,1
EndSplineSet
EndChar

StartChar: F
Encoding: 70 70 42
Width: 459
GlyphClass: 1
Flags: W
LayerCount: 2
Fore
SplineSet
58 47 m 2,0,1
 58 47 58 47 58 258 c 0,2,3
 58 470 58 470 58 481 c 0,4,5
 58 516 58 516 64.5 547 c 128,-1,6
 71 578 71 578 88 609.5 c 128,-1,7
 105 641 105 641 132.5 664 c 128,-1,8
 160 687 160 687 205.5 701.5 c 128,-1,9
 251 716 251 716 311 716 c 2,10,-1
 370 716 l 2,11,12
 392 716 392 716 403 701 c 128,-1,13
 414 686 414 686 414 674 c 0,14,15
 414 659 414 659 402.5 643.5 c 128,-1,16
 391 628 391 628 370 628 c 2,17,-1
 311 628 l 2,18,19
 232 628 232 628 193 593.5 c 128,-1,20
 154 559 154 559 153 481 c 0,21,22
 153 474 153 474 153 467.5 c 128,-1,23
 153 461 153 461 153 454 c 128,-1,24
 153 447 153 447 153 445 c 0,25,26
 153 429 153 429 164.5 415 c 128,-1,27
 176 401 176 401 197 401 c 2,28,-1
 370 401 l 2,29,30
 389 401 389 401 401.5 387.5 c 128,-1,31
 414 374 414 374 414 358 c 0,32,33
 414 340 414 340 401.5 326.5 c 128,-1,34
 389 313 389 313 370 313 c 2,35,-1
 197 313 l 2,36,37
 180 313 180 313 166.5 301 c 128,-1,38
 153 289 153 289 153 269 c 2,39,-1
 153 47 l 2,40,41
 153 27 153 27 139 13.5 c 128,-1,42
 125 0 125 0 105 0 c 0,43,44
 87 0 87 0 72.5 13.5 c 128,-1,45
 58 27 58 27 58 47 c 2,0,1
EndSplineSet
EndChar

StartChar: G
Encoding: 71 71 43
Width: 791
GlyphClass: 1
Flags: W
LayerCount: 2
Fore
SplineSet
627 537 m 0,0,1
 514 641 514 641 403 641 c 0,2,3
 321 641 321 641 260 601 c 0,4,5
 199 562 199 562 164.5 498.5 c 128,-1,6
 130 435 130 435 130 359 c 0,7,8
 130 244 130 244 209 160 c 0,9,10
 285 78 285 78 396 78 c 0,11,12
 398 78 398 78 399 78 c 0,13,14
 503 78 503 78 570 143 c 0,15,16
 627 197 627 197 645 263 c 0,17,18
 646 269 646 269 646 274 c 0,19,20
 646 292 646 292 633 305 c 0,21,22
 620 317 620 317 603 318 c 2,23,-1
 460 318 l 2,24,25
 440 320 440 320 428 332 c 0,26,27
 415 345 415 345 415 363.5 c 128,-1,28
 415 382 415 382 428.5 395.5 c 128,-1,29
 442 409 442 409 460 409 c 0,30,31
 713 409 713 409 713 409 c 2,32,33
 732 407 732 407 744 395 c 0,34,35
 758 380 758 380 758 364 c 0,36,37
 758 363 758 363 758 362 c 0,38,39
 752 253 752 253 716 183 c 0,40,41
 671 93 671 93 585 39 c 0,42,43
 501 -12 501 -12 396 -12 c 0,44,45
 395 -12 395 -12 393 -12 c 0,46,47
 245 -12 245 -12 140 96 c 0,48,49
 33 206 33 206 32 358 c 0,50,51
 32 359 32 359 32 360 c 0,52,53
 32 512 32 512 140 621 c 0,54,55
 246 728 246 728 407 728 c 0,56,57
 561 728 561 728 690 600 c 0,58,59
 703 587 703 587 703 568.5 c 128,-1,60
 703 550 703 550 690 536 c 256,61,62
 677 522 677 522 660 522 c 0,63,64
 659 522 659 522 658 522 c 0,65,66
 640 523 640 523 627 537 c 0,0,1
EndSplineSet
EndChar

StartChar: H
Encoding: 72 72 44
Width: 627
GlyphClass: 1
Flags: W
LayerCount: 2
Fore
SplineSet
66 669 m 2,0,1
 66 685 66 685 78 700.5 c 128,-1,2
 90 716 90 716 112.5 716 c 128,-1,3
 135 716 135 716 147.5 700 c 128,-1,4
 160 684 160 684 160 669 c 2,5,-1
 160 466 l 2,6,7
 160 448 160 448 173 433.5 c 128,-1,8
 186 419 186 419 207 419 c 2,9,-1
 421 419 l 2,10,11
 440 419 440 419 454 433 c 128,-1,12
 468 447 468 447 468 466 c 2,13,-1
 468 669 l 2,14,15
 468 687 468 687 481.5 701.5 c 128,-1,16
 495 716 495 716 515 716 c 0,17,18
 534 716 534 716 548.5 702 c 128,-1,19
 563 688 563 688 563 669 c 2,20,-1
 563 47 l 2,21,22
 563 29 563 29 549.5 14.5 c 128,-1,23
 536 0 536 0 515 0 c 0,24,25
 497 0 497 0 482.5 14 c 128,-1,26
 468 28 468 28 468 47 c 0,27,28
 468 62 468 62 468 169 c 128,-1,29
 468 276 468 276 468 283 c 0,30,31
 468 299 468 299 454.5 314 c 128,-1,32
 441 329 441 329 421 329 c 2,33,-1
 207 329 l 2,34,35
 189 329 189 329 174.5 315.5 c 128,-1,36
 160 302 160 302 160 282 c 2,37,-1
 160 47 l 2,38,39
 160 28 160 28 145.5 14 c 128,-1,40
 131 0 131 0 113 0 c 0,41,42
 93 0 93 0 79.5 14.5 c 128,-1,43
 66 29 66 29 66 47 c 2,44,-1
 66 669 l 2,0,1
EndSplineSet
EndChar

StartChar: I
Encoding: 73 73 45
Width: 232
GlyphClass: 1
Flags: W
LayerCount: 2
Fore
SplineSet
164 669 m 0,0,1
 168 511 168 511 168 355.5 c 128,-1,2
 168 200 168 200 164 47 c 0,3,4
 164 27 164 27 150 14 c 0,5,6
 135 0 135 0 115.5 0 c 128,-1,7
 96 0 96 0 82.5 14 c 128,-1,8
 69 28 69 28 69 47 c 2,9,-1
 69 669 l 2,10,11
 69 688 69 688 83 702 c 128,-1,12
 97 716 97 716 116 716 c 0,13,14
 137 715 137 715 150 702 c 0,15,16
 164 688 164 688 164 669 c 0,0,1
EndSplineSet
EndChar

StartChar: J
Encoding: 74 74 46
Width: 412
GlyphClass: 1
Flags: W
LayerCount: 2
Fore
SplineSet
42 0 m 0,0,1
 22 2 22 2 10 12 c 0,2,3
 -2 25 -2 25 -2 43.5 c 128,-1,4
 -2 62 -2 62 11 75 c 128,-1,5
 24 88 24 88 42 88 c 2,6,-1
 117 88 l 2,7,8
 186 88 186 88 222.5 126 c 128,-1,9
 259 164 259 164 259 234 c 2,10,-1
 259 669 l 2,11,12
 259 688 259 688 273 702 c 128,-1,13
 287 716 287 716 306.5 716 c 128,-1,14
 326 716 326 716 339.5 702 c 128,-1,15
 353 688 353 688 353 669 c 2,16,-1
 353 250 l 2,17,18
 353 0 353 0 100 0 c 2,19,20
 100 0 100 0 42 0 c 0,0,1
EndSplineSet
EndChar

StartChar: K
Encoding: 75 75 47
Width: 582
GlyphClass: 1
Flags: W
LayerCount: 2
Fore
SplineSet
66 669 m 2,0,1
 66 688 66 688 80 702 c 0,2,3
 94 715 94 715 113 716 c 0,4,5
 132 716 132 716 146 701 c 0,6,7
 159 687 159 687 160 669 c 2,8,-1
 160 467 l 2,9,10
 160 445 160 445 174.5 432 c 128,-1,11
 189 419 189 419 206 419 c 0,12,13
 216 419 216 419 230.5 419 c 128,-1,14
 245 419 245 419 248 419 c 0,15,16
 328 419 328 419 360 479 c 0,17,18
 372 502 372 502 394 549 c 128,-1,19
 416 596 416 596 435.5 640 c 128,-1,20
 455 684 455 684 456 686 c 0,21,22
 464 703 464 703 480 711 c 0,23,24
 489 716 489 716 499 716 c 0,25,26
 508 716 508 716 517 712 c 0,27,28
 536 703 536 703 543 684 c 0,29,30
 546 676 546 676 546 667 c 256,31,32
 546 658 546 658 542 648 c 0,33,34
 480 505 480 505 463 472 c 0,35,36
 438 421 438 421 386 396 c 1,37,38
 447 389 447 389 492 343 c 0,39,40
 537 298 537 298 537 226 c 0,41,42
 537 225 537 225 537 223 c 0,43,44
 537 199 537 199 537.5 159.5 c 128,-1,45
 538 120 538 120 538 85.5 c 128,-1,46
 538 51 538 51 538 47 c 0,47,48
 538 29 538 29 524 15 c 0,49,50
 509 0 509 0 489 0 c 0,51,52
 471 0 471 0 458 12 c 0,53,54
 443 26 443 26 442 47 c 0,55,56
 442 157 442 157 441 194 c 0,57,58
 441 221 441 221 435.5 241.5 c 128,-1,59
 430 262 430 262 416.5 283.5 c 128,-1,60
 403 305 403 305 374 317 c 128,-1,61
 345 329 345 329 303 329 c 2,62,-1
 207 329 l 2,63,64
 187 329 187 329 173.5 317.5 c 128,-1,65
 160 306 160 306 160 283 c 2,66,-1
 160 47 l 2,67,68
 160 29 160 29 145.5 14.5 c 128,-1,69
 131 0 131 0 113 0 c 0,70,71
 94 0 94 0 80 13.5 c 128,-1,72
 66 27 66 27 66 47 c 2,73,-1
 66 669 l 2,0,1
EndSplineSet
EndChar

StartChar: L
Encoding: 76 76 48
Width: 423
GlyphClass: 1
Flags: W
LayerCount: 2
Fore
SplineSet
154 234 m 2,0,1
 154 163 154 163 190.5 125.5 c 128,-1,2
 227 88 227 88 296 88 c 2,3,-1
 382 88 l 2,4,5
 400 88 400 88 413 75 c 128,-1,6
 426 62 426 62 426 44 c 128,-1,7
 426 26 426 26 413 13 c 128,-1,8
 400 0 400 0 382 0 c 2,9,-1
 312 0 l 2,10,11
 58 0 58 0 58 250 c 2,12,-1
 58 669 l 2,13,14
 58 688 58 688 72 702 c 128,-1,15
 86 716 86 716 105 716 c 0,16,17
 125 716 125 716 139.5 702 c 128,-1,18
 154 688 154 688 154 669 c 2,19,-1
 154 234 l 2,0,1
EndSplineSet
EndChar

StartChar: M
Encoding: 77 77 49
Width: 850
GlyphClass: 1
Flags: W
LayerCount: 2
Fore
SplineSet
121 40 m 2,0,1
 117 21 117 21 102 10 c 0,2,3
 91 1 91 1 77 1 c 0,4,5
 73 1 73 1 69 2 c 0,6,7
 51 4 51 4 40 20 c 0,8,9
 30 32 30 32 30 46 c 0,10,11
 30 49 30 49 31 53 c 2,12,-1
 114 638 l 2,13,14
 126 725 126 725 189 725 c 0,15,16
 244 725 244 725 266 653 c 2,17,-1
 426 143 l 1,18,-1
 585 653 l 2,19,20
 607 725 607 725 662 725 c 0,21,22
 725 725 725 725 737 638 c 2,23,-1
 821 50 l 2,24,25
 821 47 821 47 821 45 c 0,26,27
 821 30 821 30 812 17 c 0,28,29
 801 2 801 2 782 0 c 0,30,31
 780 0 780 0 777 0 c 0,32,33
 762 0 762 0 750 8 c 0,34,35
 735 19 735 19 732 39 c 2,36,-1
 655 590 l 1,37,-1
 492 65 l 2,38,39
 469 -8 469 -8 426 -8 c 0,40,41
 401 -8 401 -8 386.5 9.5 c 128,-1,42
 372 27 372 27 359 65 c 2,43,-1
 196 590 l 1,44,-1
 121 40 l 2,0,1
EndSplineSet
EndChar

StartChar: N
Encoding: 78 78 50
Width: 645
GlyphClass: 1
Flags: W
LayerCount: 2
Fore
SplineSet
156 601 m 1,0,-1
 156 45 l 2,1,2
 156 27 156 27 142.5 13.5 c 128,-1,3
 129 0 129 0 110.5 0 c 128,-1,4
 92 0 92 0 79 13.5 c 128,-1,5
 66 27 66 27 66 45 c 2,6,-1
 66 620 l 2,7,8
 66 671 66 671 86 697.5 c 128,-1,9
 106 724 106 724 143 724 c 0,10,11
 195 724 195 724 230 652 c 2,12,-1
 488 117 l 1,13,-1
 488 671 l 2,14,15
 488 689 488 689 502 702.5 c 128,-1,16
 516 716 516 716 534 716 c 0,17,18
 553 716 553 716 566.5 702.5 c 128,-1,19
 580 689 580 689 580 671 c 2,20,-1
 580 94 l 2,21,22
 580 44 580 44 559.5 17 c 128,-1,23
 539 -10 539 -10 504 -10 c 0,24,25
 503 -10 503 -10 503 -10 c 2,26,27
 450 -10 450 -10 415 61 c 2,28,-1
 156 601 l 1,0,-1
EndSplineSet
EndChar

StartChar: O
Encoding: 79 79 51
Width: 791
GlyphClass: 1
Flags: W
LayerCount: 2
Fore
SplineSet
130 359 m 0,0,1
 130 241 130 241 209 159.5 c 128,-1,2
 288 78 288 78 396 78 c 0,3,4
 506 78 506 78 583 160 c 0,5,6
 662 244 662 244 662 359 c 128,-1,7
 662 474 662 474 583 558 c 0,8,9
 506 640 506 640 396.5 640 c 128,-1,10
 287 640 287 640 209 559 c 0,11,12
 130 475 130 475 130 359 c 0,0,1
33 358 m 0,13,14
 33 511 33 511 140 621 c 0,15,16
 244 728 244 728 393 728 c 0,17,18
 395 728 395 728 396 728 c 0,19,20
 546 728 546 728 652.5 619.5 c 128,-1,21
 759 511 759 511 759 358 c 0,22,23
 759 204 759 204 652.5 96 c 128,-1,24
 546 -12 546 -12 396 -12 c 0,25,26
 245 -12 245 -12 140 95 c 0,27,28
 33 204 33 204 33 358 c 0,13,14
EndSplineSet
EndChar

StartChar: P
Encoding: 80 80 52
Width: 555
GlyphClass: 1
Flags: W
LayerCount: 2
Fore
SplineSet
291 266 m 0,0,1
 268 266 268 266 234 266 c 0,2,3
 215 268 215 268 203 280 c 0,4,5
 189 293 189 293 189 311.5 c 128,-1,6
 189 330 189 330 202.5 343 c 128,-1,7
 216 356 216 356 234 356 c 2,8,-1
 279 356 l 2,9,10
 349 356 349 356 391.5 395 c 128,-1,11
 434 434 434 434 434 499 c 0,12,13
 434 558 434 558 393.5 598.5 c 128,-1,14
 353 639 353 639 294 639 c 0,15,16
 230 639 230 639 192 596 c 128,-1,17
 154 553 154 553 154 477 c 2,18,-1
 154 47 l 2,19,20
 154 28 154 28 139.5 14 c 128,-1,21
 125 0 125 0 105 0 c 0,22,23
 86 0 86 0 72 14 c 128,-1,24
 58 28 58 28 58 47 c 2,25,-1
 58 433 l 2,26,27
 58 555 58 555 93 614 c 0,28,29
 126 669 126 669 178.5 699 c 128,-1,30
 231 729 231 729 296 729 c 0,31,32
 394 729 394 729 462.5 660.5 c 128,-1,33
 531 592 531 592 531 497 c 0,34,35
 531 397 531 397 463 331.5 c 128,-1,36
 395 266 395 266 291 266 c 0,0,1
EndSplineSet
EndChar

StartChar: Q
Encoding: 81 81 53
Width: 791
GlyphClass: 1
Flags: W
LayerCount: 2
Fore
SplineSet
301 96 m 0,0,1
 319 90 319 90 326 72 c 0,2,3
 329 64 329 64 329 57 c 0,4,5
 329 47 329 47 324 38 c 0,6,7
 317 20 317 20 300 14 c 0,8,9
 293 10 293 10 284 10 c 0,10,11
 276 10 276 10 267 14 c 0,12,13
 180 42 180 42 115 127 c 0,14,15
 33 237 33 237 33 358 c 0,16,17
 33 508 33 508 138 618 c 128,-1,18
 243 728 243 728 391 728 c 0,19,20
 394 728 394 728 396 728 c 0,21,22
 548 726 548 726 652 620 c 0,23,24
 757 514 757 514 759 358 c 0,25,26
 759 356 759 356 759 355 c 0,27,28
 759 230 759 230 678 125 c 0,29,30
 612 39 612 39 492 2 c 0,31,32
 480 -1 480 -1 473 -9 c 0,33,34
 460 -24 460 -24 460 -42 c 2,35,-1
 460 -92 l 2,36,37
 460 -112 460 -112 446.5 -125 c 128,-1,38
 433 -138 433 -138 413.5 -138 c 128,-1,39
 394 -138 394 -138 381 -125 c 0,40,41
 369 -112 369 -112 368 -92 c 0,42,43
 368 28 368 28 368 189 c 0,44,45
 368 209 368 209 381.5 222.5 c 128,-1,46
 395 236 395 236 414 236 c 0,47,48
 432 235 432 235 446 222 c 128,-1,49
 460 209 460 209 460 189 c 0,50,51
 460 173 460 173 460 157 c 0,52,53
 460 132 460 132 480 118 c 0,54,55
 492 110 492 110 504 110 c 128,-1,56
 516 110 516 110 530 118 c 0,57,58
 568 138 568 138 606 186 c 0,59,60
 662 260 662 260 662 359 c 0,61,62
 661 475 661 475 574 567 c 0,63,64
 508 638 508 638 396 640 c 0,65,66
 393 640 393 640 391 640 c 0,67,68
 286 640 286 640 209 558 c 0,69,70
 130 473 130 473 130 364 c 0,71,72
 130 362 130 362 130 359 c 0,73,74
 132 267 132 267 184 190 c 0,75,76
 236 114 236 114 301 96 c 0,0,1
EndSplineSet
EndChar

StartChar: R
Encoding: 82 82 54
Width: 571
GlyphClass: 1
Flags: W
LayerCount: 2
Fore
SplineSet
233 313 m 2,0,1
 216 313 216 313 203 326 c 128,-1,2
 190 339 190 339 190 356 c 0,3,4
 190 375 190 375 202.5 387.5 c 128,-1,5
 215 400 215 400 233 400 c 2,6,-1
 274 400 l 2,7,8
 345 400 345 400 383 432 c 128,-1,9
 421 464 421 464 421 520 c 0,10,11
 421 572 421 572 385 606 c 128,-1,12
 349 640 349 640 291 640 c 0,13,14
 229 640 229 640 191 597.5 c 128,-1,15
 153 555 153 555 153 480 c 2,16,-1
 153 428 l 1,17,-1
 153 47 l 2,18,19
 153 28 153 28 139 14 c 128,-1,20
 125 0 125 0 105.5 0 c 128,-1,21
 86 0 86 0 72 14 c 128,-1,22
 58 28 58 28 58 47 c 2,23,-1
 58 459 l 2,24,25
 58 586 58 586 121 657 c 128,-1,26
 184 728 184 728 292 728 c 0,27,28
 389 728 389 728 453.5 669 c 128,-1,29
 518 610 518 610 518 526 c 0,30,31
 518 423 518 423 422 370 c 1,32,33
 478 355 478 355 503 312.5 c 128,-1,34
 528 270 528 270 528 195 c 2,35,-1
 528 47 l 2,36,37
 528 28 528 28 514 14 c 0,38,39
 501 0 501 0 481.5 0 c 128,-1,40
 462 0 462 0 448 14 c 128,-1,41
 434 28 434 28 434 47 c 2,42,-1
 434 159 l 2,43,44
 434 245 434 245 406.5 279 c 128,-1,45
 379 313 379 313 299 313 c 2,46,-1
 233 313 l 2,0,1
EndSplineSet
EndChar

StartChar: S
Encoding: 83 83 55
Width: 537
GlyphClass: 1
Flags: W
LayerCount: 2
Fore
SplineSet
258 716 m 0,0,1
 418 716 418 716 418 716 c 2,2,3
 438 715 438 715 451 702 c 0,4,5
 465 688 465 688 465 668.5 c 128,-1,6
 465 649 465 649 451 635.5 c 128,-1,7
 437 622 437 622 418 622 c 2,8,-1
 226 622 l 2,9,10
 185 622 185 622 161 601 c 128,-1,11
 137 580 137 580 137 546 c 0,12,13
 137 509 137 509 163.5 486.5 c 128,-1,14
 190 464 190 464 260 428 c 2,15,-1
 365 375 l 2,16,17
 499 307 499 307 499 190 c 0,18,19
 499 101 499 101 438 50.5 c 128,-1,20
 377 0 377 0 262 0 c 2,21,-1
 83 0 l 2,22,23
 63 0 63 0 49.5 14 c 128,-1,24
 36 28 36 28 36 47 c 0,25,26
 36 68 36 68 50 81.5 c 128,-1,27
 64 95 64 95 83 95 c 2,28,-1
 281 95 l 2,29,30
 399 95 399 95 399 185 c 0,31,32
 399 222 399 222 373.5 247.5 c 128,-1,33
 348 273 348 273 289 304 c 2,34,-1
 169 366 l 2,35,36
 39 431 39 431 39 543 c 0,37,38
 39 622 39 622 97 669 c 128,-1,39
 155 716 155 716 258 716 c 0,0,1
EndSplineSet
EndChar

StartChar: T
Encoding: 84 84 56
Width: 495
GlyphClass: 1
Flags: W
LayerCount: 2
Fore
SplineSet
59 716 m 2,0,1
 59 716 59 716 434 716 c 0,2,3
 453 716 453 716 465.5 703.5 c 128,-1,4
 478 691 478 691 478 674 c 0,5,6
 478 654 478 654 465 641 c 128,-1,7
 452 628 452 628 434 628 c 2,8,-1
 339 628 l 2,9,10
 321 628 321 628 308 615 c 128,-1,11
 295 602 295 602 295 584 c 2,12,-1
 295 47 l 2,13,14
 295 28 295 28 281 14 c 128,-1,15
 267 0 267 0 247 0 c 128,-1,16
 227 0 227 0 213.5 14 c 128,-1,17
 200 28 200 28 200 47 c 2,18,-1
 200 584 l 2,19,20
 200 602 200 602 187 615 c 128,-1,21
 174 628 174 628 156 628 c 2,22,-1
 59 628 l 2,23,24
 42 628 42 628 29 640 c 128,-1,25
 16 652 16 652 16 671.5 c 128,-1,26
 16 691 16 691 29.5 703.5 c 128,-1,27
 43 716 43 716 59 716 c 2,0,1
EndSplineSet
EndChar

StartChar: U
Encoding: 85 85 57
Width: 614
GlyphClass: 1
Flags: W
LayerCount: 2
Fore
SplineSet
556 669 m 0,0,1
 556 268 556 268 556 266 c 0,2,3
 556 137 556 137 487.5 62.5 c 128,-1,4
 419 -12 419 -12 307.5 -12 c 128,-1,5
 196 -12 196 -12 127 62.5 c 128,-1,6
 58 137 58 137 58 266 c 2,7,-1
 58 669 l 2,8,9
 58 688 58 688 72 702 c 128,-1,10
 86 716 86 716 105 716 c 0,11,12
 126 716 126 716 140 702 c 128,-1,13
 154 688 154 688 154 669 c 2,14,15
 154 669 154 669 154 270 c 0,16,17
 154 176 154 176 193.5 127 c 128,-1,18
 233 78 233 78 307 78 c 128,-1,19
 381 78 381 78 421 127 c 128,-1,20
 461 176 461 176 461 270 c 2,21,-1
 461 669 l 2,22,23
 461 688 461 688 475 702 c 128,-1,24
 489 716 489 716 508 716 c 0,25,26
 529 715 529 715 543 702 c 0,27,28
 555 689 555 689 556 669 c 0,0,1
EndSplineSet
EndChar

StartChar: V
Encoding: 86 86 58
Width: 524
GlyphClass: 1
Flags: W
LayerCount: 2
Fore
SplineSet
-2 658 m 0,0,1
 -4 664 -4 664 -4 670 c 0,2,3
 -4 681 -4 681 2 692 c 0,4,5
 11 709 11 709 29 714 c 0,6,7
 35 716 35 716 42 716 c 0,8,9
 53 716 53 716 64 710 c 0,10,11
 80 701 80 701 86 684 c 2,12,-1
 262 111 l 1,13,-1
 439 685 l 2,14,15
 444 702 444 702 460 710 c 0,16,17
 470 716 470 716 482 716 c 0,18,19
 489 716 489 716 496 714 c 0,20,21
 513 709 513 709 522 692 c 0,22,23
 528 682 528 682 528 671 c 0,24,25
 528 664 528 664 526 658 c 2,26,-1
 347 80 l 2,27,28
 332 31 332 31 313 10 c 0,29,30
 294 -13 294 -13 263 -13 c 1,31,32
 263 -13 263 -13 262 -12 c 0,33,34
 230 -12 230 -12 211.5 10 c 128,-1,35
 193 32 193 32 177 80 c 1,36,37
 144 147 144 147 -2 658 c 0,0,1
EndSplineSet
EndChar

StartChar: W
Encoding: 87 87 59
Width: 917
GlyphClass: 1
Flags: W
LayerCount: 2
Fore
SplineSet
857 669 m 0,0,1
 857 238 857 238 857 238 c 2,2,3
 857 123 857 123 795 55.5 c 128,-1,4
 733 -12 733 -12 634 -12 c 0,5,6
 528 -12 528 -12 459 75 c 1,7,8
 393 -12 393 -12 284 -12 c 0,9,10
 183 -12 183 -12 121.5 55 c 128,-1,11
 60 122 60 122 60 238 c 2,12,-1
 60 669 l 2,13,14
 60 688 60 688 74 702 c 128,-1,15
 88 716 88 716 107.5 716 c 128,-1,16
 127 716 127 716 141 702 c 128,-1,17
 155 688 155 688 155 669 c 2,18,-1
 155 238 l 2,19,20
 155 160 155 160 188.5 118.5 c 128,-1,21
 222 77 222 77 283.5 77 c 128,-1,22
 345 77 345 77 378.5 118 c 128,-1,23
 412 159 412 159 412 238 c 2,24,-1
 412 669 l 2,25,26
 412 688 412 688 425.5 702 c 128,-1,27
 439 716 439 716 458.5 716 c 128,-1,28
 478 716 478 716 492 702 c 128,-1,29
 506 688 506 688 506 669 c 2,30,-1
 506 238 l 2,31,32
 506 159 506 159 539 118 c 128,-1,33
 572 77 572 77 633.5 77 c 128,-1,34
 695 77 695 77 728.5 118 c 128,-1,35
 762 159 762 159 762 238 c 2,36,-1
 762 669 l 2,37,38
 762 688 762 688 776 702 c 128,-1,39
 790 716 790 716 809 716 c 0,40,41
 830 715 830 715 844 702 c 0,42,43
 856 689 856 689 857 669 c 0,0,1
EndSplineSet
EndChar

StartChar: X
Encoding: 88 88 60
Width: 625
GlyphClass: 1
Flags: W
LayerCount: 2
Fore
SplineSet
9 631 m 0,0,1
 -8 631 -8 631 -20.5 643 c 128,-1,2
 -33 655 -33 655 -33 674 c 0,3,4
 -33 691 -33 691 -20.5 703.5 c 128,-1,5
 -8 716 -8 716 9 716 c 0,6,7
 222 712 222 712 312 534 c 1,8,9
 405 712 405 712 616 716 c 0,10,11
 633 716 633 716 645.5 703.5 c 128,-1,12
 658 691 658 691 658 674 c 0,13,14
 658 656 658 656 646.5 643.5 c 128,-1,15
 635 631 635 631 616 631 c 0,16,17
 498 627 498 627 428.5 552.5 c 128,-1,18
 359 478 359 478 359 358.5 c 128,-1,19
 359 239 359 239 429 164.5 c 128,-1,20
 499 90 499 90 616 86 c 0,21,22
 633 86 633 86 646 73 c 128,-1,23
 659 60 659 60 659 43 c 128,-1,24
 659 26 659 26 646.5 13 c 128,-1,25
 634 0 634 0 616 0 c 0,26,27
 405 4 405 4 312 182 c 1,28,29
 222 4 222 4 9 0 c 0,30,31
 -8 0 -8 0 -21 13 c 128,-1,32
 -34 26 -34 26 -34 43 c 128,-1,33
 -34 60 -34 60 -21 73 c 128,-1,34
 -8 86 -8 86 9 86 c 0,35,36
 123 86 123 86 197 164 c 0,37,38
 267 238 267 238 267 357 c 0,39,40
 267 358 267 358 266 358 c 1,41,42
 266 478 266 478 196.5 552.5 c 128,-1,43
 127 627 127 627 9 631 c 0,0,1
EndSplineSet
EndChar

StartChar: Y
Encoding: 89 89 61
Width: 555
GlyphClass: 1
Flags: W
LayerCount: 2
Fore
SplineSet
52 669 m 2,0,1
 52 685 52 685 64.5 700.5 c 128,-1,2
 77 716 77 716 99.5 716 c 128,-1,3
 122 716 122 716 134.5 701 c 128,-1,4
 147 686 147 686 147 669 c 2,5,-1
 147 521 l 2,6,7
 147 475 147 475 159.5 442 c 128,-1,8
 172 409 172 409 187 393 c 128,-1,9
 202 377 202 377 223.5 368 c 128,-1,10
 245 359 245 359 255 358 c 128,-1,11
 265 357 265 357 278 357 c 0,12,13
 289 357 289 357 299 358 c 128,-1,14
 309 359 309 359 331 368 c 128,-1,15
 353 377 353 377 368 392.5 c 128,-1,16
 383 408 383 408 395.5 441 c 128,-1,17
 408 474 408 474 408 520 c 2,18,-1
 408 669 l 2,19,20
 408 687 408 687 422 702 c 0,21,22
 434 715 434 715 455 716 c 0,23,24
 456 716 456 716 456 716 c 2,25,26
 476 716 476 716 490 702 c 0,27,28
 503 689 503 689 503 669 c 0,29,30
 503 668 503 668 503 629.5 c 128,-1,31
 503 591 503 591 503 567 c 128,-1,32
 503 543 503 543 503 520 c 0,33,34
 503 470 503 470 490 428 c 128,-1,35
 477 386 477 386 460.5 363 c 128,-1,36
 444 340 444 340 420 321 c 128,-1,37
 396 302 396 302 385 297 c 2,38,-1
 359 285 l 2,39,40
 357 285 357 285 356 284 c 0,41,42
 325 272 325 272 325 242 c 0,43,44
 325 241 325 241 325 240 c 2,45,-1
 325 47 l 2,46,47
 325 28 325 28 311 14 c 128,-1,48
 297 0 297 0 277.5 0 c 128,-1,49
 258 0 258 0 244 14 c 0,50,51
 231 26 231 26 230 47 c 0,52,53
 230 50 230 50 230 100.5 c 128,-1,54
 230 151 230 151 230 188.5 c 128,-1,55
 230 226 230 226 230 239 c 0,56,57
 230 270 230 270 201 284 c 0,58,59
 200 284 200 284 197 285 c 0,60,61
 183 291 183 291 171 296 c 128,-1,62
 159 301 159 301 135 320 c 128,-1,63
 111 339 111 339 95 362 c 128,-1,64
 79 385 79 385 65.5 427.5 c 128,-1,65
 52 470 52 470 52 521 c 2,66,-1
 52 669 l 2,0,1
EndSplineSet
EndChar

StartChar: Z
Encoding: 90 90 62
Width: 509
GlyphClass: 1
Flags: W
LayerCount: 2
Fore
SplineSet
100 628 m 0,0,1
 82 628 82 628 70 641 c 0,2,3
 57 653 57 653 56 672 c 2,4,5
 56 672 56 672 56 673 c 0,6,7
 56 690 56 690 69 703 c 256,8,9
 82 716 82 716 100 716 c 2,10,-1
 379 716 l 2,11,12
 433 716 433 716 458 698 c 128,-1,13
 483 680 483 680 483 636 c 0,14,15
 483 601 483 601 429 526 c 2,16,-1
 115 90 l 1,17,-1
 447 90 l 2,18,19
 465 90 465 90 479 76.5 c 128,-1,20
 493 63 493 63 493 45 c 128,-1,21
 493 27 493 27 479.5 13.5 c 128,-1,22
 466 0 466 0 447 0 c 2,23,-1
 121 0 l 2,24,25
 67 0 67 0 41.5 18 c 128,-1,26
 16 36 16 36 16 80 c 0,27,28
 16 95 16 95 25 114.5 c 128,-1,29
 34 134 34 134 42 146.5 c 128,-1,30
 50 159 50 159 72 189 c 2,31,-1
 387 628 l 1,32,33
 330 628 330 628 100 628 c 0,0,1
EndSplineSet
EndChar

StartChar: bracketleft
Encoding: 91 91 63
Width: 333
GlyphClass: 1
Flags: W
LayerCount: 2
Fore
SplineSet
101 -177 m 1,0,-1
 101 716 l 1,1,-1
 280 716 l 2,2,3
 291 716 291 716 298 708 c 128,-1,4
 305 700 305 700 305 690 c 0,5,6
 305 678 305 678 298 671 c 128,-1,7
 291 664 291 664 280 664 c 2,8,-1
 188 664 l 1,9,-1
 188 -125 l 1,10,-1
 280 -125 l 2,11,12
 291 -125 291 -125 298 -132 c 128,-1,13
 305 -139 305 -139 305 -151 c 128,-1,14
 305 -163 305 -163 298 -170 c 128,-1,15
 291 -177 291 -177 280 -177 c 2,16,-1
 101 -177 l 1,0,-1
EndSplineSet
Substitution2: "'rtla' Right to Left Alternates lookup 0 subtable" bracketright
EndChar

StartChar: backslash
Encoding: 92 92 64
Width: 277
GlyphClass: 1
Flags: W
LayerCount: 2
Fore
SplineSet
275 -57 m 2,0,1
 278 -68 278 -68 272.5 -79.5 c 128,-1,2
 267 -91 267 -91 255 -94 c 0,3,4
 244 -97 244 -97 233.5 -91 c 128,-1,5
 223 -85 223 -85 220 -74 c 2,6,-1
 -7 691 l 2,7,8
 -10 702 -10 702 -4.5 712.5 c 128,-1,9
 1 723 1 723 11 726 c 0,10,11
 23 729 23 729 34 724 c 128,-1,12
 45 719 45 719 48 708 c 2,13,-1
 275 -57 l 2,0,1
EndSplineSet
EndChar

StartChar: bracketright
Encoding: 93 93 65
Width: 333
GlyphClass: 1
Flags: W
LayerCount: 2
Fore
SplineSet
54 -177 m 2,0,1
 43 -177 43 -177 36 -170 c 128,-1,2
 29 -163 29 -163 29 -151 c 0,3,4
 29 -140 29 -140 36 -132.5 c 128,-1,5
 43 -125 43 -125 54 -125 c 2,6,7
 54 -125 54 -125 146 -125 c 1,8,-1
 146 664 l 1,9,-1
 54 664 l 2,10,11
 43 664 43 664 36 671 c 128,-1,12
 29 678 29 678 29 690 c 0,13,14
 29 700 29 700 36 708 c 128,-1,15
 43 716 43 716 54 716 c 2,16,-1
 233 716 l 1,17,-1
 233 -177 l 1,18,-1
 54 -177 l 2,0,1
EndSplineSet
Substitution2: "'rtla' Right to Left Alternates lookup 0 subtable" bracketleft
EndChar

StartChar: asciicircum
Encoding: 94 94 66
Width: 1024
GlyphClass: 1
Flags: W
LayerCount: 2
Fore
SplineSet
558 729 m 1,0,-1
 813 451 l 1,1,-1
 723 451 l 1,2,-1
 512 660 l 1,3,-1
 300 451 l 1,4,-1
 210 451 l 1,5,-1
 465 729 l 1,6,-1
 558 729 l 1,0,-1
EndSplineSet
EndChar

StartChar: underscore
Encoding: 95 95 67
Width: 512
GlyphClass: 1
Flags: W
LayerCount: 2
Fore
SplineSet
36 -242 m 2,0,1
 22 -242 22 -242 11 -231 c 128,-1,2
 0 -220 0 -220 0 -205.5 c 128,-1,3
 0 -191 0 -191 11 -180.5 c 128,-1,4
 22 -170 22 -170 36 -170 c 2,5,-1
 476 -170 l 2,6,7
 490 -170 490 -170 501 -180.5 c 128,-1,8
 512 -191 512 -191 512 -205.5 c 128,-1,9
 512 -220 512 -220 501 -231 c 128,-1,10
 490 -242 490 -242 476 -242 c 2,11,-1
 36 -242 l 2,0,1
EndSplineSet
EndChar

StartChar: grave
Encoding: 96 96 68
Width: 512
GlyphClass: 1
Flags: W
LayerCount: 2
Fore
SplineSet
325 548 m 1,0,-1
 271 548 l 1,1,-1
 131 722 l 1,2,-1
 220 722 l 1,3,-1
 325 548 l 1,0,-1
EndSplineSet
EndChar

StartChar: a
Encoding: 97 97 69
Width: 575
GlyphClass: 1
Flags: W
LayerCount: 2
Back
SplineSet
281 0 m 2,49,50
 177 0 177 0 102.5 74 c 128,-1,51
 28 148 28 148 28 252.5 c 128,-1,52
 28 357 28 357 102 431.5 c 128,-1,53
 176 506 176 506 280.5 506 c 0,54,55
 376 506 376 506 445.96875 444.19921875 c 1,0,0
 446 463 446 463 446 463 c 2,9,-1
 446 479 446 479 459 493 c 0,7,8
 471 506 471 506 491 506 c 0,5,6
 508 506 508 506 522 493 c 0,3,4
 534 481 534 481 534 463 c 2,1,2
 534 463 534 463 534 253 c 2,0,-1
 534 43 l 2,57,58
 534 25 534 25 522 13 c 0,59,60
 508 0 508 0 491 0 c 0,61,62
 471 0 471 0 459 13 c 0,63,64
 446 27 446 27 446 43 c 2,65,-1
 446 253 l 2,12,13
 446 284 446 284 437 310 c 0,14,15
 425 343 425 343 398 370 c 128,-1,16
 371 397 371 397 338 409 c 0,17,18
 312 418 312 418 279 419 c 0,19,20
 249 419 249 419 223 409 c 0,21,22
 190 397 190 397 163 370 c 128,-1,23
 136 343 136 343 124 310 c 0,24,25
 115 283 115 283 115 252.5 c 128,-1,26
 115 222 115 222 124 195 c 0,27,28
 138 159 138 159 163 135 c 0,29,30
 196 105 196 105 223 96 c 0,30,31
 253 87 253 87 279 87 c 2,32,33
 279 87 279 87 360 87 c 6,34,35
 378 87 378 87 390 75 c 4,3,4
 403 61 403 61 403 45 c 4,5,6
 403 25 403 25 390 13 c 4,7,8
 376 0 376 0 360 0 c 6,9,-1
 281 0 l 2,49,50
EndSplineSet
Fore
SplineSet
281 0 m 4,0,1
 177 0 177 0 102.5 74 c 128,-1,2
 28 148 28 148 28 252.5 c 128,-1,3
 28 357 28 357 102 431.5 c 128,-1,4
 176 506 176 506 280.5 506 c 128,-1,5
 385 506 385 506 459.5 431.5 c 128,-1,6
 534 357 534 357 534 253 c 2,7,-1
 534 43 l 2,8,9
 534 25 534 25 522 13 c 0,10,11
 508 0 508 0 491 0 c 0,12,13
 471 0 471 0 459 13 c 0,14,15
 446 27 446 27 446 43 c 2,16,-1
 446 253 l 2,17,18
 446 284 446 284 437 310 c 0,19,20
 425 343 425 343 398 370 c 128,-1,21
 371 397 371 397 338 409 c 0,22,23
 312 418 312 418 279 419 c 0,24,25
 249 419 249 419 223 409 c 0,26,27
 190 397 190 397 163 370 c 128,-1,28
 136 343 136 343 124 310 c 0,29,30
 115 283 115 283 115 252.5 c 128,-1,31
 115 222 115 222 124 195 c 0,32,33
 136 162 136 162 163 135 c 128,-1,34
 190 108 190 108 223 96 c 0,35,36
 250 87 250 87 280 87 c 0,37,38
 280 87 280 87 360 87 c 2,39,40
 378 87 378 87 390 75 c 0,41,42
 403 61 403 61 403 45 c 0,43,44
 403 25 403 25 390 13 c 0,45,46
 376 0 376 0 360 0 c 6,47,-1
 281 0 l 4,0,1
EndSplineSet
EndChar

StartChar: b
Encoding: 98 98 70
Width: 575
GlyphClass: 1
Flags: W
LayerCount: 2
Fore
SplineSet
473 254 m 128,-1,1
 473 285 473 285 464 311 c 0,2,3
 452 344 452 344 424 371 c 128,-1,4
 396 398 396 398 365 410 c 0,5,6
 339 420 339 420 309 420 c 0,7,8
 308 420 308 420 306 420 c 0,9,10
 275 419 275 419 250 410 c 0,11,12
 217 399 217 399 190 371 c 128,-1,13
 163 343 163 343 151 310 c 0,14,15
 142 283 142 283 142 252 c 0,16,17
 141 251 141 251 141 250 c 0,18,19
 141 221 141 221 152 196 c 0,20,21
 163 164 163 164 190.5 136.5 c 128,-1,22
 218 109 218 109 251 97 c 0,23,24
 276 87 276 87 305 87 c 0,25,26
 307 87 307 87 308 88 c 0,27,28
 339 88 339 88 366 97 c 0,29,30
 398 109 398 109 425.5 136.5 c 128,-1,31
 453 164 453 164 464 197 c 0,32,0
 473 223 473 223 473 254 c 128,-1,1
53 254 m 0,33,34
 52 603 52 603 52 672 c 0,35,36
 52 690 52 690 65 703 c 128,-1,37
 78 716 78 716 96 716 c 256,38,39
 114 716 114 716 127 703 c 128,-1,40
 140 690 140 690 140 672 c 2,41,-1
 141 443 l 1,42,43
 209 505 209 505 307 507 c 0,44,45
 412 507 412 507 485 433 c 0,46,47
 560 358 560 358 560 254 c 0,48,49
 561 253 561 253 561 253 c 1,50,51
 561 150 561 150 486 75 c 0,52,53
 412 1 412 1 308 0 c 0,54,55
 307 0 307 0 307 0 c 2,56,57
 204 0 204 0 129 75 c 256,58,59
 54 150 54 150 53 254 c 0,33,34
EndSplineSet
EndChar

StartChar: c
Encoding: 99 99 71
Width: 393
GlyphClass: 1
Flags: W
LayerCount: 2
Fore
SplineSet
322 83 m 0,0,1
 340 82 340 82 351 70 c 0,2,3
 362 59 362 59 362 43 c 0,4,5
 362 42 362 42 362 41 c 0,6,7
 362 25 362 25 350 12 c 0,8,9
 339 0 339 0 322 0 c 0,10,11
 183 0 183 0 108 68 c 0,12,13
 31 138 31 138 31 246 c 0,14,15
 31 372 31 372 139 446 c 0,16,17
 205 490 205 490 321 490 c 0,18,19
 337 490 337 490 348 480 c 0,20,21
 362 467 362 467 362 447 c 0,22,23
 362 431 362 431 350 419 c 128,-1,24
 338 407 338 407 321 407 c 0,25,26
 231 407 231 407 176.5 361.5 c 128,-1,27
 122 316 122 316 122 245 c 0,28,29
 122 175 122 175 178 129 c 0,30,31
 235 83 235 83 322 83 c 0,0,1
EndSplineSet
EndChar

StartChar: d
Encoding: 100 100 72
Width: 575
GlyphClass: 1
Flags: W
LayerCount: 2
Fore
SplineSet
437 253 m 128,-1,1
 437 284 437 284 428 310 c 0,2,3
 416 343 416 343 388.5 370 c 128,-1,4
 361 397 361 397 329 410 c 0,5,6
 302 419 302 419 271.5 419 c 128,-1,7
 241 419 241 419 214 410 c 0,8,9
 181 398 181 398 154 370.5 c 128,-1,10
 127 343 127 343 115 310 c 0,11,12
 106 283 106 283 106 252 c 0,13,14
 105 251 105 251 105 250 c 0,15,16
 105 221 105 221 115 196 c 0,17,18
 127 163 127 163 154 136 c 128,-1,19
 181 109 181 109 214 96 c 0,20,21
 241 87 241 87 271.5 87 c 128,-1,22
 302 87 302 87 329 96 c 0,23,24
 362 108 362 108 389 135.5 c 128,-1,25
 416 163 416 163 428 196 c 0,26,0
 437 222 437 222 437 253 c 128,-1,1
525 254 m 0,27,28
 523 148 523 148 449.5 74 c 128,-1,29
 376 0 376 0 271.5 0 c 128,-1,30
 167 0 167 0 93 73 c 0,31,32
 19 148 19 148 18 253 c 0,33,34
 18 254 18 254 18 256 c 0,35,36
 18 357 18 357 93 432 c 0,37,38
 167 506 167 506 271 506 c 0,39,40
 365 506 365 506 437 444 c 1,41,-1
 437 672 l 2,42,43
 437 690 437 690 450 703 c 128,-1,44
 463 716 463 716 482 716 c 0,45,46
 499 716 499 716 512 702 c 0,47,48
 524 691 524 691 525 672 c 0,49,50
 526 500 526 500 526 395 c 128,-1,51
 526 290 526 290 525 254 c 0,27,28
EndSplineSet
EndChar

StartChar: e
Encoding: 101 101 73
Width: 555
GlyphClass: 1
Flags: W
LayerCount: 2
Fore
SplineSet
513 168 m 0,0,1
 503 105 503 105 434 47 c 0,2,3
 367 -10 367 -10 279 -10 c 0,4,5
 212 -10 212 -10 155 25 c 0,6,7
 95 60 95 60 63 118 c 128,-1,8
 31 176 31 176 31 246 c 0,9,10
 31 247 31 247 31 249 c 0,11,12
 31 351 31 351 103 426 c 0,13,14
 177 501 177 501 280 501 c 0,15,16
 353 501 353 501 412 461.5 c 128,-1,17
 471 422 471 422 489 380 c 0,18,19
 498 367 498 367 493 351.5 c 128,-1,20
 488 336 488 336 475 329 c 2,21,-1
 220 187 l 2,22,23
 207 180 207 180 191.5 184.5 c 128,-1,24
 176 189 176 189 169 202 c 0,25,26
 161 216 161 216 165 231.5 c 128,-1,27
 169 247 169 247 182 254 c 2,28,-1
 388 369 l 1,29,30
 344 418 344 418 278.5 418 c 128,-1,31
 213 418 213 418 167.5 369 c 128,-1,32
 122 320 122 320 122 247 c 0,33,34
 122 245 122 245 122 243 c 0,35,36
 122 198 122 198 143 160 c 0,37,38
 164 121 164 121 200 98.5 c 128,-1,39
 236 76 236 76 279 76 c 0,40,41
 336 76 336 76 379 113 c 0,42,43
 421 150 421 150 427 193 c 0,44,45
 433 209 433 209 449 219 c 0,46,47
 459 225 459 225 470 225 c 0,48,49
 476 225 476 225 482 223 c 0,50,51
 500 218 500 218 509 202 c 0,52,53
 515 190 515 190 515 180 c 0,54,55
 515 174 515 174 513 168 c 0,0,1
EndSplineSet
EndChar

StartChar: f
Encoding: 102 102 74
Width: 319
GlyphClass: 1
Flags: W
LayerCount: 2
Fore
SplineSet
60 518 m 2,0,1
 60 562 60 562 68 594 c 128,-1,2
 76 626 76 626 98 655.5 c 128,-1,3
 120 685 120 685 165 700.5 c 128,-1,4
 210 716 210 716 279 716 c 0,5,6
 299 716 299 716 310 701 c 128,-1,7
 321 686 321 686 321 673 c 0,8,9
 321 661 321 661 308.5 646.5 c 128,-1,10
 296 632 296 632 279 632 c 0,11,12
 259 632 259 632 241 629.5 c 128,-1,13
 223 627 223 627 210.5 621.5 c 128,-1,14
 198 616 198 616 188 611.5 c 128,-1,15
 178 607 178 607 172 599 c 128,-1,16
 166 591 166 591 162 585.5 c 128,-1,17
 158 580 158 580 155.5 571 c 128,-1,18
 153 562 153 562 152 558 c 128,-1,19
 151 554 151 554 149.5 546.5 c 128,-1,20
 148 539 148 539 148 538 c 0,21,22
 147 535 147 535 147 532 c 0,23,24
 147 520 147 520 157 506 c 0,25,26
 169 490 169 490 190 490 c 2,27,-1
 280 490 l 2,28,29
 297 490 297 490 309 478 c 128,-1,30
 321 466 321 466 321 450 c 0,31,32
 321 431 321 431 308 419.5 c 128,-1,33
 295 408 295 408 280 408 c 2,34,-1
 189 408 l 2,35,36
 170 408 170 408 158.5 394.5 c 128,-1,37
 147 381 147 381 147 367 c 0,38,39
 147 345 147 345 147 280.5 c 128,-1,40
 147 216 147 216 147 130.5 c 128,-1,41
 147 45 147 45 147 43 c 0,42,43
 147 28 147 28 136 14 c 128,-1,44
 125 0 125 0 104 0 c 0,45,46
 84 0 84 0 72 14 c 128,-1,47
 60 28 60 28 60 43 c 2,48,-1
 60 518 l 2,0,1
EndSplineSet
EndChar

StartChar: g
Encoding: 103 103 75
Width: 575
GlyphClass: 1
Flags: W
LayerCount: 2
Fore
SplineSet
103 252.5 m 128,-1,1
 103 222 103 222 113 195 c 0,2,3
 125 163 125 163 152 135.5 c 128,-1,4
 179 108 179 108 212 96 c 0,5,6
 239 87 239 87 269.5 87 c 128,-1,7
 300 87 300 87 327 96 c 0,8,9
 359 108 359 108 386.5 135 c 128,-1,10
 414 162 414 162 426 195 c 0,11,12
 435 222 435 222 435 252.5 c 128,-1,13
 435 283 435 283 426 310 c 0,14,15
 414 343 414 343 387 370 c 0,16,17
 361 396 361 396 327 409 c 0,18,19
 301 419 301 419 272 419 c 0,20,21
 271 419 271 419 270 418 c 0,22,23
 239 418 239 418 212 409 c 0,24,25
 181 398 181 398 152 370 c 0,26,27
 125 343 125 343 113 310 c 0,28,0
 103 283 103 283 103 252.5 c 128,-1,1
392 -100 m 0,29,30
 435 -58 435 -58 435 34 c 0,31,32
 435 48 435 48 435 62 c 1,33,34
 364 -1 364 -1 269 0 c 0,35,36
 164 1 164 1 90 75 c 128,-1,37
 16 149 16 149 16 253 c 0,38,39
 16 256 16 256 16 258 c 128,-1,40
 16 260 16 260 16 263 c 0,41,42
 16 358 16 358 91 432 c 128,-1,43
 166 506 166 506 269 506 c 0,44,45
 369 506 369 506 447 432 c 0,46,47
 522 361 522 361 523 253 c 2,48,49
 523 253 523 253 524 198 c 2,50,51
 524 198 524 198 523 29 c 0,52,53
 523 27 523 27 523 25 c 128,-1,54
 523 23 523 23 523 21 c 0,55,56
 523 -98 523 -98 456 -160 c 0,57,58
 382 -229 382 -229 272 -228 c 0,59,60
 183 -227 183 -227 118 -201 c 0,61,62
 96 -192 96 -192 89 -176 c 0,63,64
 84 -165 84 -165 87 -148 c 0,65,66
 89 -134 89 -134 104 -124 c 0,67,68
 116 -116 116 -116 129 -116 c 0,69,70
 134 -116 134 -116 137 -117 c 0,71,72
 218 -144 218 -144 274 -144 c 0,73,74
 347 -144 347 -144 392 -100 c 0,29,30
EndSplineSet
EndChar

StartChar: h
Encoding: 104 104 76
Width: 531
GlyphClass: 1
Flags: W
LayerCount: 2
Fore
SplineSet
477 269 m 0,0,1
 477 240 477 240 477 44 c 0,2,3
 476 24 476 24 465 12 c 0,4,5
 452 0 452 0 433.5 0 c 128,-1,6
 415 0 415 0 402 13 c 128,-1,7
 389 26 389 26 389 44 c 2,8,-1
 389 284 l 2,9,10
 389 346 389 346 358.5 380.5 c 128,-1,11
 328 415 328 415 272 415 c 0,12,13
 218 415 218 415 183 374.5 c 128,-1,14
 148 334 148 334 148 265 c 2,15,-1
 148 44 l 2,16,17
 148 26 148 26 135.5 13 c 128,-1,18
 123 0 123 0 104.5 0 c 128,-1,19
 86 0 86 0 73 13 c 128,-1,20
 60 26 60 26 60 44 c 2,21,-1
 60 672 l 2,22,23
 60 690 60 690 73 703 c 128,-1,24
 86 716 86 716 104.5 716 c 128,-1,25
 123 716 123 716 135.5 703 c 128,-1,26
 148 690 148 690 148 672 c 2,27,-1
 148 443 l 1,28,29
 209 501 209 501 285 501 c 0,30,31
 375 501 375 501 426 441 c 128,-1,32
 477 381 477 381 477 269 c 0,0,1
EndSplineSet
EndChar

StartChar: i
Encoding: 105 105 77
Width: 208
GlyphClass: 1
Flags: W
LayerCount: 2
Fore
SplineSet
148 44 m 0,0,1
 147 25 147 25 135 12 c 0,2,3
 123 0 123 0 104.5 0 c 128,-1,4
 86 0 86 0 73 13 c 128,-1,5
 60 26 60 26 60 44 c 2,6,-1
 60 446 l 2,7,8
 60 464 60 464 73 477 c 128,-1,9
 86 490 86 490 104.5 490 c 128,-1,10
 123 490 123 490 135 477 c 0,11,12
 147 466 147 466 148 446 c 0,13,14
 148 278 148 278 148 44 c 0,0,1
51 629.5 m 128,-1,16
 51 652 51 652 66.5 667.5 c 128,-1,17
 82 683 82 683 104.5 683 c 128,-1,18
 127 683 127 683 142.5 667.5 c 128,-1,19
 158 652 158 652 158 629.5 c 128,-1,20
 158 607 158 607 142.5 591 c 128,-1,21
 127 575 127 575 104.5 575 c 128,-1,22
 82 575 82 575 66.5 591 c 128,-1,15
 51 607 51 607 51 629.5 c 128,-1,16
EndSplineSet
EndChar

StartChar: j
Encoding: 106 106 78
Width: 208
GlyphClass: 1
Flags: W
LayerCount: 2
Fore
SplineSet
-70 -218 m 2,0,1
 -87 -218 -87 -218 -99.5 -206 c 128,-1,2
 -112 -194 -112 -194 -112 -176.5 c 128,-1,3
 -112 -159 -112 -159 -99.5 -146.5 c 128,-1,4
 -87 -134 -87 -134 -70 -134 c 2,5,-1
 -60 -134 l 2,6,7
 -8 -134 -8 -134 20 -116 c 0,8,9
 60 -89 60 -89 60 -20 c 2,10,-1
 60 446 l 2,11,12
 60 464 60 464 73 477 c 128,-1,13
 86 490 86 490 104.5 490 c 128,-1,14
 123 490 123 490 135.5 477.5 c 128,-1,15
 148 465 148 465 148 446 c 2,16,-1
 148 -35 l 2,17,18
 148 -218 148 -218 -58 -218 c 2,19,-1
 -70 -218 l 2,0,1
51 629.5 m 128,-1,21
 51 652 51 652 66.5 667.5 c 128,-1,22
 82 683 82 683 104.5 683 c 128,-1,23
 127 683 127 683 142.5 667.5 c 128,-1,24
 158 652 158 652 158 629.5 c 128,-1,25
 158 607 158 607 142.5 591 c 128,-1,26
 127 575 127 575 104.5 575 c 128,-1,27
 82 575 82 575 66.5 591 c 128,-1,20
 51 607 51 607 51 629.5 c 128,-1,21
EndSplineSet
EndChar

StartChar: k
Encoding: 107 107 79
Width: 483
GlyphClass: 1
Flags: W
LayerCount: 2
Fore
SplineSet
60 672 m 2,0,1
 60 689 60 689 73 702.5 c 128,-1,2
 86 716 86 716 104.5 716 c 128,-1,3
 123 716 123 716 135.5 702.5 c 128,-1,4
 148 689 148 689 148 672 c 2,5,-1
 148 356 l 2,6,7
 148 340 148 340 160 326 c 128,-1,8
 172 312 172 312 194 312 c 0,9,10
 245 312 245 312 278 356 c 0,11,12
 287 368 287 368 301 390.5 c 128,-1,13
 315 413 315 413 330.5 438.5 c 128,-1,14
 346 464 346 464 350 470 c 0,15,16
 360 486 360 486 377.5 490 c 128,-1,17
 395 494 395 494 409 485 c 0,18,19
 423 477 423 477 428 460 c 0,20,21
 430 453 430 453 430 447 c 0,22,23
 430 436 430 436 424 424 c 0,24,25
 383 356 383 356 364 332 c 0,26,27
 344 304 344 304 321 293 c 1,28,29
 344 288 344 288 358.5 281.5 c 128,-1,30
 373 275 373 275 394.5 259.5 c 128,-1,31
 416 244 416 244 427 212 c 128,-1,32
 438 180 438 180 438 135 c 0,33,34
 438 111 438 111 438 93 c 128,-1,35
 438 75 438 75 438 66 c 128,-1,36
 438 57 438 57 438 44 c 0,37,38
 438 43 438 43 438 41 c 0,39,40
 438 23 438 23 425 12 c 0,41,42
 411 0 411 0 394.5 0 c 128,-1,43
 378 0 378 0 364 12 c 128,-1,44
 350 24 350 24 350 44 c 2,45,-1
 350 135 l 2,46,47
 350 143 350 143 349.5 149 c 128,-1,48
 349 155 349 155 344.5 171 c 128,-1,49
 340 187 340 187 331.5 197.5 c 128,-1,50
 323 208 323 208 303.5 217 c 128,-1,51
 284 226 284 226 256 226 c 0,52,53
 242 226 242 226 220 226 c 128,-1,54
 198 226 198 226 193 226 c 0,55,56
 180 226 180 226 164 213 c 128,-1,57
 148 200 148 200 148 182 c 2,58,-1
 148 44 l 2,59,60
 148 24 148 24 134.5 12 c 128,-1,61
 121 0 121 0 104 0 c 0,62,63
 86 0 86 0 73 13 c 128,-1,64
 60 26 60 26 60 44 c 2,65,-1
 60 672 l 2,0,1
EndSplineSet
EndChar

StartChar: l
Encoding: 108 108 80
Width: 208
GlyphClass: 1
Flags: W
LayerCount: 2
Fore
SplineSet
148 672 m 0,0,1
 148 357 148 357 148 44 c 0,2,3
 148 25 148 25 135 12 c 0,4,5
 123 0 123 0 104.5 0 c 128,-1,6
 86 0 86 0 73 13 c 128,-1,7
 60 26 60 26 60 44 c 2,8,-1
 60 672 l 2,9,10
 60 690 60 690 73 703 c 256,11,12
 86 716 86 716 103 716 c 0,13,14
 104 716 104 716 104 716 c 2,15,16
 123 715 123 715 135 702 c 0,17,18
 148 690 148 690 148 672 c 0,0,1
EndSplineSet
EndChar

StartChar: m
Encoding: 109 109 81
Width: 795
GlyphClass: 1
Flags: W
LayerCount: 2
Fore
SplineSet
53 43 m 0,0,1
 53 284 53 284 53 284 c 2,2,3
 53 385 53 385 106.5 442.5 c 128,-1,4
 160 500 160 500 247 500 c 0,5,6
 340 500 340 500 397 424 c 1,7,8
 456 500 456 500 548 500 c 0,9,10
 635 500 635 500 688 442.5 c 128,-1,11
 741 385 741 385 741 284 c 2,12,-1
 741 43 l 2,13,14
 741 25 741 25 728.5 12.5 c 128,-1,15
 716 0 716 0 697 0 c 0,16,17
 680 0 680 0 667 13 c 128,-1,18
 654 26 654 26 654 43 c 2,19,-1
 654 300 l 2,20,21
 654 352 654 352 624.5 383.5 c 128,-1,22
 595 415 595 415 548 415 c 128,-1,23
 501 415 501 415 471 383.5 c 128,-1,24
 441 352 441 352 441 300 c 2,25,-1
 441 43 l 2,26,27
 441 25 441 25 428 12.5 c 128,-1,28
 415 0 415 0 397 0 c 0,29,30
 380 0 380 0 367 13 c 128,-1,31
 354 26 354 26 354 43 c 2,32,-1
 354 300 l 2,33,34
 354 351 354 351 324 383 c 128,-1,35
 294 415 294 415 247 415 c 128,-1,36
 200 415 200 415 170 383.5 c 128,-1,37
 140 352 140 352 140 300 c 2,38,-1
 140 43 l 2,39,40
 140 25 140 25 127 12.5 c 128,-1,41
 114 0 114 0 96 0 c 0,42,43
 79 0 79 0 66 12 c 0,44,45
 54 25 54 25 53 43 c 0,0,1
EndSplineSet
EndChar

StartChar: n
Encoding: 110 110 82
Width: 524
GlyphClass: 1
Flags: W
LayerCount: 2
Fore
SplineSet
53 43 m 0,0,1
 53 267 53 267 53 267 c 2,2,3
 53 377 53 377 111 438.5 c 128,-1,4
 169 500 169 500 262 500 c 128,-1,5
 355 500 355 500 412.5 438.5 c 128,-1,6
 470 377 470 377 470 267 c 2,7,-1
 470 43 l 2,8,9
 470 25 470 25 457 12.5 c 128,-1,10
 444 0 444 0 426 0 c 0,11,12
 409 0 409 0 396 13 c 128,-1,13
 383 26 383 26 383 43 c 0,14,15
 383 284 383 284 383 284 c 2,16,17
 383 342 383 342 349 378.5 c 128,-1,18
 315 415 315 415 262 415 c 128,-1,19
 209 415 209 415 174.5 378.5 c 128,-1,20
 140 342 140 342 140 284 c 2,21,-1
 140 43 l 2,22,23
 140 25 140 25 127 12.5 c 128,-1,24
 114 0 114 0 96 0 c 0,25,26
 79 0 79 0 66 12 c 0,27,28
 54 25 54 25 53 43 c 0,0,1
EndSplineSet
EndChar

StartChar: o
Encoding: 111 111 83
Width: 557
GlyphClass: 1
Flags: W
LayerCount: 2
Fore
SplineSet
28 244.5 m 128,-1,1
 28 349 28 349 102 423.5 c 128,-1,2
 176 498 176 498 280.5 498 c 128,-1,3
 385 498 385 498 459.5 423.5 c 128,-1,4
 534 349 534 349 534 244.5 c 128,-1,5
 534 140 534 140 459.5 66 c 128,-1,6
 385 -8 385 -8 280.5 -8 c 128,-1,7
 176 -8 176 -8 102 66 c 128,-1,0
 28 140 28 140 28 244.5 c 128,-1,1
115 244.5 m 128,-1,9
 115 214 115 214 124 187 c 0,10,11
 136 154 136 154 163 127 c 128,-1,12
 190 100 190 100 223 88 c 0,13,14
 250 79 250 79 280.5 79 c 128,-1,15
 311 79 311 79 338 88 c 0,16,17
 371 100 371 100 398 127.5 c 128,-1,18
 425 155 425 155 437 187 c 0,19,20
 446 214 446 214 446 244.5 c 128,-1,21
 446 275 446 275 437 302 c 0,22,23
 425 335 425 335 398 362 c 128,-1,24
 371 389 371 389 338 401 c 0,25,26
 311 410 311 410 280 410 c 0,27,28
 279 411 279 411 278 411 c 0,29,30
 249 411 249 411 223 401 c 0,31,32
 190 389 190 389 163 362 c 128,-1,33
 136 335 136 335 124 302 c 0,34,8
 115 275 115 275 115 244.5 c 128,-1,9
EndSplineSet
EndChar

StartChar: p
Encoding: 112 112 84
Width: 575
GlyphClass: 1
Flags: W
LayerCount: 2
Fore
SplineSet
124 252.5 m 128,-1,1
 124 222 124 222 133 195 c 0,2,3
 145 162 145 162 172.5 135 c 128,-1,4
 200 108 200 108 232 96 c 0,5,6
 259 87 259 87 290 87 c 128,-1,7
 321 87 321 87 347 96 c 0,8,9
 380 108 380 108 407 135.5 c 128,-1,10
 434 163 434 163 446 195 c 0,11,12
 455 222 455 222 456 252 c 0,13,14
 456 254 456 254 456 255 c 0,15,16
 456 284 456 284 446 310 c 0,17,18
 434 343 434 343 407 370 c 128,-1,19
 380 397 380 397 347 409 c 0,20,21
 320 418 320 418 290 418 c 0,22,23
 288 419 288 419 287 419 c 0,24,25
 258 419 258 419 232 409 c 0,26,27
 199 397 199 397 172 370 c 128,-1,28
 145 343 145 343 133 310 c 0,29,0
 124 283 124 283 124 252.5 c 128,-1,1
36 252 m 0,30,31
 38 358 38 358 111.5 432 c 128,-1,32
 185 506 185 506 289.5 506 c 128,-1,33
 394 506 394 506 468 433 c 0,34,35
 542 358 542 358 543 253 c 0,36,37
 543 252 543 252 543 250 c 0,38,39
 543 149 543 149 468 74 c 0,40,41
 394 0 394 0 290 0 c 0,42,43
 196 0 196 0 124 61 c 1,44,-1
 124 -174 l 2,45,46
 124 -192 124 -192 111 -205 c 128,-1,47
 98 -218 98 -218 79 -218 c 0,48,49
 64 -218 64 -218 49 -205 c 0,50,51
 36 -194 36 -194 36 -174 c 0,52,53
 36 -38 36 -38 36 111 c 0,54,55
 35 216 35 216 36 252 c 0,30,31
EndSplineSet
EndChar

StartChar: q
Encoding: 113 113 85
Width: 575
GlyphClass: 1
Flags: W
LayerCount: 2
Fore
SplineSet
119 252.5 m 128,-1,1
 119 222 119 222 128 195 c 0,2,3
 140 162 140 162 167.5 135 c 128,-1,4
 195 108 195 108 227 96 c 0,5,6
 254 87 254 87 284.5 87 c 128,-1,7
 315 87 315 87 342 96 c 0,8,9
 375 108 375 108 402 135.5 c 128,-1,10
 429 163 429 163 441 195 c 0,11,12
 451 224 451 224 451 255 c 0,13,14
 451 284 451 284 441 310 c 0,15,16
 429 343 429 343 402 370 c 128,-1,17
 375 397 375 397 342 409 c 0,18,19
 313 419 313 419 282 419 c 0,20,21
 253 419 253 419 227 409 c 0,22,23
 194 397 194 397 167 370 c 128,-1,24
 140 343 140 343 128 310 c 0,25,0
 119 283 119 283 119 252.5 c 128,-1,1
539 252 m 2,26,27
 539 252 539 252 539 -174 c 0,28,29
 539 -192 539 -192 526 -205 c 128,-1,30
 513 -218 513 -218 495 -218 c 0,31,32
 478 -218 478 -218 465 -206 c 0,33,34
 451 -194 451 -194 451 -174 c 2,35,-1
 451 62 l 1,36,37
 383 0 383 0 285 0 c 0,38,39
 180 0 180 0 106 74 c 0,40,41
 31 149 31 149 31.5 253 c 128,-1,42
 32 357 32 357 106 432 c 0,43,44
 180 506 180 506 284.5 506 c 128,-1,45
 389 506 389 506 464 431 c 128,-1,46
 539 356 539 356 539 252 c 2,26,27
EndSplineSet
EndChar

StartChar: r
Encoding: 114 114 86
Width: 331
GlyphClass: 1
Flags: W
LayerCount: 2
Fore
SplineSet
332 415 m 2,0,1
 332 415 332 415 318 415 c 0,2,3
 227 415 227 415 187 371 c 128,-1,4
 147 327 147 327 147 231 c 2,5,-1
 147 44 l 2,6,7
 147 26 147 26 134.5 13 c 128,-1,8
 122 0 122 0 103.5 0 c 128,-1,9
 85 0 85 0 72 13 c 128,-1,10
 59 26 59 26 59 44 c 2,11,-1
 59 451 l 2,12,13
 59 467 59 467 70.5 478.5 c 128,-1,14
 82 490 82 490 99 490 c 0,15,16
 118 490 118 490 129 479 c 128,-1,17
 140 468 140 468 140 451 c 2,18,-1
 140 418 l 1,19,20
 164 462 164 462 203.5 481 c 128,-1,21
 243 500 243 500 309 500 c 2,22,-1
 332 500 l 2,23,24
 349 500 349 500 361.5 487.5 c 128,-1,25
 374 475 374 475 374 458 c 0,26,27
 374 438 374 438 362 426.5 c 128,-1,28
 350 415 350 415 332 415 c 2,0,1
EndSplineSet
EndChar

StartChar: s
Encoding: 115 115 87
Width: 443
GlyphClass: 1
Flags: W
LayerCount: 2
Fore
SplineSet
342 490 m 0,0,1
 359 489 359 489 371 479 c 0,2,3
 383 467 383 467 383 449.5 c 128,-1,4
 383 432 383 432 370.5 420.5 c 128,-1,5
 358 409 358 409 342 409 c 2,6,-1
 178 409 l 2,7,8
 125 409 125 409 125 367 c 0,9,10
 125 338 125 338 179 315 c 2,11,-1
 267 280 l 2,12,13
 342 249 342 249 375 218.5 c 128,-1,14
 408 188 408 188 408 134 c 0,15,16
 408 0 408 0 202 0 c 2,17,-1
 78 0 l 2,18,19
 61 0 61 0 48.5 12.5 c 128,-1,20
 36 25 36 25 36 42 c 128,-1,21
 36 59 36 59 48 71.5 c 128,-1,22
 60 84 60 84 78 84 c 2,23,-1
 248 84 l 2,24,25
 281 84 281 84 298.5 97 c 128,-1,26
 316 110 316 110 316 131 c 0,27,28
 316 150 316 150 301.5 163.5 c 128,-1,29
 287 177 287 177 251 191 c 2,30,-1
 167 225 l 2,31,32
 97 254 97 254 67 284.5 c 128,-1,33
 37 315 37 315 37 367 c 0,34,35
 37 426 37 426 79 458 c 128,-1,36
 121 490 121 490 202 490 c 2,37,38
 202 490 202 490 342 490 c 0,0,1
EndSplineSet
EndChar

StartChar: t
Encoding: 116 116 88
Width: 322
GlyphClass: 1
Flags: W
LayerCount: 2
Fore
SplineSet
54 577 m 2,0,1
 54 593 54 593 66 607 c 128,-1,2
 78 621 78 621 98.5 621 c 128,-1,3
 119 621 119 621 130.5 607 c 128,-1,4
 142 593 142 593 142 577 c 2,5,-1
 142 535 l 2,6,7
 142 515 142 515 156 502.5 c 128,-1,8
 170 490 170 490 186 490 c 2,9,-1
 250 490 l 2,10,11
 268 490 268 490 279.5 477 c 128,-1,12
 291 464 291 464 291 451 c 0,13,14
 291 434 291 434 280 421 c 128,-1,15
 269 408 269 408 250 408 c 2,16,-1
 186 408 l 2,17,18
 166 408 166 408 154 394 c 128,-1,19
 142 380 142 380 142 364 c 0,20,21
 142 196 142 196 142 182 c 0,22,23
 143 170 143 170 143.5 163.5 c 128,-1,24
 144 157 144 157 147.5 144.5 c 128,-1,25
 151 132 151 132 155.5 125.5 c 128,-1,26
 160 119 160 119 170 109.5 c 128,-1,27
 180 100 180 100 194.5 95.5 c 128,-1,28
 209 91 209 91 231 87.5 c 128,-1,29
 253 84 253 84 281 84 c 0,30,31
 301 84 301 84 312 70.5 c 128,-1,32
 323 57 323 57 323 43 c 0,33,34
 323 28 323 28 312.5 14 c 128,-1,35
 302 0 302 0 281 0 c 0,36,37
 262 0 262 0 250 0.5 c 128,-1,38
 238 1 238 1 214.5 3 c 128,-1,39
 191 5 191 5 176 9.5 c 128,-1,40
 161 14 161 14 140.5 22.5 c 128,-1,41
 120 31 120 31 106 44.5 c 128,-1,42
 92 58 92 58 79.5 76.5 c 128,-1,43
 67 95 67 95 60.5 122.5 c 128,-1,44
 54 150 54 150 54 182 c 2,45,-1
 54 577 l 2,0,1
EndSplineSet
EndChar

StartChar: u
Encoding: 117 117 89
Width: 524
GlyphClass: 1
Flags: W
LayerCount: 2
Fore
SplineSet
470 447 m 2,0,1
 470 447 470 447 470 232 c 0,2,3
 470 124 470 124 412 62 c 256,4,5
 354 0 354 0 261 0 c 128,-1,6
 168 0 168 0 110.5 61 c 128,-1,7
 53 122 53 122 53 232 c 2,8,-1
 53 447 l 2,9,10
 53 465 53 465 66 477.5 c 128,-1,11
 79 490 79 490 96 490 c 0,12,13
 115 490 115 490 127.5 477 c 128,-1,14
 140 464 140 464 140 447 c 2,15,-1
 140 216 l 2,16,17
 140 157 140 157 174.5 121 c 128,-1,18
 209 85 209 85 262 85 c 0,19,20
 317 85 317 85 349 122 c 0,21,22
 383 162 383 162 383 216 c 2,23,-1
 383 447 l 2,24,25
 383 465 383 465 396 477.5 c 128,-1,26
 409 490 409 490 426 490 c 0,27,28
 445 490 445 490 457 477 c 0,29,30
 469 465 469 465 470 447 c 2,0,1
EndSplineSet
EndChar

StartChar: v
Encoding: 118 118 90
Width: 459
GlyphClass: 1
Flags: W
LayerCount: 2
Fore
SplineSet
100 463 m 1,0,1
 100 463 100 463 230 114 c 1,2,-1
 360 462 l 2,3,4
 361 464 361 464 382 486 c 0,5,6
 387 491 387 491 399 490 c 0,7,8
 406 490 406 490 414 488 c 0,9,10
 431 481 431 481 438 465 c 0,11,12
 442 456 442 456 442 448 c 0,13,14
 442 441 442 441 439 433 c 2,15,-1
 297 59 l 2,16,17
 275 0 275 0 229 0 c 0,18,19
 186 0 186 0 163 59 c 2,20,-1
 20 433 l 1,21,22
 20 433 20 433 17 448 c 0,23,24
 17 457 17 457 22 466 c 0,25,26
 29 482 29 482 46 488 c 0,27,28
 53 491 53 491 60 491 c 0,29,30
 69 491 69 491 78 486 c 2,31,32
 78 486 78 486 100 463 c 1,0,1
EndSplineSet
EndChar

StartChar: w
Encoding: 119 119 91
Width: 795
GlyphClass: 1
Flags: W
LayerCount: 2
Fore
SplineSet
741 216 m 2,0,1
 741 114 741 114 688 57 c 128,-1,2
 635 0 635 0 548 0 c 0,3,4
 453 0 453 0 397 76 c 1,5,6
 339 0 339 0 247 0 c 0,7,8
 153 0 153 0 106 58 c 0,9,10
 53 126 53 126 53 216 c 2,11,-1
 53 447 l 2,12,13
 53 465 53 465 66 477.5 c 128,-1,14
 79 490 79 490 96 490 c 0,15,16
 115 490 115 490 127.5 477 c 128,-1,17
 140 464 140 464 140 447 c 2,18,-1
 140 200 l 2,19,20
 140 148 140 148 170 116.5 c 128,-1,21
 200 85 200 85 247 85 c 128,-1,22
 294 85 294 85 324 116.5 c 128,-1,23
 354 148 354 148 354 200 c 2,24,-1
 354 447 l 2,25,26
 354 465 354 465 367 477.5 c 128,-1,27
 380 490 380 490 397 490 c 0,28,29
 416 490 416 490 428.5 477 c 128,-1,30
 441 464 441 464 441 447 c 2,31,-1
 441 200 l 2,32,33
 441 148 441 148 471 116.5 c 128,-1,34
 501 85 501 85 548 85 c 128,-1,35
 595 85 595 85 624.5 116.5 c 128,-1,36
 654 148 654 148 654 200 c 2,37,-1
 654 447 l 2,38,39
 654 465 654 465 667 477.5 c 128,-1,40
 680 490 680 490 697 490 c 0,41,42
 717 490 717 490 729 477 c 0,43,44
 740 465 740 465 741 447 c 2,45,-1
 741 216 l 2,0,1
EndSplineSet
EndChar

StartChar: x
Encoding: 120 120 92
Width: 450
GlyphClass: 1
Flags: W
LayerCount: 2
Fore
SplineSet
29 490 m 2,0,1
 157 490 157 490 225 378 c 1,2,3
 294 490 294 490 419 490 c 0,4,5
 420 490 420 490 421 490 c 2,6,-1
 438 490 l 2,7,8
 455 490 455 490 467.5 478 c 128,-1,9
 480 466 480 466 480 448.5 c 128,-1,10
 480 431 480 431 468 419 c 128,-1,11
 456 407 456 407 438 407 c 0,12,13
 359 406 359 406 312.5 361 c 128,-1,14
 266 316 266 316 266 245 c 128,-1,15
 266 174 266 174 312.5 129 c 128,-1,16
 359 84 359 84 438 83 c 0,17,18
 454 83 454 83 466.5 71 c 128,-1,19
 479 59 479 59 479 42 c 0,20,21
 479 24 479 24 467.5 12 c 128,-1,22
 456 0 456 0 438 0 c 0,23,24
 426 0 426 0 427 0 c 1,25,26
 296 0 296 0 225 112 c 1,27,28
 155 0 155 0 23 0 c 2,29,-1
 11 0 l 2,30,31
 -6 0 -6 0 -18 12 c 128,-1,32
 -30 24 -30 24 -30 42 c 0,33,34
 -30 59 -30 59 -18 71 c 128,-1,35
 -6 83 -6 83 11 83 c 0,36,37
 90 84 90 84 137 129 c 128,-1,38
 184 174 184 174 184 245 c 0,39,40
 184 317 184 317 137 361.5 c 128,-1,41
 90 406 90 406 11 407 c 0,42,43
 -6 407 -6 407 -18.5 419 c 128,-1,44
 -31 431 -31 431 -31 448.5 c 128,-1,45
 -31 466 -31 466 -18.5 478 c 128,-1,46
 -6 490 -6 490 10 490 c 2,47,-1
 29 490 l 2,0,1
EndSplineSet
EndChar

StartChar: y
Encoding: 121 121 93
Width: 524
GlyphClass: 1
Flags: W
LayerCount: 2
Fore
SplineSet
383 447 m 0,0,1
 383 463 383 463 395 476.5 c 128,-1,2
 407 490 407 490 426 490 c 0,3,4
 446 490 446 490 462 474 c 0,5,6
 470 466 470 466 470 447 c 0,7,8
 470 332 470 332 470 216 c 0,9,10
 470 144 470 144 436 91 c 0,11,12
 407 44 407 44 334 13 c 0,13,14
 320 7 320 7 312.5 -4.5 c 128,-1,15
 305 -16 305 -16 305 -27 c 0,16,17
 305 -39 305 -39 305 -165 c 0,18,19
 305 -180 305 -180 294 -194.5 c 128,-1,20
 283 -209 283 -209 261 -209 c 0,21,22
 238 -209 238 -209 227.5 -194.5 c 128,-1,23
 217 -180 217 -180 217 -165 c 2,24,-1
 217 -28 l 2,25,26
 217 -15 217 -15 209.5 -3.5 c 128,-1,27
 202 8 202 8 189 12 c 0,28,29
 53 61 53 61 53 232 c 2,30,-1
 53 447 l 2,31,32
 53 463 53 463 65.5 476.5 c 128,-1,33
 78 490 78 490 96.5 490 c 128,-1,34
 115 490 115 490 127.5 477.5 c 128,-1,35
 140 465 140 465 140 447 c 2,36,-1
 140 232 l 2,37,38
 140 161 140 161 174 123 c 256,39,40
 208 85 208 85 261 85 c 0,41,42
 279 85 279 85 298 91 c 128,-1,43
 317 97 317 97 336.5 111 c 128,-1,44
 356 125 356 125 369 152 c 128,-1,45
 382 179 382 179 383 216 c 0,46,47
 383 222 383 222 383 275 c 128,-1,48
 383 328 383 328 383 387 c 128,-1,49
 383 446 383 446 383 447 c 0,0,1
EndSplineSet
EndChar

StartChar: z
Encoding: 122 122 94
Width: 427
GlyphClass: 1
Flags: W
LayerCount: 2
Fore
SplineSet
310 490 m 2,0,1
 401 490 401 490 401 430 c 0,2,3
 401 399 401 399 373 367 c 2,4,-1
 125 84 l 1,5,-1
 361 84 l 2,6,7
 378 84 378 84 390.5 71.5 c 128,-1,8
 403 59 403 59 403 42 c 128,-1,9
 403 25 403 25 391 12.5 c 128,-1,10
 379 0 379 0 361 0 c 2,11,-1
 110 0 l 2,12,13
 23 0 23 0 23 66 c 0,14,15
 23 94 23 94 58 134 c 2,16,-1
 298 408 l 1,17,-1
 83 408 l 2,18,19
 66 408 66 408 54 419.5 c 128,-1,20
 42 431 42 431 42 450 c 0,21,22
 42 467 42 467 54 478.5 c 128,-1,23
 66 490 66 490 83 490 c 2,24,-1
 310 490 l 2,0,1
EndSplineSet
EndChar

StartChar: braceleft
Encoding: 123 123 95
Width: 512
GlyphClass: 1
Flags: W
LayerCount: 2
Fore
SplineSet
412 -207 m 2,0,1
 315 -207 315 -207 275 -182 c 0,2,3
 243 -163 243 -163 234 -128.5 c 128,-1,4
 225 -94 225 -94 225 -29 c 2,5,-1
 225 94 l 2,6,7
 225 168 225 168 198.5 198.5 c 128,-1,8
 172 229 172 229 105 229 c 0,9,10
 102 229 102 229 95 229 c 2,11,-1
 84 228 l 2,12,13
 69 228 69 228 58 239 c 128,-1,14
 47 250 47 250 47 266 c 0,15,16
 47 281 47 281 58 292 c 128,-1,17
 69 303 69 303 84 303 c 2,18,-1
 96 303 l 2,19,20
 104 302 104 302 106 302 c 0,21,22
 138 302 138 302 160 308 c 0,23,24
 195 319 195 319 210 349.5 c 128,-1,25
 225 380 225 380 225 436 c 2,26,-1
 225 559 l 2,27,28
 225 625 225 625 234.5 659 c 128,-1,29
 244 693 244 693 275 713 c 0,30,31
 315 738 315 738 408 738 c 0,32,33
 411 738 411 738 415 738 c 2,34,-1
 433 738 l 2,35,36
 448 738 448 738 459 727.5 c 128,-1,37
 470 717 470 717 470 701 c 128,-1,38
 470 685 470 685 459.5 674.5 c 128,-1,39
 449 664 449 664 433 664 c 2,40,-1
 413 664 l 2,41,42
 351 664 351 664 331 640 c 128,-1,43
 311 616 311 616 311 549 c 2,44,-1
 311 428 l 2,45,46
 311 353 311 353 290.5 317 c 128,-1,47
 270 281 270 281 211 265 c 1,48,49
 271 250 271 250 291 214 c 128,-1,50
 311 178 311 178 311 102 c 2,51,-1
 311 -18 l 2,52,53
 311 -86 311 -86 330.5 -109.5 c 128,-1,54
 350 -133 350 -133 414 -133 c 2,55,-1
 433 -133 l 2,56,57
 448 -133 448 -133 459 -144 c 128,-1,58
 470 -155 470 -155 470 -170 c 128,-1,59
 470 -185 470 -185 459.5 -196 c 128,-1,60
 449 -207 449 -207 433 -207 c 2,61,-1
 412 -207 l 2,0,1
EndSplineSet
Substitution2: "'rtla' Right to Left Alternates lookup 0 subtable" braceright
EndChar

StartChar: bar
Encoding: 124 124 96
Width: 512
GlyphClass: 1
Flags: W
LayerCount: 2
Fore
SplineSet
294 -205 m 2,0,1
 294 -220 294 -220 283 -231 c 128,-1,2
 272 -242 272 -242 256 -242 c 0,3,4
 241 -242 241 -242 230 -231 c 128,-1,5
 219 -220 219 -220 219 -205 c 2,6,-1
 219 782 l 2,7,8
 219 797 219 797 230 808 c 128,-1,9
 241 819 241 819 256 819 c 0,10,11
 272 819 272 819 283 808.5 c 128,-1,12
 294 798 294 798 294 782 c 2,13,-1
 294 -205 l 2,0,1
EndSplineSet
EndChar

StartChar: braceright
Encoding: 125 125 97
Width: 512
GlyphClass: 1
Flags: W
LayerCount: 2
Fore
SplineSet
80 -207 m 2,0,1
 65 -207 65 -207 54 -196 c 128,-1,2
 43 -185 43 -185 43 -170 c 128,-1,3
 43 -155 43 -155 54 -144 c 128,-1,4
 65 -133 65 -133 80 -133 c 2,5,-1
 99 -133 l 2,6,7
 161 -133 161 -133 181.5 -109 c 128,-1,8
 202 -85 202 -85 202 -17 c 2,9,-1
 202 102 l 2,10,11
 202 177 202 177 222.5 213.5 c 128,-1,12
 243 250 243 250 302 265 c 1,13,14
 243 280 243 280 222.5 316.5 c 128,-1,15
 202 353 202 353 202 428 c 2,16,-1
 202 549 l 2,17,18
 202 617 202 617 182 640.5 c 128,-1,19
 162 664 162 664 99 664 c 2,20,-1
 80 664 l 2,21,22
 65 664 65 664 54 674.5 c 128,-1,23
 43 685 43 685 43 701 c 0,24,25
 43 716 43 716 54 727 c 128,-1,26
 65 738 65 738 80 738 c 2,27,-1
 98 738 l 2,28,29
 196 738 196 738 238 713 c 0,30,31
 270 694 270 694 279 659.5 c 128,-1,32
 288 625 288 625 288 559 c 2,33,-1
 288 436 l 2,34,35
 288 362 288 362 314.5 332 c 128,-1,36
 341 302 341 302 407 302 c 0,37,38
 410 302 410 302 417 303 c 2,39,-1
 429 303 l 2,40,41
 444 303 444 303 455 292.5 c 128,-1,42
 466 282 466 282 466 266 c 128,-1,43
 466 250 466 250 455 239 c 128,-1,44
 444 228 444 228 429 228 c 2,45,-1
 418 229 l 2,46,47
 411 230 411 230 408 229 c 0,48,49
 341 229 341 229 314.5 198.5 c 128,-1,50
 288 168 288 168 288 94 c 2,51,-1
 288 -29 l 2,52,53
 288 -95 288 -95 278.5 -129 c 128,-1,54
 269 -163 269 -163 238 -182 c 0,55,56
 199 -207 199 -207 101 -207 c 2,57,-1
 80 -207 l 2,0,1
EndSplineSet
Substitution2: "'rtla' Right to Left Alternates lookup 0 subtable" braceleft
EndChar

StartChar: asciitilde
Encoding: 126 126 98
Width: 852
GlyphClass: 1
Flags: W
LayerCount: 2
Fore
SplineSet
765 307 m 1,0,1
 665 237 665 237 573 237 c 0,2,3
 571 237 571 237 570 237 c 0,4,5
 558 237 558 237 544 238.5 c 128,-1,6
 530 240 530 240 521 241.5 c 128,-1,7
 512 243 512 243 495 248 c 128,-1,8
 478 253 478 253 473.5 254.5 c 128,-1,9
 469 256 469 256 448.5 263 c 128,-1,10
 428 270 428 270 426 271 c 0,11,12
 330 304 330 304 282 304 c 0,13,14
 201 304 201 304 89 225 c 1,15,-1
 89 303 l 1,16,17
 194 375 194 375 283 375 c 0,18,19
 342 375 342 375 428 344 c 0,20,21
 434 342 434 342 456 334 c 128,-1,22
 478 326 478 326 487.5 323.5 c 128,-1,23
 497 321 497 321 513.5 315.5 c 128,-1,24
 530 310 530 310 544 308.5 c 128,-1,25
 558 307 558 307 571 307 c 0,26,27
 655 307 655 307 765 385 c 1,28,-1
 765 307 l 1,0,1
EndSplineSet
EndChar

StartChar: exclamdown
Encoding: 161 161 99
Width: 278
GlyphClass: 1
Flags: W
LayerCount: 2
Fore
SplineSet
94 500 m 2,0,1
 94 519 94 519 107.5 532.5 c 128,-1,2
 121 546 121 546 139.5 546 c 128,-1,3
 158 546 158 546 171 532.5 c 128,-1,4
 184 519 184 519 184 500 c 2,5,-1
 184 38 l 2,6,7
 184 19 184 19 171 6 c 128,-1,8
 158 -7 158 -7 139.5 -7 c 128,-1,9
 121 -7 121 -7 107.5 6 c 128,-1,10
 94 19 94 19 94 38 c 2,11,-1
 94 500 l 2,0,1
199 656.5 m 128,-1,13
 199 632 199 632 182 615 c 128,-1,14
 165 598 165 598 139.5 598 c 128,-1,15
 114 598 114 598 97 615 c 128,-1,16
 80 632 80 632 80 656.5 c 128,-1,17
 80 681 80 681 97.5 698.5 c 128,-1,18
 115 716 115 716 139.5 716 c 128,-1,19
 164 716 164 716 181.5 698.5 c 128,-1,12
 199 681 199 681 199 656.5 c 128,-1,13
EndSplineSet
EndChar

StartChar: cent
Encoding: 162 162 100
Width: 557
GlyphClass: 1
Flags: W
LayerCount: 2
Fore
SplineSet
350 569 m 1,0,-1
 376 569 l 2,1,2
 393 569 393 569 404.5 558 c 128,-1,3
 416 547 416 547 416 529.5 c 128,-1,4
 416 512 416 512 404.5 500.5 c 128,-1,5
 393 489 393 489 376 489 c 2,6,-1
 350 489 l 2,7,8
 269 489 269 489 229.5 463 c 128,-1,9
 190 437 190 437 190 379 c 0,10,11
 190 316 190 316 228 289 c 128,-1,12
 266 262 266 262 350 262 c 2,13,-1
 375 262 l 2,14,15
 391 262 391 262 403.5 250 c 128,-1,16
 416 238 416 238 416 221 c 0,17,18
 416 203 416 203 404 191 c 128,-1,19
 392 179 392 179 375 179 c 2,20,-1
 350 179 l 1,21,-1
 350 62 l 2,22,23
 350 47 350 47 339.5 36.5 c 128,-1,24
 329 26 329 26 313.5 26 c 128,-1,25
 298 26 298 26 287 36.5 c 128,-1,26
 276 47 276 47 276 62 c 2,27,-1
 276 179 l 1,28,29
 193 184 193 184 142.5 238.5 c 128,-1,30
 92 293 92 293 92 371 c 0,31,32
 92 456 92 456 141.5 510 c 128,-1,33
 191 564 191 564 276 569 c 1,34,-1
 276 666 l 2,35,36
 276 681 276 681 287 691.5 c 128,-1,37
 298 702 298 702 313.5 702 c 128,-1,38
 329 702 329 702 339.5 691.5 c 128,-1,39
 350 681 350 681 350 666 c 2,40,-1
 350 569 l 1,0,-1
EndSplineSet
EndChar

StartChar: sterling
Encoding: 163 163 101
Width: 557
GlyphClass: 1
Flags: W
LayerCount: 2
Fore
SplineSet
525 231 m 2,0,1
 525 120 525 120 473.5 60 c 128,-1,2
 422 0 422 0 331 0 c 2,3,-1
 33 0 l 2,4,5
 14 0 14 0 0.5 13.5 c 128,-1,6
 -13 27 -13 27 -13 46.5 c 128,-1,7
 -13 66 -13 66 0 79 c 128,-1,8
 13 92 13 92 33 92 c 0,9,10
 79 92 79 92 105 129 c 128,-1,11
 131 166 131 166 131 236 c 2,12,-1
 131 346 l 1,13,-1
 116 346 l 2,14,15
 98 346 98 346 84.5 359.5 c 128,-1,16
 71 373 71 373 71 391.5 c 128,-1,17
 71 410 71 410 84 423 c 128,-1,18
 97 436 97 436 116 436 c 2,19,-1
 131 436 l 1,20,-1
 131 486 l 2,21,22
 131 601 131 601 189.5 665 c 128,-1,23
 248 729 248 729 350 729 c 0,24,25
 407 729 407 729 458 710 c 0,26,27
 472 705 472 705 480 689 c 0,28,29
 487 674 487 674 482 658 c 128,-1,30
 477 642 477 642 462 635 c 128,-1,31
 447 628 447 628 432 633 c 0,32,33
 386 651 386 651 351 651 c 0,34,35
 292 651 292 651 258 609.5 c 128,-1,36
 224 568 224 568 224 494 c 2,37,-1
 224 436 l 1,38,-1
 296 436 l 2,39,40
 314 436 314 436 327.5 423 c 128,-1,41
 341 410 341 410 341 391.5 c 128,-1,42
 341 373 341 373 327.5 359.5 c 128,-1,43
 314 346 314 346 296 346 c 2,44,-1
 224 346 l 1,45,-1
 224 242 l 2,46,47
 224 133 224 133 181 92 c 1,48,-1
 295 92 l 2,49,50
 367 92 367 92 399 131.5 c 128,-1,51
 431 171 431 171 431 259 c 2,52,-1
 431 276 l 2,53,54
 431 295 431 295 445 309.5 c 128,-1,55
 459 324 459 324 478.5 324 c 128,-1,56
 498 324 498 324 511.5 310 c 128,-1,57
 525 296 525 296 525 276 c 2,58,-1
 525 231 l 2,0,1
EndSplineSet
EndChar

StartChar: currency
Encoding: 164 164 102
Width: 620
GlyphClass: 1
Flags: W
LayerCount: 2
Fore
SplineSet
81 631 m 2,0,1
 73 639 73 639 73 651.5 c 128,-1,2
 73 664 73 664 81 672 c 128,-1,3
 89 680 89 680 101.5 680 c 128,-1,4
 114 680 114 680 122 672 c 2,5,-1
 183 609 l 1,6,7
 240 652 240 652 310 652 c 0,8,9
 382 652 382 652 438 609 c 1,10,-1
 501 672 l 2,11,12
 509 680 509 680 521.5 679.5 c 128,-1,13
 534 679 534 679 542 671 c 128,-1,14
 550 663 550 663 549.5 651 c 128,-1,15
 549 639 549 639 540 631 c 2,16,-1
 479 568 l 1,17,18
 520 514 520 514 520 442.5 c 128,-1,19
 520 371 520 371 479 316 c 1,20,-1
 540 255 l 2,21,22
 549 247 549 247 549 234.5 c 128,-1,23
 549 222 549 222 540.5 214 c 128,-1,24
 532 206 532 206 520 206 c 128,-1,25
 508 206 508 206 500 214 c 2,26,-1
 438 275 l 1,27,28
 380 232 380 232 311 232 c 0,29,30
 240 232 240 232 183 275 c 1,31,-1
 122 214 l 2,32,33
 114 206 114 206 101.5 206 c 128,-1,34
 89 206 89 206 81 214 c 128,-1,35
 73 222 73 222 73 234.5 c 128,-1,36
 73 247 73 247 81 255 c 2,37,-1
 143 316 l 1,38,39
 101 369 101 369 101 442 c 0,40,41
 101 512 101 512 143 568 c 1,42,-1
 81 631 l 2,0,1
463 443 m 0,43,44
 463 505 463 505 418.5 550 c 128,-1,45
 374 595 374 595 311.5 595 c 128,-1,46
 249 595 249 595 204.5 550.5 c 128,-1,47
 160 506 160 506 160 443 c 128,-1,48
 160 380 160 380 204.5 335.5 c 128,-1,49
 249 291 249 291 311.5 291 c 128,-1,50
 374 291 374 291 418.5 335.5 c 128,-1,51
 463 380 463 380 463 443 c 0,43,44
EndSplineSet
EndChar

StartChar: yen
Encoding: 165 165 103
Width: 569
GlyphClass: 1
Flags: W
LayerCount: 2
Fore
SplineSet
524 357 m 2,0,1
 533 357 533 357 540 350.5 c 128,-1,2
 547 344 547 344 547 334 c 128,-1,3
 547 324 547 324 540.5 317 c 128,-1,4
 534 310 534 310 524 310 c 2,5,-1
 348 310 l 1,6,-1
 331 274 l 1,7,-1
 331 46 l 2,8,9
 331 27 331 27 317.5 13.5 c 128,-1,10
 304 0 304 0 284.5 0 c 128,-1,11
 265 0 265 0 252 13.5 c 128,-1,12
 239 27 239 27 239 46 c 2,13,-1
 239 274 l 1,14,-1
 221 310 l 1,15,-1
 44 310 l 2,16,17
 35 310 35 310 28.5 317 c 128,-1,18
 22 324 22 324 22 334 c 128,-1,19
 22 344 22 344 28.5 350.5 c 128,-1,20
 35 357 35 357 44 357 c 2,21,-1
 198 357 l 1,22,-1
 160 434 l 1,23,-1
 45 434 l 2,24,25
 35 434 35 434 28.5 440.5 c 128,-1,26
 22 447 22 447 22 457.5 c 128,-1,27
 22 468 22 468 28.5 474.5 c 128,-1,28
 35 481 35 481 45 481 c 2,29,-1
 136 481 l 1,30,-1
 50 657 l 2,31,32
 43 672 43 672 48.5 687.5 c 128,-1,33
 54 703 54 703 70 711 c 128,-1,34
 86 719 86 719 101.5 714 c 128,-1,35
 117 709 117 709 124 693 c 2,36,-1
 285 368 l 1,37,-1
 445 694 l 2,38,39
 453 709 453 709 468 714 c 128,-1,40
 483 719 483 719 499 712 c 0,41,42
 515 704 515 704 520.5 688.5 c 128,-1,43
 526 673 526 673 518 657 c 2,44,-1
 431 481 l 1,45,-1
 523 481 l 2,46,47
 533 481 533 481 540 474.5 c 128,-1,48
 547 468 547 468 547 457.5 c 128,-1,49
 547 447 547 447 540.5 440.5 c 128,-1,50
 534 434 534 434 523 434 c 2,51,-1
 409 434 l 1,52,-1
 371 357 l 1,53,-1
 524 357 l 2,0,1
EndSplineSet
EndChar

StartChar: brokenbar
Encoding: 166 166 104
Width: 512
GlyphClass: 1
Flags: W
LayerCount: 2
Fore
SplineSet
294 -138 m 2,0,1
 294 -153 294 -153 283 -164 c 128,-1,2
 272 -175 272 -175 256 -175 c 0,3,4
 241 -175 241 -175 230 -164.5 c 128,-1,5
 219 -154 219 -154 219 -138 c 2,6,-1
 219 167 l 2,7,8
 219 182 219 182 230 193 c 128,-1,9
 241 204 241 204 256 204 c 0,10,11
 272 204 272 204 283 193 c 128,-1,12
 294 182 294 182 294 167 c 2,13,-1
 294 -138 l 2,0,1
294 374 m 2,14,15
 294 359 294 359 283 348 c 128,-1,16
 272 337 272 337 256 337 c 0,17,18
 241 337 241 337 230 347.5 c 128,-1,19
 219 358 219 358 219 374 c 2,20,-1
 219 679 l 2,21,22
 219 694 219 694 230 705 c 128,-1,23
 241 716 241 716 256 716 c 0,24,25
 272 716 272 716 283 705 c 128,-1,26
 294 694 294 694 294 679 c 2,27,-1
 294 374 l 2,14,15
EndSplineSet
EndChar

StartChar: section
Encoding: 167 167 105
Width: 512
GlyphClass: 1
Flags: W
LayerCount: 2
Fore
SplineSet
306 345 m 2,0,-1
 260 371 l 2,1,2
 212 398 212 398 196 398 c 2,3,4
 196 398 196 398 195 398 c 0,5,6
 179 398 179 398 168 387.5 c 128,-1,7
 157 377 157 377 157 359 c 0,8,9
 157 328 157 328 215 295 c 2,10,-1
 261 268 l 2,11,12
 306 241 306 241 326 241 c 2,13,14
 326 241 326 241 327 241 c 0,15,16
 343 241 343 241 354.5 252 c 128,-1,17
 366 263 366 263 366 281 c 0,18,19
 365 311 365 311 306 345 c 2,0,-1
286 620 m 2,20,21
 220 620 220 620 190 606.5 c 128,-1,22
 160 593 160 593 160 561 c 0,23,24
 160 535 160 535 183 515 c 128,-1,25
 206 495 206 495 262 463 c 2,26,-1
 364 407 l 2,27,28
 416 378 416 378 440 350 c 128,-1,29
 464 322 464 322 464 285 c 0,30,31
 464 237 464 237 413 197 c 1,32,33
 467 152 467 152 467 86 c 0,34,35
 467 9 467 9 412.5 -32.5 c 128,-1,36
 358 -74 358 -74 255 -74 c 2,37,-1
 119 -74 l 2,38,39
 100 -74 100 -74 86 -60 c 128,-1,40
 72 -46 72 -46 72 -26 c 0,41,42
 72 -7 72 -7 85.5 7.5 c 128,-1,43
 99 22 99 22 119 22 c 2,44,-1
 239 22 l 2,45,46
 306 22 306 22 336 35 c 128,-1,47
 366 48 366 48 366 82 c 0,48,49
 366 114 366 114 323 141 c 0,50,51
 314 147 314 147 264 175 c 2,52,-1
 163 231 l 2,53,54
 111 260 111 260 86 288 c 128,-1,55
 61 316 61 316 61 354 c 0,56,57
 61 408 61 408 115 449 c 1,58,59
 63 494 63 494 62 557 c 0,60,61
 62 633 62 633 115.5 674.5 c 128,-1,62
 169 716 169 716 270 716 c 2,63,-1
 375 716 l 2,64,65
 395 716 395 716 409 702 c 128,-1,66
 423 688 423 688 423 667.5 c 128,-1,67
 423 647 423 647 409 633.5 c 128,-1,68
 395 620 395 620 375 620 c 2,69,-1
 286 620 l 2,20,21
EndSplineSet
EndChar

StartChar: dieresis
Encoding: 168 168 106
Width: 512
GlyphClass: 1
Flags: W
LayerCount: 2
Fore
SplineSet
119 627 m 0,0,1
 119 647 119 647 133.5 662 c 128,-1,2
 148 677 148 677 168 677 c 128,-1,3
 188 677 188 677 203 662 c 128,-1,4
 218 647 218 647 218 627 c 0,5,6
 218 605 218 605 203 591 c 128,-1,7
 188 577 188 577 167.5 577 c 128,-1,8
 147 577 147 577 133 591 c 128,-1,9
 119 605 119 605 119 627 c 0,0,1
294 627 m 0,10,11
 294 647 294 647 309 662 c 128,-1,12
 324 677 324 677 344 677 c 0,13,14
 363 677 363 677 378 662 c 128,-1,15
 393 647 393 647 393 627 c 0,16,17
 393 605 393 605 379 591 c 128,-1,18
 365 577 365 577 344.5 577 c 128,-1,19
 324 577 324 577 309 591 c 128,-1,20
 294 605 294 605 294 627 c 0,10,11
EndSplineSet
EndChar

StartChar: copyright
Encoding: 169 169 107
Width: 852
GlyphClass: 1
Flags: W
LayerCount: 2
Fore
SplineSet
426 732 m 0,0,1
 581 732 581 732 688.5 624.5 c 128,-1,2
 796 517 796 517 796 363.5 c 128,-1,3
 796 210 796 210 689 105 c 0,4,5
 576 -6 576 -6 427 -6 c 0,6,7
 426 -6 426 -6 426 -6 c 2,8,9
 276 -5 276 -5 167 104 c 128,-1,10
 58 213 58 213 58 363.5 c 128,-1,11
 58 514 58 514 168 626 c 0,12,13
 274 732 274 732 426 732 c 0,0,1
746 363.5 m 128,-1,15
 746 498 746 498 654 590 c 0,16,17
 560 684 560 684 427 684 c 0,18,19
 295 684 295 684 203 592 c 0,20,21
 107 496 107 496 106 364 c 0,22,23
 106 234 106 234 202 138 c 0,24,25
 296 44 296 44 427 44 c 0,26,27
 556 44 556 44 654 139 c 0,28,14
 746 229 746 229 746 363.5 c 128,-1,15
526 454 m 1,29,30
 520 492 520 492 493.5 513 c 128,-1,31
 467 534 467 534 424 534 c 0,32,33
 373 534 373 534 342 489 c 128,-1,34
 311 444 311 444 311 364 c 0,35,36
 311 285 311 285 342.5 241.5 c 128,-1,37
 374 198 374 198 429 198 c 0,38,39
 470 198 470 198 497 221.5 c 128,-1,40
 524 245 524 245 531 286 c 1,41,-1
 604 286 l 1,42,43
 599 220 599 220 550 179.5 c 128,-1,44
 501 139 501 139 426 139 c 0,45,46
 336 139 336 139 283.5 199 c 128,-1,47
 231 259 231 259 231 367 c 0,48,49
 231 467 231 467 286 528 c 128,-1,50
 341 589 341 589 429 589 c 0,51,52
 501 589 501 589 548 551.5 c 128,-1,53
 595 514 595 514 600 454 c 1,54,-1
 526 454 l 1,29,30
EndSplineSet
EndChar

StartChar: ordfeminine
Encoding: 170 170 108
Width: 432
GlyphClass: 1
Flags: W
LayerCount: 2
Fore
SplineSet
327 554 m 2,0,1
 327 577 327 577 320 596 c 0,2,3
 311 621 311 621 291 641 c 128,-1,4
 271 661 271 661 247 669 c 0,5,6
 227 676 227 676 205 677 c 0,7,8
 203 677 203 677 202 677 c 0,9,10
 181 677 181 677 162 669 c 0,11,12
 138 661 138 661 118 641 c 128,-1,13
 98 621 98 621 89 596 c 0,14,15
 82 576 82 576 82 553.5 c 128,-1,16
 82 531 82 531 89 511 c 0,17,18
 98 487 98 487 118 467 c 128,-1,19
 138 447 138 447 162 438 c 0,20,21
 182 431 182 431 204 431 c 128,-1,22
 226 431 226 431 247 438 c 2,23,-1
 252 440 l 2,24,25
 260 443 260 443 267 443 c 0,26,27
 272 443 272 443 276 441 c 0,28,29
 289 435 289 435 295 423 c 0,30,31
 298 417 298 417 298 410 c 0,32,33
 298 405 298 405 296 399 c 0,34,35
 291 387 291 387 279 382 c 0,36,37
 245 367 245 367 205 367 c 0,38,39
 128 367 128 367 73 422 c 128,-1,40
 18 477 18 477 18 554 c 128,-1,41
 18 631 18 631 72.5 686 c 128,-1,42
 127 741 127 741 204.5 741 c 128,-1,43
 282 741 282 741 337 686 c 128,-1,44
 392 631 392 631 392 554 c 2,45,-1
 392 405 l 2,46,47
 392 391 392 391 383 382.5 c 128,-1,48
 374 374 374 374 360 373 c 0,49,50
 346 374 346 374 337 383 c 256,51,52
 328 392 328 392 327 405 c 2,53,-1
 327 554 l 2,0,1
EndSplineSet
EndChar

StartChar: guillemotleft
Encoding: 171 171 109
Width: 521
GlyphClass: 1
Flags: W
LayerCount: 2
Fore
SplineSet
276 92 m 1,0,-1
 196 92 l 1,1,-1
 71 253 l 1,2,-1
 196 412 l 1,3,-1
 276 412 l 1,4,-1
 153 253 l 1,5,-1
 276 92 l 1,0,-1
464 92 m 1,6,-1
 383 92 l 1,7,-1
 258 253 l 1,8,-1
 383 412 l 1,9,-1
 464 412 l 1,10,-1
 339 253 l 1,11,-1
 464 92 l 1,6,-1
EndSplineSet
EndChar

StartChar: logicalnot
Encoding: 172 172 110
Width: 852
GlyphClass: 1
Flags: W
LayerCount: 2
Fore
SplineSet
726 430 m 1,0,-1
 726 179 l 1,1,-1
 657 179 l 1,2,-1
 657 360 l 1,3,-1
 127 360 l 1,4,-1
 127 430 l 1,5,-1
 726 430 l 1,0,-1
EndSplineSet
EndChar

StartChar: sfthyphen
Encoding: 173 173 111
Width: 717
GlyphClass: 1
Flags: W
LayerCount: 2
Fore
SplineSet
595 321 m 1,0,-1
 123 321 l 1,1,-1
 123 396 l 1,2,-1
 595 396 l 1,3,-1
 595 321 l 1,0,-1
EndSplineSet
EndChar

StartChar: registered
Encoding: 174 174 112
Width: 852
GlyphClass: 1
Flags: W
LayerCount: 2
Fore
SplineSet
426 732 m 0,0,1
 582 732 582 732 689 623 c 0,2,3
 795 514 795 514 796 364 c 0,4,5
 796 209 796 209 688 104 c 0,6,7
 576 -5 576 -5 429 -5 c 0,8,9
 427 -5 427 -5 426 -5 c 0,10,11
 274 -5 274 -5 166 105 c 128,-1,12
 58 215 58 215 58 364 c 0,13,14
 58 515 58 515 170 628 c 0,15,16
 272 732 272 732 426 732 c 0,0,1
746 360 m 0,17,18
 746 497 746 497 655 589 c 0,19,20
 562 684 562 684 427 684 c 0,21,22
 293 684 293 684 204 593 c 0,23,24
 107 494 107 494 106 364 c 0,25,26
 106 236 106 236 201 139 c 0,27,28
 294 44 294 44 424 44 c 0,29,30
 556 44 556 44 653 138 c 0,31,32
 746 228 746 228 746 360 c 0,17,18
436 580 m 2,33,34
 610 580 610 580 610 465 c 0,35,36
 610 421 610 421 585 391 c 128,-1,37
 560 361 560 361 515 352 c 1,38,-1
 608 162 l 1,39,-1
 520 162 l 1,40,-1
 435 340 l 1,41,-1
 357 340 l 1,42,-1
 357 162 l 1,43,-1
 279 162 l 1,44,-1
 279 580 l 1,45,-1
 436 580 l 2,33,34
422 528 m 2,46,-1
 357 528 l 1,47,-1
 357 390 l 1,48,-1
 424 390 l 2,49,50
 479 390 479 390 504 405.5 c 128,-1,51
 529 421 529 421 529 457 c 0,52,53
 529 495 529 495 503.5 511.5 c 128,-1,54
 478 528 478 528 422 528 c 2,46,-1
EndSplineSet
EndChar

StartChar: macron
Encoding: 175 175 113
Width: 512
GlyphClass: 1
Flags: W
LayerCount: 2
Fore
SplineSet
145 576.5 m 0,0,1
 124.5 576.5 124.5 576.5 110 590.5 c 128,-1,2
 95.5 604.5 95.5 604.5 95.5 626.5 c 0,3,4
 95.5 646.5 95.5 646.5 110.5 661.5 c 128,-1,5
 125.5 676.5 125.5 676.5 145 676.5 c 0,6,7
 145 676.5 145 676.5 367 676.5 c 0,8,9
 386.5 676.5 386.5 676.5 401.5 662 c 128,-1,10
 416.5 647.5 416.5 647.5 416.5 626.5 c 0,11,12
 416.5 604.5 416.5 604.5 402 590.5 c 128,-1,13
 387.5 576.5 387.5 576.5 367 576.5 c 0,14,15
 367 576.5 367 576.5 145 576.5 c 0,0,1
EndSplineSet
EndChar

StartChar: degree
Encoding: 176 176 114
Width: 336
GlyphClass: 1
Flags: W
LayerCount: 2
Fore
SplineSet
169 728 m 128,-1,1
 228 728 228 728 270 685.5 c 128,-1,2
 312 643 312 643 312 583.5 c 128,-1,3
 312 524 312 524 270 482 c 128,-1,4
 228 440 228 440 168 440 c 128,-1,5
 108 440 108 440 66.5 481.5 c 128,-1,6
 25 523 25 523 25 583.5 c 128,-1,7
 25 644 25 644 67.5 686 c 128,-1,0
 110 728 110 728 169 728 c 128,-1,1
265 585 m 0,8,9
 265 625 265 625 237.5 653 c 128,-1,10
 210 681 210 681 169 681 c 0,11,12
 129 681 129 681 100.5 653 c 128,-1,13
 72 625 72 625 72 585 c 0,14,15
 72 544 72 544 100 515 c 128,-1,16
 128 486 128 486 169 486 c 128,-1,17
 210 486 210 486 237.5 515 c 128,-1,18
 265 544 265 544 265 585 c 0,8,9
EndSplineSet
EndChar

StartChar: plusminus
Encoding: 177 177 115
Width: 852
GlyphClass: 1
Flags: W
LayerCount: 2
Fore
SplineSet
691 85 m 2,0,1
 705 85 705 85 715.5 75 c 128,-1,2
 726 65 726 65 726 50 c 128,-1,3
 726 35 726 35 716.5 24.5 c 128,-1,4
 707 14 707 14 691 14 c 2,5,-1
 162 14 l 2,6,7
 148 14 148 14 137.5 24.5 c 128,-1,8
 127 35 127 35 127 50 c 0,9,10
 127 64 127 64 137 74.5 c 128,-1,11
 147 85 147 85 162 85 c 2,12,-1
 691 85 l 2,0,1
162 356 m 2,13,14
 148 356 148 356 137.5 366.5 c 128,-1,15
 127 377 127 377 127 391.5 c 128,-1,16
 127 406 127 406 137 416 c 128,-1,17
 147 426 147 426 162 426 c 2,18,-1
 391 426 l 1,19,-1
 391 561 l 2,20,21
 391 575 391 575 401.5 585.5 c 128,-1,22
 412 596 412 596 426 596 c 0,23,24
 442 596 442 596 452 585.5 c 128,-1,25
 462 575 462 575 462 561 c 2,26,-1
 462 426 l 1,27,-1
 691 426 l 2,28,29
 705 426 705 426 715.5 416 c 128,-1,30
 726 406 726 406 726 391.5 c 128,-1,31
 726 377 726 377 716 366.5 c 128,-1,32
 706 356 706 356 691 356 c 2,33,-1
 462 356 l 1,34,-1
 462 221 l 2,35,36
 462 207 462 207 452 196.5 c 128,-1,37
 442 186 442 186 426 186 c 0,38,39
 412 186 412 186 401.5 196.5 c 128,-1,40
 391 207 391 207 391 221 c 2,41,-1
 391 356 l 1,42,-1
 162 356 l 2,13,14
EndSplineSet
EndChar

StartChar: twosuperior
Encoding: 178 178 116
Width: 367
GlyphClass: 1
Flags: W
LayerCount: 2
Fore
SplineSet
84 287 m 2,0,1
 27 287 27 287 27 331 c 0,2,3
 27 355 27 355 60 380 c 2,4,-1
 229 503 l 2,5,6
 279 541 279 541 280 589 c 0,7,8
 280 624 280 624 254 646.5 c 128,-1,9
 228 669 228 669 189 669 c 0,10,11
 149 669 149 669 123.5 645.5 c 128,-1,12
 98 622 98 622 98 586 c 128,-1,13
 98 550 98 550 121 527 c 128,-1,14
 144 504 144 504 186 500 c 1,15,-1
 130 460 l 1,16,17
 33 495 33 495 33 585 c 0,18,19
 33 645 33 645 77.5 684.5 c 128,-1,20
 122 724 122 724 191 724 c 128,-1,21
 260 724 260 724 303.5 686 c 128,-1,22
 347 648 347 648 347 590 c 0,23,24
 347 514 347 514 256 451 c 2,25,-1
 106 344 l 1,26,-1
 316 344 l 2,27,28
 328 344 328 344 336.5 335.5 c 128,-1,29
 345 327 345 327 345 315.5 c 128,-1,30
 345 304 345 304 336.5 295.5 c 128,-1,31
 328 287 328 287 316 287 c 2,32,-1
 84 287 l 2,0,1
EndSplineSet
EndChar

StartChar: threesuperior
Encoding: 179 179 117
Width: 367
GlyphClass: 1
Flags: W
LayerCount: 2
Fore
SplineSet
70 663 m 2,0,1
 59 663 59 663 51 670.5 c 128,-1,2
 43 678 43 678 43 689 c 128,-1,3
 43 700 43 700 51 708 c 128,-1,4
 59 716 59 716 70 716 c 2,5,-1
 241 716 l 2,6,7
 309 716 309 716 309 673 c 2,8,9
 309 673 309 673 309 672 c 0,10,11
 309 646 309 646 288 628 c 2,12,-1
 191 546 l 1,13,14
 263 545 263 545 302 511.5 c 128,-1,15
 341 478 341 478 341 418 c 0,16,17
 341 360 341 360 299 323.5 c 128,-1,18
 257 287 257 287 189 287 c 2,19,-1
 60 287 l 2,20,21
 49 287 49 287 40.5 295.5 c 128,-1,22
 32 304 32 304 32 315.5 c 128,-1,23
 32 327 32 327 40.5 335.5 c 128,-1,24
 49 344 49 344 60 344 c 2,25,-1
 170 344 l 2,26,27
 274 344 274 344 274 421 c 0,28,29
 274 456 274 456 249 476.5 c 128,-1,30
 224 497 224 497 180 497 c 2,31,-1
 96 497 l 1,32,-1
 96 537 l 1,33,-1
 245 663 l 1,34,-1
 70 663 l 2,0,1
EndSplineSet
EndChar

StartChar: acute
Encoding: 180 180 118
Width: 512
GlyphClass: 1
Flags: W
LayerCount: 2
Fore
SplineSet
187 548 m 1,0,-1
 292 722 l 1,1,-1
 381 722 l 1,2,-1
 241 548 l 1,3,-1
 187 548 l 1,0,-1
EndSplineSet
EndChar

StartChar: mu
Encoding: 181 181 119
Width: 575
GlyphClass: 1
Flags: W
LayerCount: 2
Fore
SplineSet
193 536 m 1,0,-1
 128 236 l 2,1,2
 121 204 121 204 121 169 c 0,3,4
 121 119 121 119 147 92.5 c 128,-1,5
 173 66 173 66 221 66 c 0,6,7
 289 66 289 66 327 113.5 c 128,-1,8
 365 161 365 161 387 267 c 2,9,-1
 444 536 l 1,10,-1
 534 536 l 1,11,-1
 456 170 l 2,12,13
 445 116 445 116 444 103 c 0,14,15
 444 85 444 85 452.5 77.5 c 128,-1,16
 461 70 461 70 480 70 c 0,17,18
 490 70 490 70 497 71 c 1,19,-1
 481 -1 l 1,20,21
 456 -6 456 -6 427 -6 c 0,22,23
 395 -6 395 -6 378 9 c 128,-1,24
 361 24 361 24 352 58 c 1,25,26
 309 -7 309 -7 220 -7 c 0,27,28
 218 -7 218 -7 217 -7 c 0,29,30
 138 -7 138 -7 89 51 c 1,31,-1
 34 -214 l 1,32,-1
 -56 -214 l 1,33,-1
 102 536 l 1,34,-1
 193 536 l 1,0,-1
EndSplineSet
EndChar

StartChar: paragraph
Encoding: 182 182 120
Width: 512
GlyphClass: 1
Flags: W
LayerCount: 2
Fore
SplineSet
458 739 m 2,0,1
 467 739 467 739 473 733 c 128,-1,2
 479 727 479 727 479 718 c 128,-1,3
 479 709 479 709 473 702.5 c 128,-1,4
 467 696 467 696 458 696 c 2,5,-1
 419 696 l 1,6,-1
 419 28 l 2,7,8
 419 16 419 16 410.5 8 c 128,-1,9
 402 0 402 0 391 0 c 128,-1,10
 380 0 380 0 372 8 c 128,-1,11
 364 16 364 16 364 28 c 2,12,-1
 364 696 l 1,13,-1
 274 696 l 1,14,-1
 274 28 l 2,15,16
 274 16 274 16 266 8 c 128,-1,17
 258 0 258 0 247 0 c 128,-1,18
 236 0 236 0 227.5 8 c 128,-1,19
 219 16 219 16 219 28 c 2,20,-1
 219 391 l 1,21,22
 133 395 133 395 83 442.5 c 128,-1,23
 33 490 33 490 33 565 c 0,24,25
 33 643 33 643 86 691 c 128,-1,26
 139 739 139 739 229 739 c 2,27,-1
 458 739 l 2,0,1
EndSplineSet
EndChar

StartChar: periodcentered
Encoding: 183 183 121
Width: 278
GlyphClass: 1
Flags: W
LayerCount: 2
Fore
SplineSet
80 364.5 m 128,-1,1
 80 389 80 389 97 406.5 c 128,-1,2
 114 424 114 424 139.5 424 c 128,-1,3
 165 424 165 424 182 406.5 c 128,-1,4
 199 389 199 389 199 364.5 c 128,-1,5
 199 340 199 340 181.5 323 c 128,-1,6
 164 306 164 306 139.5 306 c 128,-1,7
 115 306 115 306 97.5 323 c 128,-1,0
 80 340 80 340 80 364.5 c 128,-1,1
EndSplineSet
EndChar

StartChar: cedilla
Encoding: 184 184 122
Width: 512
GlyphClass: 1
Flags: W
LayerCount: 2
Fore
SplineSet
150 -212 m 1,0,-1
 150 -168 l 1,1,2
 230 -186 230 -186 272 -186 c 0,3,4
 332 -186 332 -186 333 -144 c 0,5,6
 333 -117 333 -117 317 -106 c 128,-1,7
 301 -95 301 -95 264 -95 c 0,8,9
 247 -95 247 -95 237 -96 c 1,10,-1
 265 42 l 1,11,-1
 302 42 l 1,12,-1
 282 -53 l 1,13,-1
 289 -53 l 2,14,15
 398 -53 398 -53 398 -139 c 0,16,17
 398 -140 398 -140 398 -141 c 0,18,19
 398 -232 398 -232 274 -232 c 0,20,21
 229 -232 229 -232 150 -212 c 1,0,-1
EndSplineSet
EndChar

StartChar: onesuperior
Encoding: 185 185 123
Width: 367
GlyphClass: 1
Flags: W
LayerCount: 2
Fore
SplineSet
233 318 m 2,0,1
 233 305 233 305 224 296 c 128,-1,2
 215 287 215 287 201 287 c 0,3,4
 188 287 188 287 178.5 296 c 128,-1,5
 169 305 169 305 169 318 c 2,6,-1
 169 663 l 1,7,-1
 84 663 l 1,8,-1
 103 716 l 1,9,-1
 233 716 l 1,10,-1
 233 318 l 2,0,1
EndSplineSet
EndChar

StartChar: ordmasculine
Encoding: 186 186 124
Width: 417
GlyphClass: 1
Flags: W
LayerCount: 2
Fore
SplineSet
24 545 m 0,0,1
 24 621 24 621 79 671 c 0,2,3
 133 723 133 723 209 723 c 0,4,5
 286 723 286 723 340 671 c 0,6,7
 395 619 395 619 395 545 c 0,8,9
 395 470 395 470 340 418 c 0,10,11
 287 367 287 367 209 367 c 0,12,13
 132 367 132 367 79 418 c 0,14,15
 24 470 24 470 24 545 c 0,0,1
91 546 m 128,-1,17
 91 496 91 496 125.5 461 c 128,-1,18
 160 426 160 426 209 426 c 128,-1,19
 258 426 258 426 292.5 461 c 128,-1,20
 327 496 327 496 327 546 c 128,-1,21
 327 596 327 596 292.5 630.5 c 128,-1,22
 258 665 258 665 209 665 c 128,-1,23
 160 665 160 665 125.5 630.5 c 128,-1,16
 91 596 91 596 91 546 c 128,-1,17
EndSplineSet
EndChar

StartChar: guillemotright
Encoding: 187 187 125
Width: 521
GlyphClass: 1
Flags: W
LayerCount: 2
Fore
SplineSet
57 92 m 1,0,-1
 182 253 l 1,1,-1
 57 412 l 1,2,-1
 138 412 l 1,3,-1
 264 253 l 1,4,-1
 138 92 l 1,5,-1
 57 92 l 1,0,-1
245 92 m 1,6,-1
 370 253 l 1,7,-1
 245 412 l 1,8,-1
 326 412 l 1,9,-1
 452 253 l 1,10,-1
 326 92 l 1,11,-1
 245 92 l 1,6,-1
EndSplineSet
EndChar

StartChar: onequarter
Encoding: 188 188 126
Width: 872
GlyphClass: 1
Flags: W
LayerCount: 2
Fore
SplineSet
614 700 m 2,0,1
 621 711 621 711 632.5 714 c 128,-1,2
 644 717 644 717 654.5 711 c 128,-1,3
 665 705 665 705 667.5 692.5 c 128,-1,4
 670 680 670 680 664 670 c 2,5,-1
 258 14 l 2,6,7
 251 4 251 4 238.5 1 c 128,-1,8
 226 -2 226 -2 216 4.5 c 128,-1,9
 206 11 206 11 204 23 c 128,-1,10
 202 35 202 35 208 45 c 2,11,-1
 614 700 l 2,0,1
794 94 m 1,12,-1
 794 28 l 2,13,14
 794 17 794 17 785 8.5 c 128,-1,15
 776 0 776 0 765 0 c 128,-1,16
 754 0 754 0 745 8.5 c 128,-1,17
 736 17 736 17 736 28 c 2,18,-1
 736 94 l 1,19,-1
 581 94 l 2,20,21
 538 94 538 94 538 129 c 0,22,23
 538 144 538 144 549 165 c 2,24,-1
 694 400 l 1,25,-1
 761 400 l 1,26,-1
 604 146 l 1,27,-1
 736 146 l 1,28,-1
 736 316 l 1,29,-1
 794 409 l 1,30,-1
 794 146 l 1,31,-1
 838 146 l 2,32,33
 848 146 848 146 855.5 138.5 c 128,-1,34
 863 131 863 131 863 121 c 0,35,36
 863 109 863 109 856 101.5 c 128,-1,37
 849 94 849 94 838 94 c 2,38,-1
 794 94 l 1,12,-1
160 665 m 1,39,-1
 79 665 l 1,40,-1
 98 715 l 1,41,-1
 221 715 l 1,42,-1
 221 345 l 2,43,44
 221 332 221 332 212.5 323 c 128,-1,45
 204 314 204 314 190.5 314 c 128,-1,46
 177 314 177 314 168.5 323 c 128,-1,47
 160 332 160 332 160 345 c 2,48,-1
 160 665 l 1,39,-1
EndSplineSet
EndChar

StartChar: onehalf
Encoding: 189 189 127
Width: 872
GlyphClass: 1
Flags: W
LayerCount: 2
Fore
SplineSet
614 700 m 2,0,1
 621 711 621 711 632.5 714 c 128,-1,2
 644 717 644 717 654.5 711 c 128,-1,3
 665 705 665 705 667.5 692.5 c 128,-1,4
 670 680 670 680 664 670 c 2,5,-1
 258 14 l 2,6,7
 251 4 251 4 238.5 1 c 128,-1,8
 226 -2 226 -2 216 4.5 c 128,-1,9
 206 11 206 11 204 23 c 128,-1,10
 202 35 202 35 208 45 c 2,11,-1
 614 700 l 2,0,1
160 665 m 1,12,-1
 79 665 l 1,13,-1
 98 715 l 1,14,-1
 221 715 l 1,15,-1
 221 345 l 2,16,17
 221 332 221 332 212.5 323 c 128,-1,18
 204 314 204 314 190.5 314 c 128,-1,19
 177 314 177 314 168.5 323 c 128,-1,20
 160 332 160 332 160 345 c 2,21,-1
 160 665 l 1,12,-1
602 0 m 2,22,23
 548 0 548 0 548 41 c 0,24,25
 548 64 548 64 580 87 c 2,26,-1
 741 202 l 2,27,28
 789 237 789 237 790 283 c 0,29,30
 790 315 790 315 765 335.5 c 128,-1,31
 740 356 740 356 702.5 356 c 128,-1,32
 665 356 665 356 640 334 c 128,-1,33
 615 312 615 312 615 280 c 0,34,35
 615 245 615 245 637.5 224 c 128,-1,36
 660 203 660 203 699 199 c 1,37,-1
 646 161 l 1,38,39
 553 194 553 194 553 279 c 0,40,41
 553 334 553 334 596 371 c 128,-1,42
 639 408 639 408 706 408 c 0,43,44
 771 408 771 408 812 373 c 128,-1,45
 853 338 853 338 853 284 c 0,46,47
 853 213 853 213 767 153 c 2,48,-1
 624 53 l 1,49,-1
 824 53 l 2,50,51
 836 53 836 53 843.5 45 c 128,-1,52
 851 37 851 37 851 26.5 c 128,-1,53
 851 16 851 16 843.5 8 c 128,-1,54
 836 0 836 0 824 0 c 2,55,-1
 602 0 l 2,22,23
EndSplineSet
EndChar

StartChar: threequarters
Encoding: 190 190 128
Width: 872
GlyphClass: 1
Flags: W
LayerCount: 2
Fore
SplineSet
614 700 m 2,0,1
 621 711 621 711 632.5 714 c 128,-1,2
 644 717 644 717 654.5 711 c 128,-1,3
 665 705 665 705 667.5 692.5 c 128,-1,4
 670 680 670 680 664 670 c 2,5,-1
 258 14 l 2,6,7
 251 4 251 4 238.5 1 c 128,-1,8
 226 -2 226 -2 216 4.5 c 128,-1,9
 206 11 206 11 204 23 c 128,-1,10
 202 35 202 35 208 45 c 2,11,-1
 614 700 l 2,0,1
794 94 m 1,12,-1
 794 28 l 2,13,14
 794 17 794 17 785 8.5 c 128,-1,15
 776 0 776 0 765 0 c 128,-1,16
 754 0 754 0 745 8.5 c 128,-1,17
 736 17 736 17 736 28 c 2,18,-1
 736 94 l 1,19,-1
 581 94 l 2,20,21
 538 94 538 94 538 129 c 0,22,23
 538 144 538 144 549 165 c 2,24,-1
 694 400 l 1,25,-1
 761 400 l 1,26,-1
 604 146 l 1,27,-1
 736 146 l 1,28,-1
 736 316 l 1,29,-1
 794 409 l 1,30,-1
 794 146 l 1,31,-1
 838 146 l 2,32,33
 848 146 848 146 855.5 138.5 c 128,-1,34
 863 131 863 131 863 121 c 0,35,36
 863 109 863 109 856 101.5 c 128,-1,37
 849 94 849 94 838 94 c 2,38,-1
 794 94 l 1,12,-1
58 314 m 2,39,40
 47 314 47 314 39 322 c 128,-1,41
 31 330 31 330 31 341 c 128,-1,42
 31 352 31 352 39 360 c 128,-1,43
 47 368 47 368 58 368 c 2,44,-1
 163 368 l 2,45,46
 211 368 211 368 236.5 387 c 128,-1,47
 262 406 262 406 262 440 c 0,48,49
 262 473 262 473 238 492 c 128,-1,50
 214 511 214 511 172 511 c 2,51,-1
 92 511 l 1,52,-1
 92 547 l 1,53,-1
 233 665 l 1,54,-1
 66 665 l 2,55,56
 55 665 55 665 48 672 c 128,-1,57
 41 679 41 679 41 690 c 0,58,59
 41 700 41 700 48 707.5 c 128,-1,60
 55 715 55 715 66 715 c 2,61,-1
 229 715 l 2,62,63
 296 715 296 715 296 674 c 0,64,65
 296 649 296 649 274 633 c 2,66,-1
 182 556 l 1,67,68
 251 555 251 555 288.5 524.5 c 128,-1,69
 326 494 326 494 326 437 c 0,70,71
 326 382 326 382 286 348 c 128,-1,72
 246 314 246 314 181 314 c 2,73,-1
 58 314 l 2,39,40
EndSplineSet
EndChar

StartChar: questiondown
Encoding: 191 191 129
Width: 512
GlyphClass: 1
Flags: W
LayerCount: 2
Fore
SplineSet
244 330 m 0,0,1
 196 324 196 324 166 294 c 0,2,3
 131 259 131 259 131 208 c 0,4,5
 131 207 131 207 131 205 c 0,6,7
 131 157 131 157 166 121 c 0,8,9
 202 86 202 86 253 86 c 128,-1,10
 304 86 304 86 339 121 c 0,11,12
 375 158 375 158 375 209 c 0,13,14
 375 228 375 228 389 242.5 c 128,-1,15
 403 257 403 257 422.5 257 c 128,-1,16
 442 257 442 257 456.5 242.5 c 128,-1,17
 471 228 471 228 471 209 c 0,18,19
 471 117 471 117 407 54 c 0,20,21
 344 -9 344 -9 253 -9 c 128,-1,22
 162 -9 162 -9 98.5 54 c 128,-1,23
 35 117 35 117 35 208 c 0,24,25
 36 299 36 299 99 362 c 0,26,27
 137 402 137 402 188 417 c 0,28,29
 199 420 199 420 208 429 c 0,30,31
 222 444 222 444 222 463 c 2,32,-1
 222 503 l 2,33,34
 222 523 222 523 236 537 c 0,35,36
 251 552 251 552 270.5 552 c 128,-1,37
 290 552 290 552 304 537.5 c 128,-1,38
 318 523 318 523 318 504 c 2,39,-1
 317 423 l 2,40,41
 317 422 317 422 317 420 c 0,42,43
 317 382 317 382 290 355 c 0,44,45
 268 333 268 333 244 330 c 0,0,1
330 669.5 m 128,-1,47
 330 645 330 645 313 627.5 c 128,-1,48
 296 610 296 610 270.5 610 c 128,-1,49
 245 610 245 610 228 627.5 c 128,-1,50
 211 645 211 645 211 669.5 c 128,-1,51
 211 694 211 694 228.5 711 c 128,-1,52
 246 728 246 728 270.5 728 c 128,-1,53
 295 728 295 728 312.5 711 c 128,-1,46
 330 694 330 694 330 669.5 c 128,-1,47
EndSplineSet
EndChar

StartChar: Agrave
Encoding: 192 192 130
Width: 614
GlyphClass: 1
Flags: W
LayerCount: 2
Fore
SplineSet
376 783 m 1,0,-1
 323 783 l 1,1,-1
 182 957 l 1,2,-1
 271 957 l 1,3,-1
 376 783 l 1,0,-1
106.5 0 m 128,-1,5
 89 0 89 0 73.5 12.5 c 128,-1,6
 58 25 58 25 58 48 c 2,7,-1
 58 450 l 2,8,9
 59 525 59 525 83.5 585.5 c 128,-1,10
 108 646 108 646 165.5 687 c 128,-1,11
 223 728 223 728 307 728 c 0,12,13
 429 728 429 728 492.5 647 c 128,-1,14
 556 566 556 566 556 450 c 0,15,16
 556 441 556 441 556 334.5 c 128,-1,17
 556 228 556 228 556 143.5 c 128,-1,18
 556 59 556 59 556 48 c 0,19,20
 555 28 555 28 542.5 14 c 128,-1,21
 530 0 530 0 508.5 0 c 128,-1,22
 487 0 487 0 474 15 c 128,-1,23
 461 30 461 30 461 48 c 2,24,-1
 461 284 l 2,25,26
 461 298 461 298 449.5 313.5 c 128,-1,27
 438 329 438 329 416 329 c 2,28,-1
 227 329 l 2,29,30
 208 329 208 329 195 342.5 c 128,-1,31
 182 356 182 356 182 373.5 c 128,-1,32
 182 391 182 391 194.5 405 c 128,-1,33
 207 419 207 419 227 419 c 2,34,-1
 416 419 l 2,35,36
 433 419 433 419 448 432 c 0,37,38
 461 444 461 444 461 462 c 0,39,40
 461 463 461 463 461 464 c 0,41,42
 448 639 448 639 307 640 c 0,43,44
 266 640 266 640 235.5 624 c 128,-1,45
 205 608 205 608 190 586.5 c 128,-1,46
 175 565 175 565 166 535.5 c 128,-1,47
 157 506 157 506 155.5 487 c 128,-1,48
 154 468 154 468 154 447 c 2,49,-1
 154 48 l 2,50,51
 154 25 154 25 139 12.5 c 128,-1,4
 124 0 124 0 106.5 0 c 128,-1,5
EndSplineSet
EndChar

StartChar: Aacute
Encoding: 193 193 131
Width: 614
GlyphClass: 1
Flags: W
LayerCount: 2
Fore
SplineSet
106.5 0 m 0,0,1
 89 0 89 0 73.5 12.5 c 0,2,3
 58 25 58 25 58 48 c 2,4,-1
 58 450 l 2,5,6
 59 525 59 525 83.5 585.5 c 0,7,8
 108 646 108 646 165.5 687 c 0,9,10
 223 728 223 728 307 728 c 0,11,12
 429 728 429 728 492.5 647 c 0,13,14
 556 566 556 566 556 450 c 0,15,16
 556 441 556 441 556 334.5 c 0,17,18
 556 228 556 228 556 143.5 c 0,19,20
 556 59 556 59 556 48 c 0,21,22
 555 28 555 28 542.5 14 c 0,23,24
 530 0 530 0 508.5 0 c 0,25,26
 487 0 487 0 474 15 c 0,27,28
 461 30 461 30 461 48 c 2,29,-1
 461 284 l 2,30,31
 461 298 461 298 449.5 313.5 c 0,32,33
 438 329 438 329 416 329 c 2,34,-1
 227 329 l 2,35,36
 208 329 208 329 195 342.5 c 0,37,38
 182 356 182 356 182 373.5 c 0,39,40
 182 391 182 391 194.5 405 c 0,41,42
 207 419 207 419 227 419 c 2,43,-1
 416 419 l 2,44,45
 433 419 433 419 448 432 c 0,46,47
 461 444 461 444 461 462 c 0,48,49
 461 463 461 463 461 464 c 0,50,51
 448 639 448 639 307 640 c 0,52,53
 266 640 266 640 235.5 624 c 0,54,55
 205 608 205 608 190 586.5 c 0,56,57
 175 565 175 565 166 535.5 c 0,58,59
 157 506 157 506 155.5 487 c 0,60,61
 154 468 154 468 154 447 c 2,62,-1
 154 48 l 2,63,64
 154 25 154 25 139 12.5 c 0,65,66
 124 0 124 0 106.5 0 c 0,0,1
EndSplineSet
Refer: 118 180 S 1 0 0 1 51 235 2
EndChar

StartChar: Acircumflex
Encoding: 194 194 132
Width: 614
GlyphClass: 1
Flags: W
LayerCount: 2
Fore
SplineSet
106.5 0 m 0,0,1
 89 0 89 0 73.5 12.5 c 0,2,3
 58 25 58 25 58 48 c 2,4,-1
 58 450 l 2,5,6
 59 525 59 525 83.5 585.5 c 0,7,8
 108 646 108 646 165.5 687 c 0,9,10
 223 728 223 728 307 728 c 0,11,12
 429 728 429 728 492.5 647 c 0,13,14
 556 566 556 566 556 450 c 0,15,16
 556 441 556 441 556 334.5 c 0,17,18
 556 228 556 228 556 143.5 c 0,19,20
 556 59 556 59 556 48 c 0,21,22
 555 28 555 28 542.5 14 c 0,23,24
 530 0 530 0 508.5 0 c 0,25,26
 487 0 487 0 474 15 c 0,27,28
 461 30 461 30 461 48 c 2,29,-1
 461 284 l 2,30,31
 461 298 461 298 449.5 313.5 c 0,32,33
 438 329 438 329 416 329 c 2,34,-1
 227 329 l 2,35,36
 208 329 208 329 195 342.5 c 0,37,38
 182 356 182 356 182 373.5 c 0,39,40
 182 391 182 391 194.5 405 c 0,41,42
 207 419 207 419 227 419 c 2,43,-1
 416 419 l 2,44,45
 433 419 433 419 448 432 c 0,46,47
 461 444 461 444 461 462 c 0,48,49
 461 463 461 463 461 464 c 0,50,51
 448 639 448 639 307 640 c 0,52,53
 266 640 266 640 235.5 624 c 0,54,55
 205 608 205 608 190 586.5 c 0,56,57
 175 565 175 565 166 535.5 c 0,58,59
 157 506 157 506 155.5 487 c 0,60,61
 154 468 154 468 154 447 c 2,62,-1
 154 48 l 2,63,64
 154 25 154 25 139 12.5 c 0,65,66
 124 0 124 0 106.5 0 c 0,0,1
EndSplineSet
Refer: 211 710 S 1 0 0 1 51 235 2
EndChar

StartChar: Adieresis
Encoding: 196 196 134
Width: 614
GlyphClass: 1
Flags: W
LayerCount: 2
Fore
SplineSet
170 862 m 0,0,1
 170 882 170 882 185 897 c 128,-1,2
 200 912 200 912 219 912 c 0,3,4
 239 912 239 912 254 897.5 c 128,-1,5
 269 883 269 883 269 862 c 0,6,7
 269 840 269 840 254.5 826 c 128,-1,8
 240 812 240 812 219.5 812 c 128,-1,9
 199 812 199 812 184.5 826 c 128,-1,10
 170 840 170 840 170 862 c 0,0,1
345 862 m 0,11,12
 345 882 345 882 360 897 c 128,-1,13
 375 912 375 912 395 912 c 0,14,15
 414 912 414 912 429 897.5 c 128,-1,16
 444 883 444 883 444 862 c 0,17,18
 444 840 444 840 430 826 c 128,-1,19
 416 812 416 812 395.5 812 c 128,-1,20
 375 812 375 812 360 826 c 128,-1,21
 345 840 345 840 345 862 c 0,11,12
106.5 0 m 128,-1,23
 89 0 89 0 73.5 12.5 c 128,-1,24
 58 25 58 25 58 48 c 2,25,-1
 58 450 l 2,26,27
 59 525 59 525 83.5 585.5 c 128,-1,28
 108 646 108 646 165.5 687 c 128,-1,29
 223 728 223 728 307 728 c 0,30,31
 429 728 429 728 492.5 647 c 128,-1,32
 556 566 556 566 556 450 c 0,33,34
 556 441 556 441 556 334.5 c 128,-1,35
 556 228 556 228 556 143.5 c 128,-1,36
 556 59 556 59 556 48 c 0,37,38
 555 28 555 28 542.5 14 c 128,-1,39
 530 0 530 0 508.5 0 c 128,-1,40
 487 0 487 0 474 15 c 128,-1,41
 461 30 461 30 461 48 c 2,42,-1
 461 284 l 2,43,44
 461 298 461 298 449.5 313.5 c 128,-1,45
 438 329 438 329 416 329 c 2,46,-1
 227 329 l 2,47,48
 208 329 208 329 195 342.5 c 128,-1,49
 182 356 182 356 182 373.5 c 128,-1,50
 182 391 182 391 194.5 405 c 128,-1,51
 207 419 207 419 227 419 c 2,52,-1
 416 419 l 2,53,54
 433 419 433 419 448 432 c 0,55,56
 461 444 461 444 461 462 c 0,57,58
 461 463 461 463 461 464 c 0,59,60
 448 639 448 639 307 640 c 0,61,62
 266 640 266 640 235.5 624 c 128,-1,63
 205 608 205 608 190 586.5 c 128,-1,64
 175 565 175 565 166 535.5 c 128,-1,65
 157 506 157 506 155.5 487 c 128,-1,66
 154 468 154 468 154 447 c 2,67,-1
 154 48 l 2,68,69
 154 25 154 25 139 12.5 c 128,-1,22
 124 0 124 0 106.5 0 c 128,-1,23
EndSplineSet
EndChar

StartChar: AE
Encoding: 198 198 136
Width: 946
GlyphClass: 1
Flags: W
LayerCount: 2
Fore
SplineSet
531 582 m 1,0,1
 544 597 544 597 558 611 c 0,2,3
 605 658 605 658 686 688 c 0,4,5
 763 716 763 716 856 716 c 0,6,7
 872 716 872 716 885 704 c 128,-1,8
 898 692 898 692 898 673.5 c 128,-1,9
 898 655 898 655 885.5 643.5 c 128,-1,10
 873 632 873 632 856 632 c 0,11,12
 651 632 651 632 577 477 c 0,13,14
 570 462 570 462 570 450 c 256,15,16
 570 438 570 438 576 430 c 0,17,18
 590 412 590 412 611 412 c 2,19,-1
 857 412 l 2,20,21
 876 412 876 412 887 398.5 c 128,-1,22
 898 385 898 385 898 369.5 c 128,-1,23
 898 354 898 354 887.5 340.5 c 128,-1,24
 877 327 877 327 857 327 c 2,25,-1
 602 327 l 2,26,27
 584 327 584 327 570 312 c 0,28,29
 560 301 560 301 560 286 c 0,30,31
 560 281 560 281 561 275 c 0,32,33
 606 86 606 86 855 86 c 0,34,35
 874 86 874 86 886 72 c 128,-1,36
 898 58 898 58 898 45 c 0,37,38
 898 27 898 27 886 14 c 128,-1,39
 874 1 874 1 855 0 c 0,40,41
 848 0 848 0 840 0 c 0,42,43
 818 0 818 0 794 2 c 0,44,45
 761 5 761 5 720.5 15.5 c 128,-1,46
 680 26 680 26 641.5 43 c 128,-1,47
 603 60 603 60 571 89 c 0,48,49
 563 96 563 96 556 102 c 1,50,-1
 556 48 l 2,51,52
 555 28 555 28 542.5 14 c 128,-1,53
 530 0 530 0 508.5 0 c 128,-1,54
 487 0 487 0 474 15 c 128,-1,55
 461 30 461 30 461 48 c 2,56,-1
 461 284 l 2,57,58
 461 298 461 298 449.5 313.5 c 128,-1,59
 438 329 438 329 416 329 c 2,60,-1
 227 329 l 2,61,62
 208 329 208 329 195 342.5 c 128,-1,63
 182 356 182 356 182 373.5 c 128,-1,64
 182 391 182 391 194.5 405 c 128,-1,65
 207 419 207 419 227 419 c 2,66,-1
 416 419 l 2,67,68
 433 419 433 419 448 432 c 0,69,70
 461 444 461 444 461 462 c 0,71,72
 461 463 461 463 461 464 c 0,73,74
 452 639 452 639 307 640 c 0,75,76
 266 640 266 640 235.5 624 c 128,-1,77
 205 608 205 608 190 586.5 c 128,-1,78
 175 565 175 565 166 535.5 c 128,-1,79
 157 506 157 506 155.5 487 c 128,-1,80
 154 468 154 468 154 447 c 2,81,-1
 154 48 l 2,82,83
 154 25 154 25 139 12.5 c 128,-1,84
 124 0 124 0 106.5 0 c 128,-1,85
 89 0 89 0 73.5 12.5 c 128,-1,86
 58 25 58 25 58 48 c 2,87,-1
 58 450 l 2,88,89
 58 522 58 522 83 585 c 0,90,91
 107 646 107 646 165 687 c 128,-1,92
 223 728 223 728 307 728 c 0,93,94
 429 728 429 728 493 647 c 0,95,96
 515 618 515 618 531 582 c 1,0,1
EndSplineSet
EndChar

StartChar: Egrave
Encoding: 200 200 138
Width: 520
GlyphClass: 1
Flags: W
LayerCount: 2
Fore
SplineSet
410 783 m 1,0,-1
 356 783 l 1,1,-1
 216 957 l 1,2,-1
 305 957 l 1,3,-1
 410 783 l 1,0,-1
34 370 m 0,4,5
 35 440 35 440 62 501.5 c 128,-1,6
 89 563 89 563 139 611 c 128,-1,7
 189 659 189 659 266.5 687.5 c 128,-1,8
 344 716 344 716 437 716 c 0,9,10
 453 716 453 716 466 704 c 128,-1,11
 479 692 479 692 479 673.5 c 128,-1,12
 479 655 479 655 467 643.5 c 128,-1,13
 455 632 455 632 437 632 c 0,14,15
 230 632 230 632 158 477 c 0,16,17
 151 462 151 462 151 450 c 256,18,19
 151 438 151 438 158 430 c 0,20,21
 171 412 171 412 193 412 c 2,22,-1
 438 412 l 2,23,24
 457 412 457 412 468 398.5 c 128,-1,25
 479 385 479 385 479 369.5 c 128,-1,26
 479 354 479 354 468.5 340.5 c 128,-1,27
 458 327 458 327 438 327 c 2,28,-1
 183 327 l 2,29,30
 165 327 165 327 151 312 c 0,31,32
 141 301 141 301 141 286 c 0,33,34
 141 281 141 281 142 275 c 0,35,36
 182 86 182 86 436 86 c 0,37,38
 455 86 455 86 467 72 c 128,-1,39
 479 58 479 58 479 45 c 0,40,41
 479 27 479 27 467.5 14 c 128,-1,42
 456 1 456 1 436 0 c 0,43,44
 429 0 429 0 421 0 c 0,45,46
 399 0 399 0 374 2 c 0,47,48
 342 5 342 5 301.5 15.5 c 128,-1,49
 261 26 261 26 224 42.5 c 128,-1,50
 187 59 187 59 152 88.5 c 128,-1,51
 117 118 117 118 91 156 c 128,-1,52
 65 194 65 194 49.5 249 c 128,-1,53
 34 304 34 304 34 370 c 0,4,5
EndSplineSet
EndChar

StartChar: Eacute
Encoding: 201 201 139
Width: 520
GlyphClass: 1
Flags: W
LayerCount: 2
Fore
SplineSet
272 783 m 1,0,-1
 377 957 l 1,1,-1
 466 957 l 1,2,-1
 326 783 l 1,3,-1
 272 783 l 1,0,-1
34 370 m 0,4,5
 35 440 35 440 62 501.5 c 128,-1,6
 89 563 89 563 139 611 c 128,-1,7
 189 659 189 659 266.5 687.5 c 128,-1,8
 344 716 344 716 437 716 c 0,9,10
 453 716 453 716 466 704 c 128,-1,11
 479 692 479 692 479 673.5 c 128,-1,12
 479 655 479 655 467 643.5 c 128,-1,13
 455 632 455 632 437 632 c 0,14,15
 230 632 230 632 158 477 c 0,16,17
 151 462 151 462 151 450 c 256,18,19
 151 438 151 438 158 430 c 0,20,21
 171 412 171 412 193 412 c 2,22,-1
 438 412 l 2,23,24
 457 412 457 412 468 398.5 c 128,-1,25
 479 385 479 385 479 369.5 c 128,-1,26
 479 354 479 354 468.5 340.5 c 128,-1,27
 458 327 458 327 438 327 c 2,28,-1
 183 327 l 2,29,30
 165 327 165 327 151 312 c 0,31,32
 141 301 141 301 141 286 c 0,33,34
 141 281 141 281 142 275 c 0,35,36
 182 86 182 86 436 86 c 0,37,38
 455 86 455 86 467 72 c 128,-1,39
 479 58 479 58 479 45 c 0,40,41
 479 27 479 27 467.5 14 c 128,-1,42
 456 1 456 1 436 0 c 0,43,44
 429 0 429 0 421 0 c 0,45,46
 399 0 399 0 374 2 c 0,47,48
 342 5 342 5 301.5 15.5 c 128,-1,49
 261 26 261 26 224 42.5 c 128,-1,50
 187 59 187 59 152 88.5 c 128,-1,51
 117 118 117 118 91 156 c 128,-1,52
 65 194 65 194 49.5 249 c 128,-1,53
 34 304 34 304 34 370 c 0,4,5
EndSplineSet
EndChar

StartChar: Edieresis
Encoding: 203 203 141
Width: 520
GlyphClass: 1
Flags: W
LayerCount: 2
Fore
SplineSet
204 862 m 0,0,1
 204 882 204 882 218.5 897 c 128,-1,2
 233 912 233 912 252.5 912 c 128,-1,3
 272 912 272 912 287.5 897.5 c 128,-1,4
 303 883 303 883 303 862 c 0,5,6
 303 840 303 840 288 826 c 128,-1,7
 273 812 273 812 252.5 812 c 128,-1,8
 232 812 232 812 218 826 c 128,-1,9
 204 840 204 840 204 862 c 0,0,1
379 862 m 0,10,11
 379 882 379 882 394.5 897 c 128,-1,12
 410 912 410 912 429.5 912 c 128,-1,13
 449 912 449 912 463.5 897.5 c 128,-1,14
 478 883 478 883 478 862 c 0,15,16
 478 840 478 840 464 826 c 128,-1,17
 450 812 450 812 429.5 812 c 128,-1,18
 409 812 409 812 394 826 c 128,-1,19
 379 840 379 840 379 862 c 0,10,11
34 370 m 0,20,21
 35 440 35 440 62 501.5 c 128,-1,22
 89 563 89 563 139 611 c 128,-1,23
 189 659 189 659 266.5 687.5 c 128,-1,24
 344 716 344 716 437 716 c 0,25,26
 453 716 453 716 466 704 c 128,-1,27
 479 692 479 692 479 673.5 c 128,-1,28
 479 655 479 655 467 643.5 c 128,-1,29
 455 632 455 632 437 632 c 0,30,31
 230 632 230 632 158 477 c 0,32,33
 151 462 151 462 151 450 c 256,34,35
 151 438 151 438 158 430 c 0,36,37
 171 412 171 412 193 412 c 2,38,-1
 438 412 l 2,39,40
 457 412 457 412 468 398.5 c 128,-1,41
 479 385 479 385 479 369.5 c 128,-1,42
 479 354 479 354 468.5 340.5 c 128,-1,43
 458 327 458 327 438 327 c 2,44,-1
 183 327 l 2,45,46
 165 327 165 327 151 312 c 0,47,48
 141 301 141 301 141 286 c 0,49,50
 141 281 141 281 142 275 c 0,51,52
 182 86 182 86 436 86 c 0,53,54
 455 86 455 86 467 72 c 128,-1,55
 479 58 479 58 479 45 c 0,56,57
 479 27 479 27 467.5 14 c 128,-1,58
 456 1 456 1 436 0 c 0,59,60
 429 0 429 0 421 0 c 0,61,62
 399 0 399 0 374 2 c 0,63,64
 342 5 342 5 301.5 15.5 c 128,-1,65
 261 26 261 26 224 42.5 c 128,-1,66
 187 59 187 59 152 88.5 c 128,-1,67
 117 118 117 118 91 156 c 128,-1,68
 65 194 65 194 49.5 249 c 128,-1,69
 34 304 34 304 34 370 c 0,20,21
EndSplineSet
EndChar

StartChar: Igrave
Encoding: 204 204 142
Width: 232
GlyphClass: 1
Flags: W
LayerCount: 2
Fore
SplineSet
185 783 m 1,0,-1
 132 783 l 1,1,-1
 -8 957 l 1,2,-1
 81 957 l 1,3,-1
 185 783 l 1,0,-1
164 669 m 0,4,5
 168 511 168 511 168 355.5 c 128,-1,6
 168 200 168 200 164 47 c 0,7,8
 164 27 164 27 150 14 c 0,9,10
 135 0 135 0 115.5 0 c 128,-1,11
 96 0 96 0 82.5 14 c 128,-1,12
 69 28 69 28 69 47 c 2,13,-1
 69 669 l 2,14,15
 69 688 69 688 83 702 c 128,-1,16
 97 716 97 716 116 716 c 0,17,18
 137 715 137 715 150 702 c 0,19,20
 164 688 164 688 164 669 c 0,4,5
EndSplineSet
EndChar

StartChar: Iacute
Encoding: 205 205 143
Width: 232
GlyphClass: 1
Flags: W
LayerCount: 2
Fore
SplineSet
48 783 m 1,0,-1
 153 957 l 1,1,-1
 242 957 l 1,2,-1
 101 783 l 1,3,-1
 48 783 l 1,0,-1
164 669 m 0,4,5
 168 511 168 511 168 355.5 c 128,-1,6
 168 200 168 200 164 47 c 0,7,8
 164 27 164 27 150 14 c 0,9,10
 135 0 135 0 115.5 0 c 128,-1,11
 96 0 96 0 82.5 14 c 128,-1,12
 69 28 69 28 69 47 c 2,13,-1
 69 669 l 2,14,15
 69 688 69 688 83 702 c 128,-1,16
 97 716 97 716 116 716 c 0,17,18
 137 715 137 715 150 702 c 0,19,20
 164 688 164 688 164 669 c 0,4,5
EndSplineSet
EndChar

StartChar: Icircumflex
Encoding: 206 206 144
Width: 232
GlyphClass: 1
Flags: W
LayerCount: 2
Fore
SplineSet
164 669 m 0,0,1
 168 511 168 511 168 355.5 c 0,2,3
 168 200 168 200 164 47 c 0,4,5
 164 27 164 27 150 14 c 0,6,7
 135 0 135 0 115.5 0 c 0,8,9
 96 0 96 0 82.5 14 c 0,10,11
 69 28 69 28 69 47 c 2,12,-1
 69 669 l 2,13,14
 69 688 69 688 83 702 c 0,15,16
 97 716 97 716 116 716 c 0,17,18
 137 715 137 715 150 702 c 0,19,20
 164 688 164 688 164 669 c 0,0,1
EndSplineSet
Refer: 211 710 N 1 0 0 1 -139 235 2
EndChar

StartChar: Idieresis
Encoding: 207 207 145
Width: 232
GlyphClass: 1
Flags: W
LayerCount: 2
Fore
SplineSet
-20 862 m 0,0,1
 -20 882 -20 882 -5.5 897 c 128,-1,2
 9 912 9 912 29 912 c 128,-1,3
 49 912 49 912 64 897.5 c 128,-1,4
 79 883 79 883 79 862 c 0,5,6
 79 840 79 840 64 826 c 128,-1,7
 49 812 49 812 28.5 812 c 128,-1,8
 8 812 8 812 -6 826 c 128,-1,9
 -20 840 -20 840 -20 862 c 0,0,1
155 862 m 0,10,11
 155 882 155 882 169.5 897 c 128,-1,12
 184 912 184 912 205 912 c 0,13,14
 224 912 224 912 239 897.5 c 128,-1,15
 254 883 254 883 254 862 c 0,16,17
 254 840 254 840 239.5 826 c 128,-1,18
 225 812 225 812 204.5 812 c 128,-1,19
 184 812 184 812 169.5 826 c 128,-1,20
 155 840 155 840 155 862 c 0,10,11
164 669 m 0,21,22
 168 511 168 511 168 355.5 c 128,-1,23
 168 200 168 200 164 47 c 0,24,25
 164 27 164 27 150 14 c 0,26,27
 135 0 135 0 115.5 0 c 128,-1,28
 96 0 96 0 82.5 14 c 128,-1,29
 69 28 69 28 69 47 c 2,30,-1
 69 669 l 2,31,32
 69 688 69 688 83 702 c 128,-1,33
 97 716 97 716 116 716 c 0,34,35
 137 715 137 715 150 702 c 0,36,37
 164 688 164 688 164 669 c 0,21,22
EndSplineSet
EndChar

StartChar: Eth
Encoding: 208 208 146
Width: 646
GlyphClass: 1
Flags: W
LayerCount: 2
Fore
SplineSet
165 344 m 1,0,-1
 165 163 l 1,1,-1
 165 47 l 2,2,3
 165 29 165 29 150 14 c 0,4,5
 137 0 137 0 118 0 c 0,6,7
 117 0 117 0 116 0 c 0,8,9
 98 0 98 0 85 14 c 0,10,11
 71 29 71 29 71 47 c 2,12,-1
 71 344 l 1,13,-1
 35 344 l 2,14,15
 23 344 23 344 14 352.5 c 128,-1,16
 5 361 5 361 5 373.5 c 128,-1,17
 5 386 5 386 14 394.5 c 128,-1,18
 23 403 23 403 35 403 c 2,19,-1
 71 403 l 1,20,-1
 71 668 l 2,21,22
 71 690 71 690 85 702 c 0,23,24
 100 715 100 715 118 716 c 0,25,26
 156 716 156 716 193 716 c 0,27,28
 196 716 196 716 199 716 c 0,29,30
 357 716 357 716 437 666 c 0,31,32
 613 556 613 556 613 373 c 0,33,34
 613 371 613 371 613 369 c 128,-1,35
 613 367 613 367 613 365 c 0,36,37
 613 167 613 167 459 56 c 0,38,39
 411 21 411 21 342 9 c 0,40,41
 291 0 291 0 249 0 c 0,42,43
 245 0 245 0 241 0 c 0,44,45
 224 0 224 0 213 10 c 0,46,47
 198 25 198 25 198 40 c 0,48,49
 198 41 198 41 198 43 c 0,50,51
 198 63 198 63 210 74 c 0,52,53
 223 86 223 86 241 86 c 0,54,55
 311 86 311 86 367 115 c 0,56,57
 413 139 413 139 436 164 c 0,58,59
 516 250 516 250 516 356 c 0,60,61
 516 358 516 358 516 359 c 0,62,63
 516 368 516 368 515 376 c 0,64,65
 506 497 506 497 434 559 c 0,66,67
 348 633 348 633 226 633 c 0,68,69
 211 633 211 633 208 633 c 0,70,71
 185 632 185 632 177 621 c 0,72,73
 165 605 165 605 165 590 c 2,74,-1
 165 403 l 1,75,-1
 286 403 l 2,76,77
 299 403 299 403 307.5 394.5 c 128,-1,78
 316 386 316 386 316 373.5 c 128,-1,79
 316 361 316 361 307.5 352.5 c 128,-1,80
 299 344 299 344 286 344 c 2,81,-1
 165 344 l 1,0,-1
EndSplineSet
EndChar

StartChar: Ntilde
Encoding: 209 209 147
Width: 645
GlyphClass: 1
Flags: W
LayerCount: 2
Fore
SplineSet
468 918 m 1,0,1
 443 822 443 822 369 821 c 0,2,3
 354 821 354 821 336 826 c 2,4,-1
 296 840 l 2,5,6
 284 844 284 844 269 844 c 0,7,8
 235 844 235 844 221 812 c 1,9,-1
 177 812 l 1,10,11
 199 905 199 905 276 905 c 0,12,13
 293 905 293 905 306 901 c 2,14,-1
 345 888 l 2,15,16
 365 882 365 882 376 882 c 0,17,18
 412 882 412 882 424 918 c 1,19,-1
 468 918 l 1,0,1
156 601 m 1,20,-1
 156 45 l 2,21,22
 156 27 156 27 142.5 13.5 c 128,-1,23
 129 0 129 0 110.5 0 c 128,-1,24
 92 0 92 0 79 13.5 c 128,-1,25
 66 27 66 27 66 45 c 2,26,-1
 66 620 l 2,27,28
 66 671 66 671 86 697.5 c 128,-1,29
 106 724 106 724 143 724 c 0,30,31
 195 724 195 724 230 652 c 2,32,-1
 488 117 l 1,33,-1
 488 671 l 2,34,35
 488 689 488 689 502 702.5 c 128,-1,36
 516 716 516 716 534 716 c 0,37,38
 553 716 553 716 566.5 702.5 c 128,-1,39
 580 689 580 689 580 671 c 2,40,-1
 580 94 l 2,41,42
 580 44 580 44 559.5 17 c 128,-1,43
 539 -10 539 -10 504 -10 c 0,44,45
 503 -10 503 -10 503 -10 c 2,46,47
 450 -10 450 -10 415 61 c 2,48,-1
 156 601 l 1,20,-1
EndSplineSet
EndChar

StartChar: Ograve
Encoding: 210 210 148
Width: 791
GlyphClass: 1
Flags: W
LayerCount: 2
Fore
SplineSet
465 783 m 1,0,-1
 412 783 l 1,1,-1
 271 957 l 1,2,-1
 360 957 l 1,3,-1
 465 783 l 1,0,-1
130 359 m 0,4,5
 130 241 130 241 209 159.5 c 128,-1,6
 288 78 288 78 396 78 c 0,7,8
 506 78 506 78 583 160 c 0,9,10
 662 244 662 244 662 359 c 128,-1,11
 662 474 662 474 583 558 c 0,12,13
 506 640 506 640 396.5 640 c 128,-1,14
 287 640 287 640 209 559 c 0,15,16
 130 475 130 475 130 359 c 0,4,5
33 358 m 0,17,18
 33 511 33 511 140 621 c 0,19,20
 244 728 244 728 393 728 c 0,21,22
 395 728 395 728 396 728 c 0,23,24
 546 728 546 728 652.5 619.5 c 128,-1,25
 759 511 759 511 759 358 c 0,26,27
 759 204 759 204 652.5 96 c 128,-1,28
 546 -12 546 -12 396 -12 c 0,29,30
 245 -12 245 -12 140 95 c 0,31,32
 33 204 33 204 33 358 c 0,17,18
EndSplineSet
EndChar

StartChar: Oacute
Encoding: 211 211 149
Width: 791
GlyphClass: 1
Flags: W
LayerCount: 2
Fore
SplineSet
328 783 m 1,0,-1
 432 957 l 1,1,-1
 521 957 l 1,2,-1
 381 783 l 1,3,-1
 328 783 l 1,0,-1
130 359 m 0,4,5
 130 241 130 241 209 159.5 c 128,-1,6
 288 78 288 78 396 78 c 0,7,8
 506 78 506 78 583 160 c 0,9,10
 662 244 662 244 662 359 c 128,-1,11
 662 474 662 474 583 558 c 0,12,13
 506 640 506 640 396.5 640 c 128,-1,14
 287 640 287 640 209 559 c 0,15,16
 130 475 130 475 130 359 c 0,4,5
33 358 m 0,17,18
 33 511 33 511 140 621 c 0,19,20
 244 728 244 728 393 728 c 0,21,22
 395 728 395 728 396 728 c 0,23,24
 546 728 546 728 652.5 619.5 c 128,-1,25
 759 511 759 511 759 358 c 0,26,27
 759 204 759 204 652.5 96 c 128,-1,28
 546 -12 546 -12 396 -12 c 0,29,30
 245 -12 245 -12 140 95 c 0,31,32
 33 204 33 204 33 358 c 0,17,18
EndSplineSet
EndChar

StartChar: Ocircumflex
Encoding: 212 212 150
Width: 791
GlyphClass: 1
Flags: W
LayerCount: 2
Fore
SplineSet
130 359 m 0,0,1
 130 241 130 241 209 159.5 c 0,2,3
 288 78 288 78 396 78 c 0,4,5
 506 78 506 78 583 160 c 0,6,7
 662 244 662 244 662 359 c 0,8,9
 662 474 662 474 583 558 c 0,10,11
 506 640 506 640 396.5 640 c 0,12,13
 287 640 287 640 209 559 c 0,14,15
 130 475 130 475 130 359 c 0,0,1
33 358 m 0,16,17
 33 511 33 511 140 621 c 0,18,19
 244 728 244 728 393 728 c 0,20,21
 395 728 395 728 396 728 c 0,22,23
 546 728 546 728 652.5 619.5 c 0,24,25
 759 511 759 511 759 358 c 0,26,27
 759 204 759 204 652.5 96 c 0,28,29
 546 -12 546 -12 396 -12 c 0,30,31
 245 -12 245 -12 140 95 c 0,32,33
 33 204 33 204 33 358 c 0,16,17
EndSplineSet
Refer: 211 710 N 1 0 0 1 140 235 2
EndChar

StartChar: Otilde
Encoding: 213 213 151
Width: 791
GlyphClass: 1
Flags: W
LayerCount: 2
Fore
SplineSet
542 918 m 1,0,1
 517 822 517 822 442 821 c 0,2,3
 427 821 427 821 410 826 c 2,4,-1
 370 840 l 2,5,6
 358 844 358 844 343 844 c 0,7,8
 309 844 309 844 295 812 c 1,9,-1
 251 812 l 1,10,11
 273 905 273 905 350 905 c 0,12,13
 367 905 367 905 380 901 c 2,14,-1
 419 888 l 2,15,16
 439 882 439 882 450 882 c 0,17,18
 486 882 486 882 498 918 c 1,19,-1
 542 918 l 1,0,1
130 359 m 0,20,21
 130 241 130 241 209 159.5 c 128,-1,22
 288 78 288 78 396 78 c 0,23,24
 506 78 506 78 583 160 c 0,25,26
 662 244 662 244 662 359 c 128,-1,27
 662 474 662 474 583 558 c 0,28,29
 506 640 506 640 396.5 640 c 128,-1,30
 287 640 287 640 209 559 c 0,31,32
 130 475 130 475 130 359 c 0,20,21
33 358 m 0,33,34
 33 511 33 511 140 621 c 0,35,36
 244 728 244 728 393 728 c 0,37,38
 395 728 395 728 396 728 c 0,39,40
 546 728 546 728 652.5 619.5 c 128,-1,41
 759 511 759 511 759 358 c 0,42,43
 759 204 759 204 652.5 96 c 128,-1,44
 546 -12 546 -12 396 -12 c 0,45,46
 245 -12 245 -12 140 95 c 0,47,48
 33 204 33 204 33 358 c 0,33,34
EndSplineSet
EndChar

StartChar: Odieresis
Encoding: 214 214 152
Width: 791
GlyphClass: 1
Flags: W
LayerCount: 2
Fore
SplineSet
259 862 m 0,0,1
 259 882 259 882 274 897 c 128,-1,2
 289 912 289 912 308.5 912 c 128,-1,3
 328 912 328 912 343 897.5 c 128,-1,4
 358 883 358 883 358 862 c 0,5,6
 358 840 358 840 343.5 826 c 128,-1,7
 329 812 329 812 308.5 812 c 128,-1,8
 288 812 288 812 273.5 826 c 128,-1,9
 259 840 259 840 259 862 c 0,0,1
434 862 m 0,10,11
 434 882 434 882 449.5 897 c 128,-1,12
 465 912 465 912 484.5 912 c 128,-1,13
 504 912 504 912 519 897.5 c 128,-1,14
 534 883 534 883 534 862 c 0,15,16
 534 840 534 840 519.5 826 c 128,-1,17
 505 812 505 812 484.5 812 c 128,-1,18
 464 812 464 812 449 826 c 128,-1,19
 434 840 434 840 434 862 c 0,10,11
130 359 m 0,20,21
 130 241 130 241 209 159.5 c 128,-1,22
 288 78 288 78 396 78 c 0,23,24
 506 78 506 78 583 160 c 0,25,26
 662 244 662 244 662 359 c 128,-1,27
 662 474 662 474 583 558 c 0,28,29
 506 640 506 640 396.5 640 c 128,-1,30
 287 640 287 640 209 559 c 0,31,32
 130 475 130 475 130 359 c 0,20,21
33 358 m 0,33,34
 33 511 33 511 140 621 c 0,35,36
 244 728 244 728 393 728 c 0,37,38
 395 728 395 728 396 728 c 0,39,40
 546 728 546 728 652.5 619.5 c 128,-1,41
 759 511 759 511 759 358 c 0,42,43
 759 204 759 204 652.5 96 c 128,-1,44
 546 -12 546 -12 396 -12 c 0,45,46
 245 -12 245 -12 140 95 c 0,47,48
 33 204 33 204 33 358 c 0,33,34
EndSplineSet
EndChar

StartChar: multiply
Encoding: 215 215 153
Width: 852
GlyphClass: 1
Flags: W
LayerCount: 2
Fore
SplineSet
171 515 m 2,0,1
 161 525 161 525 161 539.5 c 128,-1,2
 161 554 161 554 171 564 c 128,-1,3
 181 574 181 574 195.5 574 c 128,-1,4
 210 574 210 574 220 564 c 2,5,-1
 430 354 l 1,6,-1
 640 564 l 2,7,8
 650 574 650 574 664.5 574 c 128,-1,9
 679 574 679 574 689 564 c 128,-1,10
 699 554 699 554 699 539.5 c 128,-1,11
 699 525 699 525 689 515 c 2,12,-1
 479 305 l 1,13,-1
 688 96 l 2,14,15
 698 86 698 86 698.5 71.5 c 128,-1,16
 699 57 699 57 689 47 c 128,-1,17
 679 37 679 37 664.5 37 c 128,-1,18
 650 37 650 37 640 47 c 2,19,-1
 430 256 l 1,20,-1
 220 47 l 2,21,22
 210 37 210 37 195.5 37 c 128,-1,23
 181 37 181 37 171 47 c 128,-1,24
 161 57 161 57 161.5 71.5 c 128,-1,25
 162 86 162 86 172 96 c 2,26,-1
 381 305 l 1,27,-1
 171 515 l 2,0,1
EndSplineSet
EndChar

StartChar: Oslash
Encoding: 216 216 154
Width: 791
GlyphClass: 1
Flags: W
LayerCount: 2
Fore
SplineSet
230 140 m 1,0,1
 302 78 302 78 396 78 c 0,2,3
 506 78 506 78 583 160 c 0,4,5
 662 244 662 244 662 359 c 0,6,7
 662 456 662 456 605 531 c 1,8,-1
 230 140 l 1,0,1
561 579 m 1,9,10
 491 640 491 640 396 640 c 0,11,12
 286 640 286 640 209 559 c 0,13,14
 130 475 130 475 130 359 c 0,15,16
 130 261 130 261 185 188 c 1,17,-1
 561 579 l 1,9,10
118 119 m 1,18,19
 33 220 33 220 33 355 c 0,20,21
 33 356 33 356 33 358 c 0,22,23
 33 511 33 511 140 621 c 0,24,25
 244 728 244 728 393 728 c 0,26,27
 395 728 395 728 396 728 c 0,28,29
 527 728 527 728 625 645 c 1,30,-1
 700 727 l 2,31,32
 709 737 709 737 722.5 737 c 128,-1,33
 736 737 736 737 746 728 c 0,34,35
 757 718 757 718 758 704.5 c 128,-1,36
 759 691 759 691 749 681 c 2,37,-1
 671 599 l 1,38,39
 759 497 759 497 759 358 c 0,40,41
 759 204 759 204 652.5 96 c 128,-1,42
 546 -12 546 -12 396 -12 c 0,43,44
 263 -12 263 -12 165 72 c 1,45,-1
 85 -11 l 2,46,47
 75 -21 75 -21 62 -22 c 128,-1,48
 49 -23 49 -23 38 -11 c 0,49,50
 28 -2 28 -2 27.5 11.5 c 128,-1,51
 27 25 27 25 36 35 c 2,52,-1
 118 119 l 1,18,19
EndSplineSet
EndChar

StartChar: Ugrave
Encoding: 217 217 155
Width: 614
GlyphClass: 1
Flags: W
LayerCount: 2
Fore
SplineSet
376 783 m 1,0,-1
 323 783 l 1,1,-1
 182 957 l 1,2,-1
 271 957 l 1,3,-1
 376 783 l 1,0,-1
556 669 m 0,4,5
 556 268 556 268 556 266 c 0,6,7
 556 137 556 137 487.5 62.5 c 128,-1,8
 419 -12 419 -12 307.5 -12 c 128,-1,9
 196 -12 196 -12 127 62.5 c 128,-1,10
 58 137 58 137 58 266 c 2,11,-1
 58 669 l 2,12,13
 58 688 58 688 72 702 c 128,-1,14
 86 716 86 716 105 716 c 0,15,16
 126 716 126 716 140 702 c 128,-1,17
 154 688 154 688 154 669 c 2,18,-1
 154 270 l 2,19,20
 154 176 154 176 193.5 127 c 128,-1,21
 233 78 233 78 307 78 c 128,-1,22
 381 78 381 78 421 127 c 128,-1,23
 461 176 461 176 461 270 c 2,24,-1
 461 669 l 2,25,26
 461 688 461 688 475 702 c 128,-1,27
 489 716 489 716 508 716 c 0,28,29
 529 715 529 715 543 702 c 0,30,31
 555 689 555 689 556 669 c 0,4,5
EndSplineSet
EndChar

StartChar: Uacute
Encoding: 218 218 156
Width: 614
GlyphClass: 1
Flags: W
LayerCount: 2
Fore
SplineSet
239 783 m 1,0,-1
 343 957 l 1,1,-1
 432 957 l 1,2,-1
 292 783 l 1,3,-1
 239 783 l 1,0,-1
556 669 m 0,4,5
 556 268 556 268 556 266 c 0,6,7
 556 137 556 137 487.5 62.5 c 128,-1,8
 419 -12 419 -12 307.5 -12 c 128,-1,9
 196 -12 196 -12 127 62.5 c 128,-1,10
 58 137 58 137 58 266 c 2,11,-1
 58 669 l 2,12,13
 58 688 58 688 72 702 c 128,-1,14
 86 716 86 716 105 716 c 0,15,16
 126 716 126 716 140 702 c 128,-1,17
 154 688 154 688 154 669 c 2,18,-1
 154 270 l 2,19,20
 154 176 154 176 193.5 127 c 128,-1,21
 233 78 233 78 307 78 c 128,-1,22
 381 78 381 78 421 127 c 128,-1,23
 461 176 461 176 461 270 c 2,24,-1
 461 669 l 2,25,26
 461 688 461 688 475 702 c 128,-1,27
 489 716 489 716 508 716 c 0,28,29
 529 715 529 715 543 702 c 0,30,31
 555 689 555 689 556 669 c 0,4,5
EndSplineSet
EndChar

StartChar: Ucircumflex
Encoding: 219 219 157
Width: 614
GlyphClass: 1
Flags: W
LayerCount: 2
Fore
SplineSet
556 669 m 0,0,1
 556 268 556 268 556 266 c 0,2,3
 556 137 556 137 487.5 62.5 c 0,4,5
 419 -12 419 -12 307.5 -12 c 0,6,7
 196 -12 196 -12 127 62.5 c 0,8,9
 58 137 58 137 58 266 c 2,10,-1
 58 669 l 2,11,12
 58 688 58 688 72 702 c 0,13,14
 86 716 86 716 105 716 c 0,15,16
 126 716 126 716 140 702 c 0,17,18
 154 688 154 688 154 669 c 2,19,-1
 154 270 l 2,20,21
 154 176 154 176 193.5 127 c 0,22,23
 233 78 233 78 307 78 c 0,24,25
 381 78 381 78 421 127 c 0,26,27
 461 176 461 176 461 270 c 2,28,-1
 461 669 l 2,29,30
 461 688 461 688 475 702 c 0,31,32
 489 716 489 716 508 716 c 0,33,34
 529 715 529 715 543 702 c 0,35,36
 555 689 555 689 556 669 c 0,0,1
EndSplineSet
Refer: 211 710 N 1 0 0 1 52 235 2
EndChar

StartChar: Udieresis
Encoding: 220 220 158
Width: 614
GlyphClass: 1
Flags: W
LayerCount: 2
Fore
SplineSet
170 862 m 0,0,1
 170 882 170 882 185 897 c 128,-1,2
 200 912 200 912 219 912 c 0,3,4
 239 912 239 912 254 897.5 c 128,-1,5
 269 883 269 883 269 862 c 0,6,7
 269 840 269 840 254.5 826 c 128,-1,8
 240 812 240 812 219.5 812 c 128,-1,9
 199 812 199 812 184.5 826 c 128,-1,10
 170 840 170 840 170 862 c 0,0,1
345 862 m 0,11,12
 345 882 345 882 360 897 c 128,-1,13
 375 912 375 912 395 912 c 0,14,15
 414 912 414 912 429 897.5 c 128,-1,16
 444 883 444 883 444 862 c 0,17,18
 444 840 444 840 430 826 c 128,-1,19
 416 812 416 812 395.5 812 c 128,-1,20
 375 812 375 812 360 826 c 128,-1,21
 345 840 345 840 345 862 c 0,11,12
556 669 m 0,22,23
 556 268 556 268 556 266 c 0,24,25
 556 137 556 137 487.5 62.5 c 128,-1,26
 419 -12 419 -12 307.5 -12 c 128,-1,27
 196 -12 196 -12 127 62.5 c 128,-1,28
 58 137 58 137 58 266 c 2,29,-1
 58 669 l 2,30,31
 58 688 58 688 72 702 c 128,-1,32
 86 716 86 716 105 716 c 0,33,34
 126 716 126 716 140 702 c 128,-1,35
 154 688 154 688 154 669 c 2,36,-1
 154 270 l 2,37,38
 154 176 154 176 193.5 127 c 128,-1,39
 233 78 233 78 307 78 c 128,-1,40
 381 78 381 78 421 127 c 128,-1,41
 461 176 461 176 461 270 c 2,42,-1
 461 669 l 2,43,44
 461 688 461 688 475 702 c 128,-1,45
 489 716 489 716 508 716 c 0,46,47
 529 715 529 715 543 702 c 0,48,49
 555 689 555 689 556 669 c 0,22,23
EndSplineSet
EndChar

StartChar: Yacute
Encoding: 221 221 159
Width: 555
GlyphClass: 1
Flags: W
LayerCount: 2
Fore
SplineSet
209 783 m 1,0,-1
 313 957 l 1,1,-1
 402 957 l 1,2,-1
 262 783 l 1,3,-1
 209 783 l 1,0,-1
52 669 m 2,4,5
 52 685 52 685 64.5 700.5 c 128,-1,6
 77 716 77 716 99.5 716 c 128,-1,7
 122 716 122 716 134.5 701 c 128,-1,8
 147 686 147 686 147 669 c 2,9,-1
 147 521 l 2,10,11
 147 475 147 475 159.5 442 c 128,-1,12
 172 409 172 409 187 393 c 128,-1,13
 202 377 202 377 223.5 368 c 128,-1,14
 245 359 245 359 255 358 c 128,-1,15
 265 357 265 357 278 357 c 0,16,17
 289 357 289 357 299 358 c 128,-1,18
 309 359 309 359 331 368 c 128,-1,19
 353 377 353 377 368 392.5 c 128,-1,20
 383 408 383 408 395.5 441 c 128,-1,21
 408 474 408 474 408 520 c 2,22,-1
 408 669 l 2,23,24
 408 687 408 687 422 702 c 0,25,26
 434 715 434 715 455 716 c 0,27,28
 456 716 456 716 456 716 c 2,29,30
 476 716 476 716 490 702 c 0,31,32
 503 689 503 689 503 669 c 0,33,34
 503 668 503 668 503 629.5 c 128,-1,35
 503 591 503 591 503 567 c 128,-1,36
 503 543 503 543 503 520 c 0,37,38
 503 470 503 470 490 428 c 128,-1,39
 477 386 477 386 460.5 363 c 128,-1,40
 444 340 444 340 420 321 c 128,-1,41
 396 302 396 302 385 297 c 2,42,-1
 359 285 l 2,43,44
 357 285 357 285 356 284 c 0,45,46
 325 272 325 272 325 242 c 0,47,48
 325 241 325 241 325 240 c 2,49,-1
 325 47 l 2,50,51
 325 28 325 28 311 14 c 128,-1,52
 297 0 297 0 277.5 0 c 128,-1,53
 258 0 258 0 244 14 c 0,54,55
 231 26 231 26 230 47 c 0,56,57
 230 50 230 50 230 100.5 c 128,-1,58
 230 151 230 151 230 188.5 c 128,-1,59
 230 226 230 226 230 239 c 0,60,61
 230 270 230 270 201 284 c 0,62,63
 200 284 200 284 197 285 c 0,64,65
 183 291 183 291 171 296 c 128,-1,66
 159 301 159 301 135 320 c 128,-1,67
 111 339 111 339 95 362 c 128,-1,68
 79 385 79 385 65.5 427.5 c 128,-1,69
 52 470 52 470 52 521 c 2,70,-1
 52 669 l 2,4,5
EndSplineSet
EndChar

StartChar: Thorn
Encoding: 222 222 160
Width: 555
GlyphClass: 1
Flags: W
LayerCount: 2
Fore
SplineSet
234 163 m 2,0,1
 216 163 216 163 202.5 176 c 128,-1,2
 189 189 189 189 189 207.5 c 128,-1,3
 189 226 189 226 202.5 239.5 c 128,-1,4
 216 253 216 253 234 253 c 2,5,-1
 279 253 l 2,6,7
 350 253 350 253 392 292 c 128,-1,8
 434 331 434 331 434 395 c 0,9,10
 434 455 434 455 393.5 495.5 c 128,-1,11
 353 536 353 536 290 536 c 0,12,13
 231 536 231 536 192.5 491.5 c 128,-1,14
 154 447 154 447 154 373 c 2,15,-1
 154 48 l 2,16,17
 154 28 154 28 140 14 c 128,-1,18
 126 0 126 0 105 0 c 0,19,20
 86 0 86 0 72 14 c 128,-1,21
 58 28 58 28 58 48 c 2,22,-1
 58 668 l 2,23,24
 58 688 58 688 72 702 c 128,-1,25
 86 716 86 716 105 716 c 0,26,27
 127 716 127 716 140.5 702 c 128,-1,28
 154 688 154 688 154 668 c 2,29,-1
 154 568 l 1,30,31
 214 626 214 626 300 627 c 0,32,33
 397 627 397 627 464 560 c 128,-1,34
 531 493 531 493 531 393.5 c 128,-1,35
 531 294 531 294 463 228.5 c 128,-1,36
 395 163 395 163 291 163 c 2,37,-1
 234 163 l 2,0,1
EndSplineSet
EndChar

StartChar: germandbls
Encoding: 223 223 161
Width: 573
GlyphClass: 1
Flags: W
LayerCount: 2
Fore
SplineSet
226 85 m 2,0,1
 226 85 226 85 304 85 c 0,2,3
 372 85 372 85 411 117 c 128,-1,4
 450 149 450 149 450 201 c 0,5,6
 450 246 450 246 420 277 c 0,7,8
 395 304 395 304 325 339 c 0,9,10
 316 343 316 343 302 349 c 128,-1,11
 288 355 288 355 281 358 c 128,-1,12
 274 361 274 361 263.5 367 c 128,-1,13
 253 373 253 373 247.5 376.5 c 128,-1,14
 242 380 242 380 234 385 c 128,-1,15
 226 390 226 390 222.5 394.5 c 128,-1,16
 219 399 219 399 215.5 405 c 128,-1,17
 212 411 212 411 210.5 417.5 c 128,-1,18
 209 424 209 424 209 431 c 0,19,20
 209 450 209 450 220.5 464 c 128,-1,21
 232 478 232 478 245 486 c 128,-1,22
 258 494 258 494 291 511 c 0,23,24
 335 534 335 534 335 573 c 0,25,26
 335 602 335 602 311.5 621.5 c 128,-1,27
 288 641 288 641 253 641 c 0,28,29
 150 641 150 641 150 512 c 2,30,-1
 150 44 l 2,31,32
 150 26 150 26 137 13 c 128,-1,33
 124 0 124 0 105.5 0 c 128,-1,34
 87 0 87 0 74 13 c 128,-1,35
 61 26 61 26 61 44 c 2,36,-1
 61 388 l 1,37,-1
 44 388 l 2,38,39
 27 388 27 388 15 400 c 128,-1,40
 3 412 3 412 3 430 c 0,41,42
 3 446 3 446 15 458.5 c 128,-1,43
 27 471 27 471 44 471 c 2,44,-1
 61 471 l 1,45,-1
 61 528 l 2,46,47
 61 623 61 623 112 674.5 c 128,-1,48
 163 726 163 726 251 726 c 0,49,50
 329 726 329 726 377.5 683.5 c 128,-1,51
 426 641 426 641 426 581 c 0,52,53
 426 531 426 531 397.5 497.5 c 128,-1,54
 369 464 369 464 307 434 c 1,55,-1
 381 402 l 2,56,57
 458 369 458 369 499 315 c 0,58,59
 541 261 541 261 541 194 c 0,60,61
 541 103 541 103 478 51.5 c 128,-1,62
 415 0 415 0 298 0 c 2,63,-1
 226 0 l 2,64,65
 209 0 209 0 196.5 12.5 c 128,-1,66
 184 25 184 25 184 43 c 0,67,68
 184 60 184 60 196.5 72.5 c 128,-1,69
 209 85 209 85 226 85 c 2,0,1
EndSplineSet
EndChar

StartChar: agrave
Encoding: 224 224 162
Width: 575
GlyphClass: 1
Flags: W
LayerCount: 2
Fore
SplineSet
356 548 m 1,0,-1
 303 548 l 1,1,-1
 163 722 l 1,2,-1
 252 722 l 1,3,-1
 356 548 l 1,0,-1
EndSplineSet
Refer: 69 97 N 1 0 0 1 0 0 2
EndChar

StartChar: atilde
Encoding: 227 227 165
Width: 575
GlyphClass: 1
Flags: W
LayerCount: 2
Fore
SplineSet
433 682 m 1,0,1
 408 586 408 586 334 586 c 0,2,3
 319 586 319 586 301 591 c 2,4,-1
 261 604 l 2,5,6
 249 608 249 608 234 608 c 0,7,8
 200 608 200 608 186 577 c 1,9,-1
 142 577 l 1,10,11
 164 670 164 670 242 670 c 0,12,13
 259 670 259 670 271 666 c 2,14,-1
 310 652 l 2,15,16
 330 646 330 646 341 646 c 0,17,18
 377 646 377 646 389 682 c 1,19,-1
 433 682 l 1,0,1
446 253 m 2,20,21
 446 284 446 284 437 310 c 0,22,23
 425 343 425 343 398 370 c 128,-1,24
 371 397 371 397 338 409 c 0,25,26
 312 418 312 418 279 419 c 0,27,28
 249 419 249 419 223 409 c 0,29,30
 190 397 190 397 163 370 c 128,-1,31
 136 343 136 343 124 310 c 0,32,33
 115 283 115 283 115 252.5 c 128,-1,34
 115 222 115 222 124 195 c 0,35,36
 136 162 136 162 163 135 c 128,-1,37
 190 108 190 108 223 96 c 0,38,39
 250 87 250 87 280 87 c 0,40,41
 311 87 311 87 338 96 c 2,42,-1
 344 98 l 2,43,44
 356 102 356 102 365 102 c 0,45,46
 372 102 372 102 377 100 c 0,47,48
 395 92 395 92 402 76 c 0,49,50
 406 69 406 69 407 59 c 0,51,52
 407 51 407 51 404 44 c 0,53,54
 397 27 397 27 381 20 c 0,55,56
 335 0 335 0 281 0 c 0,57,58
 177 0 177 0 102.5 74 c 128,-1,59
 28 148 28 148 28 252.5 c 128,-1,60
 28 357 28 357 102 431.5 c 128,-1,61
 176 506 176 506 280.5 506 c 128,-1,62
 385 506 385 506 459.5 431.5 c 128,-1,63
 534 357 534 357 534 253 c 2,64,-1
 534 43 l 2,65,66
 534 25 534 25 522 13 c 0,67,68
 508 0 508 0 491 0 c 0,69,70
 471 0 471 0 459 13 c 0,71,72
 446 27 446 27 446 43 c 2,73,-1
 446 253 l 2,20,21
EndSplineSet
EndChar

StartChar: adieresis
Encoding: 228 228 166
Width: 575
GlyphClass: 1
Flags: W
LayerCount: 2
Fore
SplineSet
151 627 m 0,0,1
 151 647 151 647 165.5 662 c 0,2,3
 180 677 180 677 199.5 677 c 0,4,5
 219 677 219 677 234.5 662 c 0,6,7
 250 647 250 647 250 627 c 0,8,9
 250 605 250 605 235 591 c 0,10,11
 220 577 220 577 199.5 577 c 0,12,13
 179 577 179 577 165 591 c 0,14,15
 151 605 151 605 151 627 c 0,0,1
326 627 m 0,16,17
 326 647 326 647 341 662 c 0,18,19
 356 677 356 677 375.5 677 c 0,20,21
 395 677 395 677 410 662 c 0,22,23
 425 647 425 647 425 627 c 0,24,25
 425 605 425 605 410.5 591 c 0,26,27
 396 577 396 577 375.5 577 c 0,28,29
 355 577 355 577 340.5 591 c 0,30,31
 326 605 326 605 326 627 c 0,16,17
EndSplineSet
Refer: 69 97 N 1 0 0 1 0 0 2
EndChar

StartChar: aring
Encoding: 229 229 167
Width: 575
GlyphClass: 1
Flags: W
LayerCount: 2
Fore
SplineSet
227 657.5 m 0,0,1
 227 628 227 628 248 607 c 0,2,3
 269 586 269 586 299 586 c 0,4,5
 329 586 329 586 349.5 607 c 0,6,7
 370 628 370 628 370 657.5 c 0,8,9
 370 687 370 687 349.5 707.5 c 0,10,11
 329 728 329 728 299 728 c 0,12,13
 268 728 268 728 247.5 707.5 c 0,14,15
 227 687 227 687 227 657.5 c 0,0,1
175 657.5 m 0,16,17
 175 710 175 710 211 745.5 c 0,18,19
 247 781 247 781 299 781 c 0,20,21
 351 781 351 781 387 745.5 c 0,22,23
 423 710 423 710 423 657.5 c 0,24,25
 423 605 423 605 387 569.5 c 0,26,27
 351 534 351 534 299 534 c 0,28,29
 247 534 247 534 211 569.5 c 0,30,31
 175 605 175 605 175 657.5 c 0,16,17
EndSplineSet
Refer: 69 97 N 1 0 0 1 0 0 2
EndChar

StartChar: ae
Encoding: 230 230 168
Width: 902
GlyphClass: 1
Flags: W
LayerCount: 2
Fore
SplineSet
571 216 m 2,0,1
 558 210 558 210 542 216 c 0,2,3
 530 221 530 221 522 237 c 0,4,5
 515 251 515 251 521 266.5 c 128,-1,6
 527 282 527 282 542 288 c 2,7,-1
 735 369 l 1,8,9
 691 418 691 418 625.5 418 c 128,-1,10
 560 418 560 418 514.5 368.5 c 128,-1,11
 469 319 469 319 469 246.5 c 128,-1,12
 469 174 469 174 514.5 125 c 128,-1,13
 560 76 560 76 626 76 c 0,14,15
 687 76 687 76 730 118 c 0,16,17
 771 158 771 158 783 231 c 0,18,19
 786 249 786 249 801 260 c 0,20,21
 813 269 813 269 827 269 c 0,22,23
 831 269 831 269 834 268 c 0,24,25
 853 265 853 265 864 250 c 0,26,27
 873 240 873 240 873 227 c 0,28,29
 873 222 873 222 872 217 c 0,30,31
 854 111 854 111 787.5 51 c 128,-1,32
 721 -9 721 -9 624 -9 c 0,33,34
 497 -9 497 -9 420 101 c 1,35,36
 349 -11 349 -11 207 -11 c 0,37,38
 205 -11 205 -11 204 -11 c 0,39,40
 122 -11 122 -11 73 32 c 128,-1,41
 24 75 24 75 24 141 c 0,42,43
 24 220 24 220 104 272.5 c 128,-1,44
 184 325 184 325 347 354 c 1,45,46
 309 412 309 412 223 413 c 0,47,48
 159 413 159 413 110 385 c 0,49,50
 96 377 96 377 79 381.5 c 128,-1,51
 62 386 62 386 54 401 c 128,-1,52
 46 416 46 416 51 432 c 0,53,54
 55 446 55 446 70 457 c 0,55,56
 90 470 90 470 138 483 c 0,57,58
 185 496 185 496 232 497 c 0,59,60
 361 497 361 497 427 394 c 1,61,62
 500 499 500 499 625 500 c 0,63,64
 707 500 707 500 766.5 456 c 128,-1,65
 826 412 826 412 851 333 c 1,66,-1
 571 216 l 2,0,1
376 276 m 1,67,68
 116 234 116 234 116 140 c 0,69,70
 116 110 116 110 140.5 91 c 128,-1,71
 165 72 165 72 205 72 c 0,72,73
 282 72 282 72 330 119 c 128,-1,74
 378 166 378 166 378 244 c 0,75,76
 378 253 378 253 376 276 c 1,67,68
EndSplineSet
EndChar

StartChar: egrave
Encoding: 232 232 170
Width: 555
GlyphClass: 1
Flags: W
LayerCount: 2
Fore
SplineSet
346 548 m 1,0,-1
 293 548 l 1,1,-1
 153 722 l 1,2,-1
 242 722 l 1,3,-1
 346 548 l 1,0,-1
513 168 m 0,4,5
 503 105 503 105 434 47 c 0,6,7
 367 -10 367 -10 279 -10 c 0,8,9
 212 -10 212 -10 155 25 c 0,10,11
 95 60 95 60 63 118 c 128,-1,12
 31 176 31 176 31 246 c 0,13,14
 31 247 31 247 31 249 c 0,15,16
 31 351 31 351 103 426 c 0,17,18
 177 501 177 501 280 501 c 0,19,20
 353 501 353 501 412 461.5 c 128,-1,21
 471 422 471 422 489 380 c 0,22,23
 498 367 498 367 493 351.5 c 128,-1,24
 488 336 488 336 475 329 c 2,25,-1
 220 187 l 2,26,27
 207 180 207 180 191.5 184.5 c 128,-1,28
 176 189 176 189 169 202 c 0,29,30
 161 216 161 216 165 231.5 c 128,-1,31
 169 247 169 247 182 254 c 2,32,-1
 388 369 l 1,33,34
 344 418 344 418 278.5 418 c 128,-1,35
 213 418 213 418 167.5 369 c 128,-1,36
 122 320 122 320 122 247 c 0,37,38
 122 245 122 245 122 243 c 0,39,40
 122 198 122 198 143 160 c 0,41,42
 164 121 164 121 200 98.5 c 128,-1,43
 236 76 236 76 279 76 c 0,44,45
 336 76 336 76 379 113 c 0,46,47
 421 150 421 150 427 193 c 0,48,49
 433 209 433 209 449 219 c 0,50,51
 459 225 459 225 470 225 c 0,52,53
 476 225 476 225 482 223 c 0,54,55
 500 218 500 218 509 202 c 0,56,57
 515 190 515 190 515 180 c 0,58,59
 515 174 515 174 513 168 c 0,4,5
EndSplineSet
EndChar

StartChar: eacute
Encoding: 233 233 171
Width: 555
GlyphClass: 1
Flags: W
LayerCount: 2
Fore
SplineSet
209 548 m 1,0,-1
 313 722 l 1,1,-1
 402 722 l 1,2,-1
 262 548 l 1,3,-1
 209 548 l 1,0,-1
513 168 m 0,4,5
 503 105 503 105 434 47 c 0,6,7
 367 -10 367 -10 279 -10 c 0,8,9
 212 -10 212 -10 155 25 c 0,10,11
 95 60 95 60 63 118 c 128,-1,12
 31 176 31 176 31 246 c 0,13,14
 31 247 31 247 31 249 c 0,15,16
 31 351 31 351 103 426 c 0,17,18
 177 501 177 501 280 501 c 0,19,20
 353 501 353 501 412 461.5 c 128,-1,21
 471 422 471 422 489 380 c 0,22,23
 498 367 498 367 493 351.5 c 128,-1,24
 488 336 488 336 475 329 c 2,25,-1
 220 187 l 2,26,27
 207 180 207 180 191.5 184.5 c 128,-1,28
 176 189 176 189 169 202 c 0,29,30
 161 216 161 216 165 231.5 c 128,-1,31
 169 247 169 247 182 254 c 2,32,-1
 388 369 l 1,33,34
 344 418 344 418 278.5 418 c 128,-1,35
 213 418 213 418 167.5 369 c 128,-1,36
 122 320 122 320 122 247 c 0,37,38
 122 245 122 245 122 243 c 0,39,40
 122 198 122 198 143 160 c 0,41,42
 164 121 164 121 200 98.5 c 128,-1,43
 236 76 236 76 279 76 c 0,44,45
 336 76 336 76 379 113 c 0,46,47
 421 150 421 150 427 193 c 0,48,49
 433 209 433 209 449 219 c 0,50,51
 459 225 459 225 470 225 c 0,52,53
 476 225 476 225 482 223 c 0,54,55
 500 218 500 218 509 202 c 0,56,57
 515 190 515 190 515 180 c 0,58,59
 515 174 515 174 513 168 c 0,4,5
EndSplineSet
EndChar

StartChar: ecircumflex
Encoding: 234 234 172
Width: 555
GlyphClass: 1
Flags: W
LayerCount: 2
Fore
SplineSet
513 168 m 0,0,1
 503 105 503 105 434 47 c 0,2,3
 367 -10 367 -10 279 -10 c 0,4,5
 212 -10 212 -10 155 25 c 0,6,7
 95 60 95 60 63 118 c 0,8,9
 31 176 31 176 31 246 c 0,10,11
 31 247 31 247 31 249 c 0,12,13
 31 351 31 351 103 426 c 0,14,15
 177 501 177 501 280 501 c 0,16,17
 353 501 353 501 412 461.5 c 0,18,19
 471 422 471 422 489 380 c 0,20,21
 498 367 498 367 493 351.5 c 0,22,23
 488 336 488 336 475 329 c 2,24,-1
 220 187 l 2,25,26
 207 180 207 180 191.5 184.5 c 0,27,28
 176 189 176 189 169 202 c 0,29,30
 161 216 161 216 165 231.5 c 0,31,32
 169 247 169 247 182 254 c 2,33,-1
 388 369 l 1,34,35
 344 418 344 418 278.5 418 c 0,36,37
 213 418 213 418 167.5 369 c 0,38,39
 122 320 122 320 122 247 c 0,40,41
 122 245 122 245 122 243 c 0,42,43
 122 198 122 198 143 160 c 0,44,45
 164 121 164 121 200 98.5 c 0,46,47
 236 76 236 76 279 76 c 0,48,49
 336 76 336 76 379 113 c 0,50,51
 421 150 421 150 427 193 c 0,52,53
 433 209 433 209 449 219 c 0,54,55
 459 225 459 225 470 225 c 0,56,57
 476 225 476 225 482 223 c 0,58,59
 500 218 500 218 509 202 c 0,60,61
 515 190 515 190 515 180 c 0,62,63
 515 174 515 174 513 168 c 0,0,1
EndSplineSet
Refer: 211 710 N 1 0 0 1 22 0 2
EndChar

StartChar: edieresis
Encoding: 235 235 173
Width: 555
GlyphClass: 1
Flags: W
LayerCount: 2
Fore
SplineSet
140 627 m 0,0,1
 140 647 140 647 155 662 c 128,-1,2
 170 677 170 677 189.5 677 c 128,-1,3
 209 677 209 677 224.5 662 c 128,-1,4
 240 647 240 647 240 627 c 0,5,6
 240 605 240 605 225 591 c 128,-1,7
 210 577 210 577 189.5 577 c 128,-1,8
 169 577 169 577 154.5 591 c 128,-1,9
 140 605 140 605 140 627 c 0,0,1
315 627 m 0,10,11
 315 647 315 647 330.5 662 c 128,-1,12
 346 677 346 677 365.5 677 c 128,-1,13
 385 677 385 677 400 662 c 128,-1,14
 415 647 415 647 415 627 c 0,15,16
 415 605 415 605 400.5 591 c 128,-1,17
 386 577 386 577 365.5 577 c 128,-1,18
 345 577 345 577 330 591 c 128,-1,19
 315 605 315 605 315 627 c 0,10,11
513 168 m 0,20,21
 503 105 503 105 434 47 c 0,22,23
 367 -10 367 -10 279 -10 c 0,24,25
 212 -10 212 -10 155 25 c 0,26,27
 95 60 95 60 63 118 c 128,-1,28
 31 176 31 176 31 246 c 0,29,30
 31 247 31 247 31 249 c 0,31,32
 31 351 31 351 103 426 c 0,33,34
 177 501 177 501 280 501 c 0,35,36
 353 501 353 501 412 461.5 c 128,-1,37
 471 422 471 422 489 380 c 0,38,39
 498 367 498 367 493 351.5 c 128,-1,40
 488 336 488 336 475 329 c 2,41,-1
 220 187 l 2,42,43
 207 180 207 180 191.5 184.5 c 128,-1,44
 176 189 176 189 169 202 c 0,45,46
 161 216 161 216 165 231.5 c 128,-1,47
 169 247 169 247 182 254 c 2,48,-1
 388 369 l 1,49,50
 344 418 344 418 278.5 418 c 128,-1,51
 213 418 213 418 167.5 369 c 128,-1,52
 122 320 122 320 122 247 c 0,53,54
 122 245 122 245 122 243 c 0,55,56
 122 198 122 198 143 160 c 0,57,58
 164 121 164 121 200 98.5 c 128,-1,59
 236 76 236 76 279 76 c 0,60,61
 336 76 336 76 379 113 c 0,62,63
 421 150 421 150 427 193 c 0,64,65
 433 209 433 209 449 219 c 0,66,67
 459 225 459 225 470 225 c 0,68,69
 476 225 476 225 482 223 c 0,70,71
 500 218 500 218 509 202 c 0,72,73
 515 190 515 190 515 180 c 0,74,75
 515 174 515 174 513 168 c 0,20,21
EndSplineSet
EndChar

StartChar: igrave
Encoding: 236 236 174
Width: 208
GlyphClass: 1
Flags: W
LayerCount: 2
Fore
SplineSet
173 548 m 1,0,-1
 120 548 l 1,1,-1
 -20 722 l 1,2,-1
 69 722 l 1,3,-1
 173 548 l 1,0,-1
EndSplineSet
Refer: 195 305 N 1 0 0 1 0 0 2
EndChar

StartChar: iacute
Encoding: 237 237 175
Width: 208
GlyphClass: 1
Flags: W
LayerCount: 2
Fore
SplineSet
36 548 m 1,0,-1
 140 722 l 1,1,-1
 229 722 l 1,2,-1
 89 548 l 1,3,-1
 36 548 l 1,0,-1
EndSplineSet
Refer: 195 305 S 1 0 0 1 0 0 2
EndChar

StartChar: idieresis
Encoding: 239 239 177
Width: 208
GlyphClass: 1
Flags: W
LayerCount: 2
Fore
SplineSet
-33 627 m 0,0,1
 -33 647 -33 647 -18 662 c 0,2,3
 -3 677 -3 677 16 677 c 0,4,5
 36 677 36 677 51.5 662 c 0,6,7
 67 647 67 647 67 627 c 0,8,9
 67 605 67 605 52 591 c 0,10,11
 37 577 37 577 16.5 577 c 0,12,13
 -4 577 -4 577 -18.5 591 c 0,14,15
 -33 605 -33 605 -33 627 c 0,0,1
142 627 m 0,16,17
 142 647 142 647 157 662 c 0,18,19
 172 677 172 677 193 677 c 0,20,21
 212 677 212 677 227 662 c 0,22,23
 242 647 242 647 242 627 c 0,24,25
 242 605 242 605 227.5 591 c 0,26,27
 213 577 213 577 192.5 577 c 0,28,29
 172 577 172 577 157 591 c 0,30,31
 142 605 142 605 142 627 c 0,16,17
EndSplineSet
Refer: 195 305 S 1 0 0 1 0 0 2
EndChar

StartChar: eth
Encoding: 240 240 178
Width: 557
GlyphClass: 1
Flags: W
LayerCount: 2
Fore
SplineSet
351 397 m 1,0,1
 316 416 316 416 279 417 c 0,2,3
 213 417 213 417 167.5 368 c 128,-1,4
 122 319 122 319 122 246.5 c 128,-1,5
 122 174 122 174 167.5 125 c 128,-1,6
 213 76 213 76 279 76 c 0,7,8
 346 76 346 76 389 123.5 c 128,-1,9
 432 171 432 171 432 247 c 0,10,11
 432 306 432 306 390 393 c 2,12,-1
 298 584 l 1,13,-1
 170 530 l 1,14,-1
 154 570 l 1,15,-1
 278 624 l 1,16,-1
 227 716 l 1,17,-1
 327 716 l 1,18,-1
 356 657 l 1,19,-1
 482 711 l 1,20,-1
 501 669 l 1,21,-1
 380 618 l 1,22,-1
 454 473 l 2,23,24
 526 333 526 333 526 248 c 0,25,26
 526 247 526 247 526 246 c 0,27,28
 526 140 526 140 454 65 c 0,29,30
 382 -9 382 -9 278.5 -9 c 128,-1,31
 175 -9 175 -9 103 65 c 128,-1,32
 31 139 31 139 31 243 c 0,33,34
 31 245 31 245 31 246 c 0,35,36
 31 385 31 385 155 466 c 0,37,38
 205 500 205 500 272 500 c 0,39,40
 276 500 276 500 303 498 c 1,41,-1
 351 397 l 1,0,1
EndSplineSet
EndChar

StartChar: ntilde
Encoding: 241 241 179
Width: 524
GlyphClass: 1
Flags: W
LayerCount: 2
Fore
SplineSet
408 682 m 1,0,1
 383 586 383 586 308 586 c 0,2,3
 293 586 293 586 275 591 c 2,4,-1
 236 604 l 2,5,6
 224 608 224 608 209 608 c 0,7,8
 175 608 175 608 161 577 c 1,9,-1
 117 577 l 1,10,11
 139 670 139 670 216 670 c 0,12,13
 233 670 233 670 246 666 c 2,14,-1
 285 652 l 2,15,16
 305 646 305 646 315 646 c 0,17,18
 351 646 351 646 364 682 c 1,19,-1
 408 682 l 1,0,1
53 43 m 0,20,21
 53 267 53 267 53 267 c 2,22,23
 53 377 53 377 111 438.5 c 128,-1,24
 169 500 169 500 262 500 c 128,-1,25
 355 500 355 500 412.5 438.5 c 128,-1,26
 470 377 470 377 470 267 c 2,27,-1
 470 43 l 2,28,29
 470 25 470 25 457 12.5 c 128,-1,30
 444 0 444 0 426 0 c 0,31,32
 409 0 409 0 396 13 c 128,-1,33
 383 26 383 26 383 43 c 0,34,35
 383 284 383 284 383 284 c 2,36,37
 383 342 383 342 349 378.5 c 128,-1,38
 315 415 315 415 262 415 c 128,-1,39
 209 415 209 415 174.5 378.5 c 128,-1,40
 140 342 140 342 140 284 c 2,41,-1
 140 43 l 2,42,43
 140 25 140 25 127 12.5 c 128,-1,44
 114 0 114 0 96 0 c 0,45,46
 79 0 79 0 66 12 c 0,47,48
 54 25 54 25 53 43 c 0,20,21
EndSplineSet
EndChar

StartChar: ograve
Encoding: 242 242 180
Width: 557
GlyphClass: 1
Flags: W
LayerCount: 2
Fore
SplineSet
347 548 m 1,0,-1
 294 548 l 1,1,-1
 154 722 l 1,2,-1
 243 722 l 1,3,-1
 347 548 l 1,0,-1
28 244.5 m 128,-1,5
 28 349 28 349 102 423.5 c 128,-1,6
 176 498 176 498 280.5 498 c 128,-1,7
 385 498 385 498 459.5 423.5 c 128,-1,8
 534 349 534 349 534 244.5 c 128,-1,9
 534 140 534 140 459.5 66 c 128,-1,10
 385 -8 385 -8 280.5 -8 c 128,-1,11
 176 -8 176 -8 102 66 c 128,-1,4
 28 140 28 140 28 244.5 c 128,-1,5
115 244.5 m 128,-1,13
 115 214 115 214 124 187 c 0,14,15
 136 154 136 154 163 127 c 128,-1,16
 190 100 190 100 223 88 c 0,17,18
 250 79 250 79 280.5 79 c 128,-1,19
 311 79 311 79 338 88 c 0,20,21
 371 100 371 100 398 127.5 c 128,-1,22
 425 155 425 155 437 187 c 0,23,24
 446 214 446 214 446 244.5 c 128,-1,25
 446 275 446 275 437 302 c 0,26,27
 425 335 425 335 398 362 c 128,-1,28
 371 389 371 389 338 401 c 0,29,30
 311 410 311 410 280 410 c 0,31,32
 279 411 279 411 278 411 c 0,33,34
 249 411 249 411 223 401 c 0,35,36
 190 389 190 389 163 362 c 128,-1,37
 136 335 136 335 124 302 c 0,38,12
 115 275 115 275 115 244.5 c 128,-1,13
EndSplineSet
EndChar

StartChar: oacute
Encoding: 243 243 181
Width: 557
GlyphClass: 1
Flags: W
LayerCount: 2
Fore
SplineSet
210 548 m 1,0,-1
 314 722 l 1,1,-1
 403 722 l 1,2,-1
 263 548 l 1,3,-1
 210 548 l 1,0,-1
28 244.5 m 128,-1,5
 28 349 28 349 102 423.5 c 128,-1,6
 176 498 176 498 280.5 498 c 128,-1,7
 385 498 385 498 459.5 423.5 c 128,-1,8
 534 349 534 349 534 244.5 c 128,-1,9
 534 140 534 140 459.5 66 c 128,-1,10
 385 -8 385 -8 280.5 -8 c 128,-1,11
 176 -8 176 -8 102 66 c 128,-1,4
 28 140 28 140 28 244.5 c 128,-1,5
115 244.5 m 128,-1,13
 115 214 115 214 124 187 c 0,14,15
 136 154 136 154 163 127 c 128,-1,16
 190 100 190 100 223 88 c 0,17,18
 250 79 250 79 280.5 79 c 128,-1,19
 311 79 311 79 338 88 c 0,20,21
 371 100 371 100 398 127.5 c 128,-1,22
 425 155 425 155 437 187 c 0,23,24
 446 214 446 214 446 244.5 c 128,-1,25
 446 275 446 275 437 302 c 0,26,27
 425 335 425 335 398 362 c 128,-1,28
 371 389 371 389 338 401 c 0,29,30
 311 410 311 410 280 410 c 0,31,32
 279 411 279 411 278 411 c 0,33,34
 249 411 249 411 223 401 c 0,35,36
 190 389 190 389 163 362 c 128,-1,37
 136 335 136 335 124 302 c 0,38,12
 115 275 115 275 115 244.5 c 128,-1,13
EndSplineSet
EndChar

StartChar: ocircumflex
Encoding: 244 244 182
Width: 557
GlyphClass: 1
Flags: W
LayerCount: 2
Fore
SplineSet
28 244.5 m 0,0,1
 28 349 28 349 102 423.5 c 0,2,3
 176 498 176 498 280.5 498 c 0,4,5
 385 498 385 498 459.5 423.5 c 0,6,7
 534 349 534 349 534 244.5 c 0,8,9
 534 140 534 140 459.5 66 c 0,10,11
 385 -8 385 -8 280.5 -8 c 0,12,13
 176 -8 176 -8 102 66 c 0,14,15
 28 140 28 140 28 244.5 c 0,0,1
115 244.5 m 0,16,17
 115 214 115 214 124 187 c 0,18,19
 136 154 136 154 163 127 c 0,20,21
 190 100 190 100 223 88 c 0,22,23
 250 79 250 79 280.5 79 c 0,24,25
 311 79 311 79 338 88 c 0,26,27
 371 100 371 100 398 127.5 c 0,28,29
 425 155 425 155 437 187 c 0,30,31
 446 214 446 214 446 244.5 c 0,32,33
 446 275 446 275 437 302 c 0,34,35
 425 335 425 335 398 362 c 0,36,37
 371 389 371 389 338 401 c 0,38,39
 311 410 311 410 280 410 c 0,40,41
 279 411 279 411 278 411 c 0,42,43
 249 411 249 411 223 401 c 0,44,45
 190 389 190 389 163 362 c 0,46,47
 136 335 136 335 124 302 c 0,48,49
 115 275 115 275 115 244.5 c 0,16,17
EndSplineSet
Refer: 211 710 N 1 0 0 1 23 0 2
EndChar

StartChar: otilde
Encoding: 245 245 183
Width: 557
GlyphClass: 1
Flags: W
LayerCount: 2
Fore
SplineSet
424 682 m 1,0,1
 399 586 399 586 325 586 c 0,2,3
 310 586 310 586 292 591 c 2,4,-1
 252 604 l 2,5,6
 240 608 240 608 225 608 c 0,7,8
 191 608 191 608 177 577 c 1,9,-1
 133 577 l 1,10,11
 155 670 155 670 232 670 c 0,12,13
 249 670 249 670 262 666 c 2,14,-1
 301 652 l 2,15,16
 321 646 321 646 332 646 c 0,17,18
 368 646 368 646 380 682 c 1,19,-1
 424 682 l 1,0,1
28 244.5 m 128,-1,21
 28 349 28 349 102 423.5 c 128,-1,22
 176 498 176 498 280.5 498 c 128,-1,23
 385 498 385 498 459.5 423.5 c 128,-1,24
 534 349 534 349 534 244.5 c 128,-1,25
 534 140 534 140 459.5 66 c 128,-1,26
 385 -8 385 -8 280.5 -8 c 128,-1,27
 176 -8 176 -8 102 66 c 128,-1,20
 28 140 28 140 28 244.5 c 128,-1,21
115 244.5 m 128,-1,29
 115 214 115 214 124 187 c 0,30,31
 136 154 136 154 163 127 c 128,-1,32
 190 100 190 100 223 88 c 0,33,34
 250 79 250 79 280.5 79 c 128,-1,35
 311 79 311 79 338 88 c 0,36,37
 371 100 371 100 398 127.5 c 128,-1,38
 425 155 425 155 437 187 c 0,39,40
 446 214 446 214 446 244.5 c 128,-1,41
 446 275 446 275 437 302 c 0,42,43
 425 335 425 335 398 362 c 128,-1,44
 371 389 371 389 338 401 c 0,45,46
 311 410 311 410 280 410 c 0,47,48
 279 411 279 411 278 411 c 0,49,50
 249 411 249 411 223 401 c 0,51,52
 190 389 190 389 163 362 c 128,-1,53
 136 335 136 335 124 302 c 0,54,28
 115 275 115 275 115 244.5 c 128,-1,29
EndSplineSet
EndChar

StartChar: odieresis
Encoding: 246 246 184
Width: 557
GlyphClass: 1
Flags: W
LayerCount: 2
Fore
SplineSet
141 627 m 0,0,1
 141 647 141 647 156 662 c 128,-1,2
 171 677 171 677 190 677 c 0,3,4
 210 677 210 677 225.5 662 c 128,-1,5
 241 647 241 647 241 627 c 0,6,7
 241 605 241 605 226 591 c 128,-1,8
 211 577 211 577 190.5 577 c 128,-1,9
 170 577 170 577 155.5 591 c 128,-1,10
 141 605 141 605 141 627 c 0,0,1
316 627 m 0,11,12
 316 647 316 647 331 662 c 128,-1,13
 346 677 346 677 367 677 c 0,14,15
 386 677 386 677 401 662 c 128,-1,16
 416 647 416 647 416 627 c 0,17,18
 416 605 416 605 401.5 591 c 128,-1,19
 387 577 387 577 366.5 577 c 128,-1,20
 346 577 346 577 331 591 c 128,-1,21
 316 605 316 605 316 627 c 0,11,12
28 244.5 m 128,-1,23
 28 349 28 349 102 423.5 c 128,-1,24
 176 498 176 498 280.5 498 c 128,-1,25
 385 498 385 498 459.5 423.5 c 128,-1,26
 534 349 534 349 534 244.5 c 128,-1,27
 534 140 534 140 459.5 66 c 128,-1,28
 385 -8 385 -8 280.5 -8 c 128,-1,29
 176 -8 176 -8 102 66 c 128,-1,22
 28 140 28 140 28 244.5 c 128,-1,23
115 244.5 m 128,-1,31
 115 214 115 214 124 187 c 0,32,33
 136 154 136 154 163 127 c 128,-1,34
 190 100 190 100 223 88 c 0,35,36
 250 79 250 79 280.5 79 c 128,-1,37
 311 79 311 79 338 88 c 0,38,39
 371 100 371 100 398 127.5 c 128,-1,40
 425 155 425 155 437 187 c 0,41,42
 446 214 446 214 446 244.5 c 128,-1,43
 446 275 446 275 437 302 c 0,44,45
 425 335 425 335 398 362 c 128,-1,46
 371 389 371 389 338 401 c 0,47,48
 311 410 311 410 280 410 c 0,49,50
 279 411 279 411 278 411 c 0,51,52
 249 411 249 411 223 401 c 0,53,54
 190 389 190 389 163 362 c 128,-1,55
 136 335 136 335 124 302 c 0,56,30
 115 275 115 275 115 244.5 c 128,-1,31
EndSplineSet
EndChar

StartChar: divide
Encoding: 247 247 185
Width: 852
GlyphClass: 1
Flags: W
LayerCount: 2
Fore
SplineSet
692 340 m 2,0,1
 706 340 706 340 716 329.5 c 128,-1,2
 726 319 726 319 726 305 c 128,-1,3
 726 291 726 291 716 280.5 c 128,-1,4
 706 270 706 270 692 270 c 2,5,-1
 162 270 l 2,6,7
 147 270 147 270 137 280.5 c 128,-1,8
 127 291 127 291 127 305 c 128,-1,9
 127 319 127 319 137 329.5 c 128,-1,10
 147 340 147 340 162 340 c 2,11,-1
 692 340 l 2,0,1
427 553 m 128,-1,13
 453 553 453 553 471 534 c 128,-1,14
 489 515 489 515 489 489.5 c 128,-1,15
 489 464 489 464 471 445.5 c 128,-1,16
 453 427 453 427 427 427 c 128,-1,17
 401 427 401 427 383 445 c 128,-1,18
 365 463 365 463 365 489 c 128,-1,19
 365 515 365 515 383 534 c 128,-1,12
 401 553 401 553 427 553 c 128,-1,13
427 183 m 128,-1,21
 453 183 453 183 471 164.5 c 128,-1,22
 489 146 489 146 489 120.5 c 128,-1,23
 489 95 489 95 471 76.5 c 128,-1,24
 453 58 453 58 427 58 c 0,25,26
 400 58 400 58 382.5 76 c 128,-1,27
 365 94 365 94 365 121 c 0,28,29
 365 147 365 147 383 165 c 128,-1,20
 401 183 401 183 427 183 c 128,-1,21
EndSplineSet
EndChar

StartChar: oslash
Encoding: 248 248 186
Width: 557
GlyphClass: 1
Flags: W
LayerCount: 2
Fore
SplineSet
474 408 m 1,0,1
 534 339 534 339 534 245 c 0,2,3
 534 141 534 141 459.5 66.5 c 128,-1,4
 385 -8 385 -8 281 -8 c 0,5,6
 194 -8 194 -8 128 43 c 1,7,-1
 77 -9 l 2,8,9
 68 -18 68 -18 55 -19 c 128,-1,10
 42 -20 42 -20 33 -11 c 128,-1,11
 24 -2 24 -2 23 10 c 0,12,13
 23 23 23 23 32 33 c 2,14,-1
 84 86 l 1,15,16
 28 154 28 154 28 245 c 0,17,18
 28 349 28 349 102 423.5 c 128,-1,19
 176 498 176 498 281 498 c 0,20,21
 365 498 365 498 430 449 c 1,22,-1
 476 499 l 2,23,24
 485 508 485 508 497 508.5 c 128,-1,25
 509 509 509 509 518.5 500.5 c 128,-1,26
 528 492 528 492 529 479 c 0,27,28
 529 467 529 467 520 457 c 2,29,-1
 474 408 l 1,0,1
188 107 m 1,30,31
 205 95 205 95 223 88 c 0,32,33
 250 79 250 79 280.5 79 c 128,-1,34
 311 79 311 79 338 88 c 0,35,36
 371 100 371 100 398 127.5 c 128,-1,37
 425 155 425 155 437 187 c 0,38,39
 446 214 446 214 446 244.5 c 128,-1,40
 446 275 446 275 437 302 c 0,41,42
 429 325 429 325 414 344 c 1,43,-1
 188 107 l 1,30,31
369 386 m 1,44,45
 354 396 354 396 338 401 c 0,46,47
 311 410 311 410 280 410 c 0,48,49
 279 411 279 411 278 411 c 0,50,51
 249 411 249 411 223 401 c 0,52,53
 190 389 190 389 163 362 c 128,-1,54
 136 335 136 335 124 302 c 0,55,56
 115 275 115 275 115 244.5 c 128,-1,57
 115 214 115 214 124 187 c 0,58,59
 131 167 131 167 144 150 c 1,60,-1
 369 386 l 1,44,45
EndSplineSet
EndChar

StartChar: ugrave
Encoding: 249 249 187
Width: 524
GlyphClass: 1
Flags: W
LayerCount: 2
Fore
SplineSet
331 548 m 1,0,-1
 278 548 l 1,1,-1
 137 722 l 1,2,-1
 226 722 l 1,3,-1
 331 548 l 1,0,-1
470 447 m 2,4,-1
 470 232 l 2,5,6
 470 124 470 124 412 62 c 256,7,8
 354 0 354 0 261 0 c 128,-1,9
 168 0 168 0 110.5 61 c 128,-1,10
 53 122 53 122 53 232 c 2,11,-1
 53 447 l 2,12,13
 53 465 53 465 66 477.5 c 128,-1,14
 79 490 79 490 96 490 c 0,15,16
 115 490 115 490 127.5 477 c 128,-1,17
 140 464 140 464 140 447 c 2,18,-1
 140 216 l 2,19,20
 140 157 140 157 174.5 121 c 128,-1,21
 209 85 209 85 262 85 c 0,22,23
 317 85 317 85 349 122 c 0,24,25
 383 162 383 162 383 216 c 2,26,-1
 383 447 l 2,27,28
 383 465 383 465 396 477.5 c 128,-1,29
 409 490 409 490 426 490 c 0,30,31
 445 490 445 490 457 477 c 0,32,33
 469 465 469 465 470 447 c 2,4,-1
EndSplineSet
EndChar

StartChar: uacute
Encoding: 250 250 188
Width: 524
GlyphClass: 1
Flags: W
LayerCount: 2
Fore
SplineSet
194 548 m 1,0,-1
 298 722 l 1,1,-1
 387 722 l 1,2,-1
 247 548 l 1,3,-1
 194 548 l 1,0,-1
470 447 m 2,4,-1
 470 232 l 2,5,6
 470 124 470 124 412 62 c 256,7,8
 354 0 354 0 261 0 c 128,-1,9
 168 0 168 0 110.5 61 c 128,-1,10
 53 122 53 122 53 232 c 2,11,-1
 53 447 l 2,12,13
 53 465 53 465 66 477.5 c 128,-1,14
 79 490 79 490 96 490 c 0,15,16
 115 490 115 490 127.5 477 c 128,-1,17
 140 464 140 464 140 447 c 2,18,-1
 140 216 l 2,19,20
 140 157 140 157 174.5 121 c 128,-1,21
 209 85 209 85 262 85 c 0,22,23
 317 85 317 85 349 122 c 0,24,25
 383 162 383 162 383 216 c 2,26,-1
 383 447 l 2,27,28
 383 465 383 465 396 477.5 c 128,-1,29
 409 490 409 490 426 490 c 0,30,31
 445 490 445 490 457 477 c 0,32,33
 469 465 469 465 470 447 c 2,4,-1
EndSplineSet
EndChar

StartChar: ucircumflex
Encoding: 251 251 189
Width: 524
GlyphClass: 1
Flags: W
LayerCount: 2
Fore
SplineSet
470 447 m 2,0,-1
 470 232 l 2,1,2
 470 124 470 124 412 62 c 256,3,4
 354 0 354 0 261 0 c 0,5,6
 168 0 168 0 110.5 61 c 0,7,8
 53 122 53 122 53 232 c 2,9,-1
 53 447 l 2,10,11
 53 465 53 465 66 477.5 c 0,12,13
 79 490 79 490 96 490 c 0,14,15
 115 490 115 490 127.5 477 c 0,16,17
 140 464 140 464 140 447 c 2,18,-1
 140 216 l 2,19,20
 140 157 140 157 174.5 121 c 0,21,22
 209 85 209 85 262 85 c 0,23,24
 317 85 317 85 349 122 c 0,25,26
 383 162 383 162 383 216 c 2,27,-1
 383 447 l 2,28,29
 383 465 383 465 396 477.5 c 0,30,31
 409 490 409 490 426 490 c 0,32,33
 445 490 445 490 457 477 c 0,34,35
 469 465 469 465 470 447 c 2,0,-1
EndSplineSet
Refer: 211 710 N 1 0 0 1 7 0 2
EndChar

StartChar: udieresis
Encoding: 252 252 190
Width: 524
GlyphClass: 1
Flags: W
LayerCount: 2
Fore
SplineSet
125 627 m 0,0,1
 125 647 125 647 140 662 c 128,-1,2
 155 677 155 677 174 677 c 0,3,4
 194 677 194 677 209 662 c 128,-1,5
 224 647 224 647 224 627 c 0,6,7
 224 605 224 605 209.5 591 c 128,-1,8
 195 577 195 577 174.5 577 c 128,-1,9
 154 577 154 577 139.5 591 c 128,-1,10
 125 605 125 605 125 627 c 0,0,1
300 627 m 0,11,12
 300 647 300 647 315 662 c 128,-1,13
 330 677 330 677 350 677 c 0,14,15
 369 677 369 677 384 662 c 128,-1,16
 399 647 399 647 399 627 c 0,17,18
 399 605 399 605 385 591 c 128,-1,19
 371 577 371 577 350.5 577 c 128,-1,20
 330 577 330 577 315 591 c 128,-1,21
 300 605 300 605 300 627 c 0,11,12
470 447 m 2,22,-1
 470 232 l 2,23,24
 470 124 470 124 412 62 c 256,25,26
 354 0 354 0 261 0 c 128,-1,27
 168 0 168 0 110.5 61 c 128,-1,28
 53 122 53 122 53 232 c 2,29,-1
 53 447 l 2,30,31
 53 465 53 465 66 477.5 c 128,-1,32
 79 490 79 490 96 490 c 0,33,34
 115 490 115 490 127.5 477 c 128,-1,35
 140 464 140 464 140 447 c 2,36,-1
 140 216 l 2,37,38
 140 157 140 157 174.5 121 c 128,-1,39
 209 85 209 85 262 85 c 0,40,41
 317 85 317 85 349 122 c 0,42,43
 383 162 383 162 383 216 c 2,44,-1
 383 447 l 2,45,46
 383 465 383 465 396 477.5 c 128,-1,47
 409 490 409 490 426 490 c 0,48,49
 445 490 445 490 457 477 c 0,50,51
 469 465 469 465 470 447 c 2,22,-1
EndSplineSet
EndChar

StartChar: yacute
Encoding: 253 253 191
Width: 524
GlyphClass: 1
Flags: W
LayerCount: 2
Fore
SplineSet
194 548 m 1,0,-1
 298 722 l 1,1,-1
 387 722 l 1,2,-1
 247 548 l 1,3,-1
 194 548 l 1,0,-1
383 447 m 0,4,5
 383 463 383 463 395 476.5 c 128,-1,6
 407 490 407 490 426 490 c 0,7,8
 446 490 446 490 462 474 c 0,9,10
 470 466 470 466 470 447 c 0,11,12
 470 332 470 332 470 216 c 0,13,14
 470 144 470 144 436 91 c 0,15,16
 407 44 407 44 334 13 c 0,17,18
 320 7 320 7 312.5 -4.5 c 128,-1,19
 305 -16 305 -16 305 -27 c 0,20,21
 305 -39 305 -39 305 -165 c 0,22,23
 305 -180 305 -180 294 -194.5 c 128,-1,24
 283 -209 283 -209 261 -209 c 0,25,26
 238 -209 238 -209 227.5 -194.5 c 128,-1,27
 217 -180 217 -180 217 -165 c 2,28,-1
 217 -28 l 2,29,30
 217 -15 217 -15 209.5 -3.5 c 128,-1,31
 202 8 202 8 189 12 c 0,32,33
 53 61 53 61 53 232 c 2,34,-1
 53 447 l 2,35,36
 53 463 53 463 65.5 476.5 c 128,-1,37
 78 490 78 490 96.5 490 c 128,-1,38
 115 490 115 490 127.5 477.5 c 128,-1,39
 140 465 140 465 140 447 c 2,40,-1
 140 232 l 2,41,42
 140 161 140 161 174 123 c 256,43,44
 208 85 208 85 261 85 c 0,45,46
 279 85 279 85 298 91 c 128,-1,47
 317 97 317 97 336.5 111 c 128,-1,48
 356 125 356 125 369 152 c 128,-1,49
 382 179 382 179 383 216 c 0,50,51
 383 222 383 222 383 275 c 128,-1,52
 383 328 383 328 383 387 c 128,-1,53
 383 446 383 446 383 447 c 0,4,5
EndSplineSet
EndChar

StartChar: thorn
Encoding: 254 254 192
Width: 575
GlyphClass: 1
Flags: W
LayerCount: 2
Fore
SplineSet
225 88 m 0,0,1
 251 75 251 75 294 75 c 0,2,3
 365 75 365 75 410.5 123 c 128,-1,4
 456 171 456 171 456 248 c 0,5,6
 456 323 456 323 411 370 c 128,-1,7
 366 417 366 417 297 417 c 128,-1,8
 228 417 228 417 184 370 c 128,-1,9
 140 323 140 323 140 245 c 2,10,-1
 140 -174 l 2,11,12
 140 -193 140 -193 127.5 -205.5 c 128,-1,13
 115 -218 115 -218 96.5 -218 c 128,-1,14
 78 -218 78 -218 65 -205 c 128,-1,15
 52 -192 52 -192 52 -174 c 2,16,-1
 52 672 l 2,17,18
 52 690 52 690 65 703 c 128,-1,19
 78 716 78 716 96.5 716 c 128,-1,20
 115 716 115 716 127.5 703 c 128,-1,21
 140 690 140 690 140 672 c 2,22,-1
 140 439 l 1,23,24
 203 500 203 500 299 500 c 0,25,26
 406 500 406 500 475.5 428.5 c 128,-1,27
 545 357 545 357 545 246 c 0,28,29
 545 143 545 143 478 70 c 0,30,31
 406 -8 406 -8 303 -8 c 0,32,33
 300 -8 300 -8 297 -8 c 0,34,35
 232 -8 232 -8 194 14 c 0,36,37
 178 22 178 22 172 36.5 c 128,-1,38
 166 51 166 51 173 67 c 128,-1,39
 180 83 180 83 195 88 c 0,40,41
 211 95 211 95 225 88 c 0,0,1
EndSplineSet
EndChar

StartChar: ydieresis
Encoding: 255 255 193
Width: 524
GlyphClass: 1
Flags: W
LayerCount: 2
Fore
SplineSet
125 627 m 4,0,1
 125 647 125 647 140 662 c 132,-1,2
 155 677 155 677 174 677 c 4,3,4
 194 677 194 677 209 662 c 132,-1,5
 224 647 224 647 224 627 c 4,6,7
 224 605 224 605 209.5 591 c 132,-1,8
 195 577 195 577 174.5 577 c 132,-1,9
 154 577 154 577 139.5 591 c 132,-1,10
 125 605 125 605 125 627 c 4,0,1
300 627 m 4,11,12
 300 647 300 647 315 662 c 132,-1,13
 330 677 330 677 350 677 c 4,14,15
 369 677 369 677 384 662 c 132,-1,16
 399 647 399 647 399 627 c 4,17,18
 399 605 399 605 385 591 c 132,-1,19
 371 577 371 577 350.5 577 c 132,-1,20
 330 577 330 577 315 591 c 132,-1,21
 300 605 300 605 300 627 c 4,11,12
383 447 m 0,22,23
 383 463 383 463 395 476.5 c 128,-1,24
 407 490 407 490 426 490 c 0,25,26
 446 490 446 490 462 474 c 0,27,28
 470 466 470 466 470 447 c 0,29,30
 470 332 470 332 470 216 c 0,31,32
 470 144 470 144 436 91 c 0,33,34
 407 44 407 44 334 13 c 0,35,36
 320 7 320 7 312.5 -4.5 c 128,-1,37
 305 -16 305 -16 305 -27 c 0,38,39
 305 -39 305 -39 305 -165 c 0,40,41
 305 -180 305 -180 294 -194.5 c 128,-1,42
 283 -209 283 -209 261 -209 c 0,43,44
 238 -209 238 -209 227.5 -194.5 c 128,-1,45
 217 -180 217 -180 217 -165 c 2,46,-1
 217 -28 l 2,47,48
 217 -15 217 -15 209.5 -3.5 c 128,-1,49
 202 8 202 8 189 12 c 0,50,51
 53 61 53 61 53 232 c 2,52,-1
 53 447 l 2,53,54
 53 463 53 463 65.5 476.5 c 128,-1,55
 78 490 78 490 96.5 490 c 128,-1,56
 115 490 115 490 127.5 477.5 c 128,-1,57
 140 465 140 465 140 447 c 2,58,-1
 140 232 l 2,59,60
 140 161 140 161 174 123 c 256,61,62
 208 85 208 85 261 85 c 0,63,64
 279 85 279 85 298 91 c 128,-1,65
 317 97 317 97 336.5 111 c 128,-1,66
 356 125 356 125 369 152 c 128,-1,67
 382 179 382 179 383 216 c 0,68,69
 383 222 383 222 383 275 c 128,-1,70
 383 328 383 328 383 387 c 128,-1,71
 383 446 383 446 383 447 c 0,22,23
EndSplineSet
EndChar

StartChar: dotlessi
Encoding: 305 305 195
Width: 208
GlyphClass: 1
Flags: W
LayerCount: 2
Fore
SplineSet
148 44 m 0,0,1
 147 25 147 25 135 12 c 0,2,3
 123 0 123 0 104.5 0 c 128,-1,4
 86 0 86 0 73 13 c 128,-1,5
 60 26 60 26 60 44 c 2,6,-1
 60 446 l 2,7,8
 60 464 60 464 73 477 c 128,-1,9
 86 490 86 490 104.5 490 c 128,-1,10
 123 490 123 490 135 477 c 0,11,12
 147 466 147 466 148 446 c 0,13,14
 148 278 148 278 148 44 c 0,0,1
EndSplineSet
EndChar

StartChar: Lslash
Encoding: 321 321 197
Width: 429
GlyphClass: 1
Flags: W
LayerCount: 2
Fore
SplineSet
63 668 m 2,0,1
 63 688 63 688 77 702 c 128,-1,2
 91 716 91 716 111 716 c 128,-1,3
 131 716 131 716 145 702 c 128,-1,4
 159 688 159 688 159 668 c 2,5,-1
 159 428 l 1,6,-1
 297 525 l 1,7,-1
 297 453 l 1,8,-1
 159 356 l 1,9,-1
 159 234 l 2,10,11
 159 163 159 163 195 125.5 c 128,-1,12
 231 88 231 88 300 88 c 2,13,-1
 388 88 l 2,14,15
 406 88 406 88 418.5 75 c 128,-1,16
 431 62 431 62 431 44 c 128,-1,17
 431 26 431 26 418.5 13 c 128,-1,18
 406 0 406 0 388 0 c 2,19,-1
 316 0 l 2,20,21
 63 0 63 0 63 250 c 2,22,-1
 63 302 l 1,23,-1
 5 262 l 1,24,-1
 5 332 l 1,25,-1
 63 375 l 1,26,-1
 63 668 l 2,0,1
EndSplineSet
EndChar

StartChar: lslash
Encoding: 322 322 198
Width: 218
GlyphClass: 1
Flags: W
LayerCount: 2
Fore
SplineSet
65 672 m 2,0,1
 65 690 65 690 77.5 703 c 128,-1,2
 90 716 90 716 109 716 c 128,-1,3
 128 716 128 716 141 703 c 128,-1,4
 154 690 154 690 154 672 c 2,5,-1
 154 420 l 1,6,-1
 213 460 l 1,7,-1
 213 401 l 1,8,-1
 154 361 l 1,9,-1
 154 44 l 2,10,11
 154 26 154 26 141 13 c 128,-1,12
 128 0 128 0 109 0 c 0,13,14
 91 0 91 0 78 13 c 128,-1,15
 65 26 65 26 65 44 c 2,16,-1
 65 313 l 1,17,-1
 5 273 l 1,18,-1
 5 331 l 1,19,-1
 65 373 l 1,20,-1
 65 672 l 2,0,1
EndSplineSet
EndChar

StartChar: OE
Encoding: 338 338 200
Width: 1144
GlyphClass: 1
Flags: W
LayerCount: 2
Fore
SplineSet
130 359 m 0,0,1
 130 241 130 241 208.5 159.5 c 128,-1,2
 287 78 287 78 396 78 c 0,3,4
 506 78 506 78 583 160 c 0,5,6
 662 243 662 243 662 359 c 0,7,8
 662 474 662 474 583 558 c 0,9,10
 506 640 506 640 396.5 640 c 128,-1,11
 287 640 287 640 209 559 c 0,12,13
 130 475 130 475 130 359 c 0,0,1
710 545 m 1,14,15
 732 581 732 581 764 611 c 0,16,17
 814 659 814 659 891.5 687.5 c 128,-1,18
 969 716 969 716 1062 716 c 0,19,20
 1078 716 1078 716 1091 704 c 128,-1,21
 1104 692 1104 692 1104 673.5 c 128,-1,22
 1104 655 1104 655 1091.5 643.5 c 128,-1,23
 1079 632 1079 632 1062 632 c 0,24,25
 857 632 857 632 782 477 c 0,26,27
 775 462 775 462 775 450 c 256,28,29
 775 438 775 438 782 430 c 0,30,31
 795 412 795 412 817 412 c 2,32,-1
 1063 412 l 2,33,34
 1082 412 1082 412 1093 398.5 c 128,-1,35
 1104 385 1104 385 1104 369.5 c 128,-1,36
 1104 354 1104 354 1093 340.5 c 128,-1,37
 1082 327 1082 327 1063 327 c 2,38,-1
 808 327 l 2,39,40
 790 327 790 327 776 312 c 0,41,42
 766 301 766 301 766 286 c 0,43,44
 766 281 766 281 767 275 c 0,45,46
 812 86 812 86 1061 86 c 0,47,48
 1080 86 1080 86 1092 72 c 128,-1,49
 1104 58 1104 58 1104 45 c 0,50,51
 1104 27 1104 27 1092 14 c 128,-1,52
 1080 1 1080 1 1061 0 c 0,53,54
 1054 0 1054 0 1046 0 c 0,55,56
 1024 0 1024 0 1000 2 c 0,57,58
 967 5 967 5 926.5 15.5 c 128,-1,59
 886 26 886 26 849 42.5 c 128,-1,60
 812 59 812 59 774.5 90 c 128,-1,61
 737 121 737 121 715 156 c 0,62,63
 710 165 710 165 708 167 c 1,64,65
 685 129 685 129 652 96 c 0,66,67
 543 -12 543 -12 396 -12 c 0,68,69
 395 -12 395 -12 393 -12 c 0,70,71
 244 -12 244 -12 140 95 c 0,72,73
 33 204 33 204 33 358 c 0,74,75
 33 359 33 359 33 361 c 0,76,77
 33 512 33 512 140 621 c 0,78,79
 245 728 245 728 396 728 c 0,80,81
 397 728 397 728 399 728 c 0,82,83
 547 728 547 728 652 620 c 0,84,85
 685 586 685 586 710 545 c 1,14,15
EndSplineSet
EndChar

StartChar: oe
Encoding: 339 339 201
Width: 955
GlyphClass: 1
Flags: W
LayerCount: 2
Fore
SplineSet
487 392 m 1,0,1
 497 407 497 407 515 425 c 0,2,3
 590 500 590 500 691 500 c 0,4,5
 763 500 763 500 824 460 c 0,6,7
 880 423 880 423 901 379 c 0,8,9
 909 362 909 362 905 350 c 0,10,11
 900 335 900 335 887 328 c 2,12,-1
 632 186 l 2,13,14
 619 179 619 179 604 183 c 128,-1,15
 589 187 589 187 581 201 c 128,-1,16
 573 215 573 215 577 230 c 0,17,18
 581 246 581 246 594 253 c 2,19,-1
 800 368 l 1,20,21
 756 417 756 417 690.5 417 c 128,-1,22
 625 417 625 417 579.5 367.5 c 128,-1,23
 534 318 534 318 534 246 c 0,24,25
 534 199 534 199 555 159 c 0,26,27
 575 120 575 120 611 97.5 c 128,-1,28
 647 75 647 75 690 75 c 0,29,30
 747 75 747 75 791 112 c 0,31,32
 831 147 831 147 839 192 c 0,33,34
 842 208 842 208 860 218 c 0,35,36
 870 224 870 224 881 224 c 0,37,38
 888 224 888 224 894 222 c 0,39,40
 913 216 913 216 921 201 c 0,41,42
 927 190 927 190 927 179 c 0,43,44
 927 173 927 173 925 167 c 0,45,46
 901 92 901 92 846 46 c 0,47,48
 780 -9 780 -9 690 -9 c 0,49,50
 623 -9 623 -9 566 26 c 0,51,52
 518 55 518 55 487 98 c 1,53,54
 475 81 475 81 459 65 c 0,55,56
 385 -9 385 -9 280.5 -9 c 128,-1,57
 176 -9 176 -9 102 65 c 128,-1,58
 28 139 28 139 28 243.5 c 128,-1,59
 28 348 28 348 102 422.5 c 128,-1,60
 176 497 176 497 280 497 c 0,61,62
 375 497 375 497 459 422 c 0,63,64
 477 406 477 406 487 392 c 1,0,1
115 244.5 m 128,-1,66
 115 214 115 214 124 187 c 0,67,68
 136 154 136 154 163 127 c 128,-1,69
 190 100 190 100 223 88 c 0,70,71
 250 79 250 79 280.5 79 c 128,-1,72
 311 79 311 79 338 88 c 0,73,74
 371 100 371 100 398 127.5 c 128,-1,75
 425 155 425 155 437 187 c 0,76,77
 446 214 446 214 446 244.5 c 128,-1,78
 446 275 446 275 437 302 c 0,79,80
 425 335 425 335 398 362 c 128,-1,81
 371 389 371 389 338 401 c 0,82,83
 311 410 311 410 280 410 c 0,84,85
 279 411 279 411 278 411 c 0,86,87
 249 411 249 411 223 401 c 0,88,89
 190 389 190 389 163 362 c 128,-1,90
 136 335 136 335 124 302 c 0,91,65
 115 275 115 275 115 244.5 c 128,-1,66
EndSplineSet
EndChar

StartChar: Ydieresis
Encoding: 376 376 207
Width: 555
GlyphClass: 1
Flags: W
LayerCount: 2
Fore
SplineSet
140 862 m 0,0,1
 140 882 140 882 155 897 c 128,-1,2
 170 912 170 912 189.5 912 c 128,-1,3
 209 912 209 912 224.5 897.5 c 128,-1,4
 240 883 240 883 240 862 c 0,5,6
 240 840 240 840 225 826 c 128,-1,7
 210 812 210 812 189.5 812 c 128,-1,8
 169 812 169 812 154.5 826 c 128,-1,9
 140 840 140 840 140 862 c 0,0,1
315 862 m 0,10,11
 315 882 315 882 330.5 897 c 128,-1,12
 346 912 346 912 365.5 912 c 128,-1,13
 385 912 385 912 400 897.5 c 128,-1,14
 415 883 415 883 415 862 c 0,15,16
 415 840 415 840 400.5 826 c 128,-1,17
 386 812 386 812 365.5 812 c 128,-1,18
 345 812 345 812 330 826 c 128,-1,19
 315 840 315 840 315 862 c 0,10,11
52 669 m 2,20,21
 52 685 52 685 64.5 700.5 c 128,-1,22
 77 716 77 716 99.5 716 c 128,-1,23
 122 716 122 716 134.5 701 c 128,-1,24
 147 686 147 686 147 669 c 2,25,-1
 147 521 l 2,26,27
 147 475 147 475 159.5 442 c 128,-1,28
 172 409 172 409 187 393 c 128,-1,29
 202 377 202 377 223.5 368 c 128,-1,30
 245 359 245 359 255 358 c 128,-1,31
 265 357 265 357 278 357 c 0,32,33
 289 357 289 357 299 358 c 128,-1,34
 309 359 309 359 331 368 c 128,-1,35
 353 377 353 377 368 392.5 c 128,-1,36
 383 408 383 408 395.5 441 c 128,-1,37
 408 474 408 474 408 520 c 2,38,-1
 408 669 l 2,39,40
 408 687 408 687 422 702 c 0,41,42
 434 715 434 715 455 716 c 0,43,44
 456 716 456 716 456 716 c 2,45,46
 476 716 476 716 490 702 c 0,47,48
 503 689 503 689 503 669 c 0,49,50
 503 668 503 668 503 629.5 c 128,-1,51
 503 591 503 591 503 567 c 128,-1,52
 503 543 503 543 503 520 c 0,53,54
 503 470 503 470 490 428 c 128,-1,55
 477 386 477 386 460.5 363 c 128,-1,56
 444 340 444 340 420 321 c 128,-1,57
 396 302 396 302 385 297 c 2,58,-1
 359 285 l 2,59,60
 357 285 357 285 356 284 c 0,61,62
 325 272 325 272 325 242 c 0,63,64
 325 241 325 241 325 240 c 2,65,-1
 325 47 l 2,66,67
 325 28 325 28 311 14 c 128,-1,68
 297 0 297 0 277.5 0 c 128,-1,69
 258 0 258 0 244 14 c 0,70,71
 231 26 231 26 230 47 c 0,72,73
 230 50 230 50 230 100.5 c 128,-1,74
 230 151 230 151 230 188.5 c 128,-1,75
 230 226 230 226 230 239 c 0,76,77
 230 270 230 270 201 284 c 0,78,79
 200 284 200 284 197 285 c 0,80,81
 183 291 183 291 171 296 c 128,-1,82
 159 301 159 301 135 320 c 128,-1,83
 111 339 111 339 95 362 c 128,-1,84
 79 385 79 385 65.5 427.5 c 128,-1,85
 52 470 52 470 52 521 c 2,86,-1
 52 669 l 2,20,21
EndSplineSet
EndChar

StartChar: Zcaron
Encoding: 381 381 208
Width: 509
GlyphClass: 1
Flags: W
LayerCount: 2
Fore
SplineSet
112 957 m 1,0,-1
 165 957 l 1,1,-1
 255 837 l 1,2,-1
 344 957 l 1,3,-1
 397 957 l 1,4,-1
 299 783 l 1,5,-1
 210 783 l 1,6,-1
 112 957 l 1,0,-1
100 628 m 0,7,8
 82 628 82 628 70 641 c 0,9,10
 57 653 57 653 56 672 c 2,11,12
 56 672 56 672 56 673 c 0,13,14
 56 690 56 690 69 703 c 256,15,16
 82 716 82 716 100 716 c 2,17,-1
 379 716 l 2,18,19
 433 716 433 716 458 698 c 128,-1,20
 483 680 483 680 483 636 c 0,21,22
 483 601 483 601 429 526 c 2,23,-1
 115 90 l 1,24,-1
 447 90 l 2,25,26
 465 90 465 90 479 76.5 c 128,-1,27
 493 63 493 63 493 45 c 128,-1,28
 493 27 493 27 479.5 13.5 c 128,-1,29
 466 0 466 0 447 0 c 2,30,-1
 121 0 l 2,31,32
 67 0 67 0 41.5 18 c 128,-1,33
 16 36 16 36 16 80 c 0,34,35
 16 95 16 95 25 114.5 c 128,-1,36
 34 134 34 134 42 146.5 c 128,-1,37
 50 159 50 159 72 189 c 2,38,-1
 387 628 l 1,39,40
 330 628 330 628 100 628 c 0,7,8
EndSplineSet
EndChar

StartChar: zcaron
Encoding: 382 382 209
Width: 427
GlyphClass: 1
Flags: W
LayerCount: 2
Fore
SplineSet
71 722 m 1,0,-1
 124 722 l 1,1,-1
 214 601 l 1,2,-1
 303 722 l 1,3,-1
 356 722 l 1,4,-1
 258 548 l 1,5,-1
 169 548 l 1,6,-1
 71 722 l 1,0,-1
310 490 m 2,7,8
 401 490 401 490 401 430 c 0,9,10
 401 399 401 399 373 367 c 2,11,-1
 125 84 l 1,12,-1
 361 84 l 2,13,14
 378 84 378 84 390.5 71.5 c 128,-1,15
 403 59 403 59 403 42 c 128,-1,16
 403 25 403 25 391 12.5 c 128,-1,17
 379 0 379 0 361 0 c 2,18,-1
 110 0 l 2,19,20
 23 0 23 0 23 66 c 0,21,22
 23 94 23 94 58 134 c 2,23,-1
 298 408 l 1,24,-1
 83 408 l 2,25,26
 66 408 66 408 54 419.5 c 128,-1,27
 42 431 42 431 42 450 c 0,28,29
 42 467 42 467 54 478.5 c 128,-1,30
 66 490 66 490 83 490 c 2,31,-1
 310 490 l 2,7,8
EndSplineSet
EndChar

StartChar: florin
Encoding: 402 402 210
Width: 557
GlyphClass: 1
Flags: W
LayerCount: 2
Fore
SplineSet
467 725 m 2,0,1
 484 725 484 725 496.5 712.5 c 128,-1,2
 509 700 509 700 509 683 c 0,3,4
 509 664 509 664 497 652 c 128,-1,5
 485 640 485 640 467 640 c 2,6,-1
 420 640 l 2,7,8
 392 640 392 640 378 625 c 128,-1,9
 364 610 364 610 355 575 c 2,10,-1
 327 443 l 1,11,-1
 423 443 l 2,12,13
 440 443 440 443 452.5 431 c 128,-1,14
 465 419 465 419 465 401 c 128,-1,15
 465 383 465 383 452.5 370.5 c 128,-1,16
 440 358 440 358 423 358 c 2,17,-1
 312 358 l 1,18,-1
 230 -83 l 2,19,20
 205 -218 205 -218 79 -218 c 2,21,-1
 -2 -218 l 2,22,23
 -20 -218 -20 -218 -32 -206.5 c 128,-1,24
 -44 -195 -44 -195 -44 -175 c 0,25,26
 -44 -158 -44 -158 -31.5 -145.5 c 128,-1,27
 -19 -133 -19 -133 -2 -133 c 2,28,-1
 71 -133 l 2,29,30
 123 -133 123 -133 135 -69 c 2,31,-1
 215 358 l 1,32,-1
 129 358 l 2,33,34
 111 358 111 358 99 370.5 c 128,-1,35
 87 383 87 383 87 401 c 0,36,37
 87 418 87 418 99.5 430.5 c 128,-1,38
 112 443 112 443 129 443 c 2,39,-1
 228 443 l 1,40,-1
 261 590 l 2,41,42
 291 725 291 725 404 725 c 2,43,-1
 467 725 l 2,0,1
EndSplineSet
EndChar

StartChar: circumflex
Encoding: 710 710 211
Width: 512
GlyphClass: 1
Flags: W
LayerCount: 2
Fore
SplineSet
299.385742188 722.000976562 m 16,0,1
 296 728 296 728 291 733 c 128,-1,2
 286 738 286 738 280.643996334 741.013327666 c 0,3,4
 275 745 275 745 268.275441576 746.253331916 c 0,5,6
 262 748 262 748 255 748 c 128,-1,7
 248 748 248 748 241.724558424 746.253331916 c 0,8,9
 235 745 235 745 229.356003666 741.013327666 c 0,10,11
 224 738 224 738 218.98352712 733.031687844 c 128,-1,12
 214 728 214 728 210.614554474 722 c 8,13,14
 176 660 176 660 140.6328125 598.5390625 c 0,15,16
 134 587 134 587 137.346679688 573.208984375 c 0,17,18
 141 560 141 560 152.4453125 552.728515625 c 0,19,20
 164 546 164 546 176.383789062 549.36328125 c 0,21,22
 188 552 188 552 194.7265625 563.888671875 c 0,23,-1
 255 675 l 24,24,-1
 315.2734375 563.888671875 l 0,25,26
 322 552 322 552 333.616210938 549.36328125 c 0,27,28
 346 546 346 546 357.5546875 552.728515625 c 0,29,30
 369 560 369 560 372.653320312 573.208984375 c 0,31,32
 376 587 376 587 369.3671875 598.5390625 c 0,33,34
 337 655 337 655 299.385742188 722.000976562 c 16,0,1
210.614554474 722 m 1024,35,-1
  Spiro
    210.615 722 {
    0 0 z
  EndSpiro
EndSplineSet
EndChar

StartChar: breve
Encoding: 728 728 213
Width: 560
GlyphClass: 1
Flags: W
LayerCount: 2
Fore
SplineSet
380 684.5 m 0,0,1
 380 632 380 632 344 596.5 c 128,-1,2
 308 561 308 561 256 561 c 128,-1,3
 204 561 204 561 168 596.5 c 128,-1,4
 132 632 132 632 132 684.5 c 0,5,6
 132 684.5 132 684.5 132 685 c 0,7,8
 132 696 132 696 140 704 c 128,-1,9
 148 712 148 712 159 712 c 128,-1,10
 170 712 170 712 178 704 c 128,-1,11
 186 696 186 696 186 685 c 0,12,13
 186 655 186 655 206 634 c 128,-1,14
 226 613 226 613 256 613 c 128,-1,15
 286 613 286 613 307 634 c 128,-1,16
 328 655 328 655 328 684.5 c 0,17,18
 328 684.5 328 684.5 328 685 c 0,19,20
 328 696 328 696 336 703.5 c 128,-1,21
 344 711 344 711 354 711 c 128,-1,22
 364 711 364 711 372 703.5 c 128,-1,23
 380 696 380 696 380 685 c 0,24,-1
 380 684.5 l 0,0,1
EndSplineSet
EndChar

StartChar: dotaccent
Encoding: 729 729 214
Width: 512
GlyphClass: 1
Flags: W
LayerCount: 2
Fore
SplineSet
206 635 m 0,0,1
 206 654 206 654 221 669 c 128,-1,2
 236 684 236 684 256 684 c 128,-1,3
 276 684 276 684 291 669 c 128,-1,4
 306 654 306 654 306 635 c 0,5,6
 306 613 306 613 291 599 c 128,-1,7
 276 585 276 585 256 585 c 128,-1,8
 236 585 236 585 221 599 c 128,-1,9
 206 613 206 613 206 635 c 0,0,1
EndSplineSet
EndChar

StartChar: ring
Encoding: 730 730 215
Width: 512
GlyphClass: 1
Flags: W
LayerCount: 2
Fore
SplineSet
132 669.5 m 132,-1,1
 132 722 132 722 168 758 c 132,-1,2
 204 794 204 794 256 794 c 132,-1,3
 308 794 308 794 344 758 c 132,-1,4
 380 722 380 722 380 669.5 c 132,-1,5
 380 617 380 617 344 581.5 c 132,-1,6
 308 546 308 546 256 546 c 132,-1,7
 204 546 204 546 168 581.5 c 132,-1,0
 132 617 132 617 132 669.5 c 132,-1,1
185 670 m 4,8,9
 185 640 185 640 205.5 619 c 132,-1,10
 226 598 226 598 256 598 c 132,-1,11
 286 598 286 598 307 619 c 132,-1,12
 328 640 328 640 328 669.5 c 132,-1,13
 328 699 328 699 307 720 c 132,-1,14
 286 741 286 741 256 741 c 4,15,16
 225 741 225 741 205 721 c 132,-1,17
 185 701 185 701 185 670 c 4,8,9
EndSplineSet
EndChar

